<svg width="48" height="48" viewBox="0 0 48 48" fill="none" xmlns="http://www.w3.org/2000/svg">
<path d="M10 18V34M19 18V34M29 18V34M38 18V34M6 37.2L6 38.8C6 39.9201 6 40.4802 6.21799 40.908C6.40973 41.2843 6.71569 41.5903 7.09202 41.7821C7.51984 42 8.07989 42 9.2 42H38.8C39.9201 42 40.4802 42 40.908 41.7821C41.2843 41.5903 41.5903 41.2843 41.782 40.908C42 40.4802 42 39.9201 42 38.8V37.2C42 36.0799 42 35.5199 41.782 35.0921C41.5903 34.7157 41.2843 34.4098 40.908 34.218C40.4802 34 39.9201 34 38.8 34H9.2C8.0799 34 7.51984 34 7.09202 34.218C6.7157 34.4098 6.40973 34.7157 6.21799 35.0921C6 35.5199 6 36.0799 6 37.2ZM23.3058 6.1543L8.50582 9.44319C7.6117 9.64188 7.16464 9.74123 6.83093 9.98165C6.53658 10.1937 6.30545 10.4818 6.1623 10.8152C6 11.1931 6 11.6511 6 12.567L6 14.8C6 15.9201 6 16.4802 6.21799 16.908C6.40973 17.2843 6.71569 17.5903 7.09202 17.7821C7.51984 18 8.07989 18 9.2 18H38.8C39.9201 18 40.4802 18 40.908 17.7821C41.2843 17.5903 41.5903 17.2843 41.782 16.908C42 16.4802 42 15.9201 42 14.8V12.567C42 11.6511 42 11.1931 41.8377 10.8152C41.6945 10.4818 41.4634 10.1937 41.1691 9.98165C40.8354 9.74123 40.3883 9.64189 39.4942 9.44319L24.6942 6.1543C24.4351 6.09674 24.3056 6.06795 24.1747 6.05647C24.0585 6.04628 23.9415 6.04628 23.8253 6.05647C23.6944 6.06795 23.5649 6.09674 23.3058 6.1543Z" stroke="#157DDE" stroke-width="3" stroke-linecap="round" stroke-linejoin="round"/>
</svg>
