<svg width="25" height="24" viewBox="0 0 25 24" fill="none" xmlns="http://www.w3.org/2000/svg">
<path fill-rule="evenodd" clip-rule="evenodd" d="M2.95366 1.36134C2.31565 1.42257 1.81419 1.92403 1.75295 2.56203C1.57287 4.43837 1.72361 6.17155 1.82225 6.9956C1.86028 7.3133 2.06126 7.58955 2.37351 7.65925C2.64887 7.7207 3.01736 7.7575 3.41233 7.66955C3.72462 7.6 3.92423 7.3133 3.96316 6.99575C4.08307 6.01755 4.12221 4.8842 4.13498 4.24859C4.14053 3.9725 4.36416 3.74887 4.64024 3.74332C5.27585 3.73055 6.4092 3.69142 7.38735 3.57153C7.70495 3.53261 7.99165 3.33299 8.06115 3.02069C8.1491 2.62574 8.11235 2.25725 8.05085 1.98189C7.98115 1.66964 7.7049 1.46866 7.38725 1.43063C6.56315 1.332 4.83001 1.18127 2.95366 1.36134ZM21.8296 1.36134C22.4676 1.42257 22.969 1.92403 23.0303 2.56203C23.2103 4.43837 23.0596 6.17155 22.961 6.9956C22.9229 7.3133 22.722 7.58955 22.4097 7.65925C22.1343 7.7207 21.7659 7.7575 21.3709 7.66955C21.0586 7.6 20.859 7.3133 20.8201 6.99575C20.7001 6.01755 20.661 4.8842 20.6482 4.24859C20.6427 3.9725 20.4191 3.74887 20.143 3.74332C19.5074 3.73055 18.374 3.69142 17.3959 3.57153C17.0783 3.53261 16.7916 3.33299 16.722 3.02069C16.6341 2.62574 16.6709 2.25725 16.7323 1.98189C16.8021 1.66964 17.0783 1.46866 17.396 1.43063C18.2201 1.332 19.9532 1.18127 21.8296 1.36134ZM23.0303 21.438C22.969 22.076 22.4676 22.5775 21.8296 22.6387C19.9532 22.8188 18.2201 22.668 17.396 22.5693C17.0783 22.5313 16.8021 22.3304 16.7323 22.0181C16.6709 21.7428 16.6341 21.3743 16.722 20.9793C16.7916 20.667 17.0783 20.4674 17.3959 20.4284C18.374 20.3086 19.5074 20.2695 20.143 20.2567C20.4191 20.2512 20.6427 20.0275 20.6482 19.7514C20.661 19.1158 20.7001 17.9825 20.8201 17.0042C20.859 16.6867 21.0586 16.4 21.3709 16.3305C21.7659 16.2425 22.1343 16.2793 22.4097 16.3407C22.722 16.4104 22.9229 16.6867 22.961 17.0044C23.0596 17.8285 23.2103 19.5616 23.0303 21.438ZM2.95366 22.6387C2.31565 22.5775 1.81419 22.076 1.75295 21.438C1.57287 19.5616 1.72361 17.8285 1.82225 17.0044C1.86028 16.6867 2.06126 16.4104 2.37351 16.3407C2.64887 16.2793 3.01736 16.2425 3.41233 16.3305C3.72462 16.4 3.92423 16.6867 3.96316 17.0042C4.08307 17.9825 4.12221 19.1158 4.13498 19.7514C4.14053 20.0275 4.36416 20.2512 4.64024 20.2567C5.27585 20.2695 6.4092 20.3086 7.38735 20.4284C7.70495 20.4674 7.99165 20.667 8.06115 20.9793C8.1491 21.3743 8.11235 21.7428 8.05085 22.0181C7.98115 22.3304 7.7049 22.5313 7.38725 22.5693C6.56315 22.668 4.83001 22.8188 2.95366 22.6387Z" fill="#6F7BBA"/>
<path fill-rule="evenodd" clip-rule="evenodd" d="M6.8918 17.968C7.15745 17.9292 7.30645 17.6998 7.3192 17.4317C7.3488 16.8105 7.3916 15.3356 7.3916 12C7.3916 8.66435 7.3488 7.18955 7.3192 6.56835C7.30645 6.3002 7.15745 6.07085 6.8918 6.032C6.76415 6.0133 6.60005 6 6.3916 6C6.18315 6 6.01905 6.0133 5.8914 6.032C5.62575 6.07085 5.47675 6.3002 5.464 6.56835C5.4344 7.18955 5.3916 8.66435 5.3916 12C5.3916 15.3356 5.4344 16.8105 5.464 17.4317C5.47675 17.6998 5.62575 17.9292 5.8914 17.968C6.01905 17.9867 6.18315 18 6.3916 18C6.60005 18 6.76415 17.9867 6.8918 17.968ZM9.83095 14.9821C10.1288 14.955 10.3125 14.7159 10.3283 14.4173C10.3568 13.8772 10.3916 12.7562 10.3916 10.5C10.3916 8.24385 10.3568 7.1228 10.3283 6.5827C10.3125 6.2841 10.1288 6.045 9.83095 6.0179C9.71315 6.00715 9.5683 6 9.3916 6C9.2149 6 9.07005 6.00715 8.95225 6.0179C8.65445 6.045 8.4707 6.2841 8.45495 6.5827C8.4264 7.1228 8.3916 8.24385 8.3916 10.5C8.3916 12.7562 8.4264 13.8772 8.45495 14.4173C8.4707 14.7159 8.65445 14.955 8.95225 14.9821C9.07005 14.9928 9.2149 15 9.3916 15C9.5683 15 9.71315 14.9928 9.83095 14.9821ZM13.3283 14.4173C13.3125 14.7159 13.1288 14.955 12.831 14.9821C12.7132 14.9928 12.5683 15 12.3916 15C12.2149 15 12.0701 14.9928 11.9523 14.9821C11.6545 14.955 11.4707 14.7159 11.455 14.4173C11.4264 13.8772 11.3916 12.7562 11.3916 10.5C11.3916 8.24385 11.4264 7.1228 11.455 6.5827C11.4707 6.2841 11.6545 6.045 11.9523 6.0179C12.0701 6.00715 12.2149 6 12.3916 6C12.5683 6 12.7132 6.00715 12.831 6.0179C13.1288 6.045 13.3125 6.2841 13.3283 6.5827C13.3568 7.1228 13.3916 8.24385 13.3916 10.5C13.3916 12.7562 13.3568 13.8772 13.3283 14.4173ZM13.3706 17.5791C13.3478 17.8386 13.1467 17.9886 12.8863 17.9948C12.7594 17.9979 12.597 18 12.3916 18C12.1862 18 12.0239 17.9979 11.897 17.9948C11.6366 17.9886 11.4355 17.8386 11.4127 17.5791C11.4004 17.4391 11.3916 17.2512 11.3916 17C11.3916 16.7488 11.4004 16.5609 11.4127 16.4209C11.4355 16.1614 11.6366 16.0114 11.897 16.0052C12.0239 16.0021 12.1862 16 12.3916 16C12.597 16 12.7594 16.0021 12.8863 16.0052C13.1467 16.0114 13.3478 16.1614 13.3706 16.4209C13.3829 16.5609 13.3916 16.7488 13.3916 17C13.3916 17.2512 13.3829 17.4391 13.3706 17.5791ZM15.831 14.9821C16.1288 14.955 16.3125 14.7159 16.3283 14.4173C16.3568 13.8772 16.3916 12.7562 16.3916 10.5C16.3916 8.24385 16.3568 7.1228 16.3283 6.5827C16.3125 6.2841 16.1288 6.045 15.831 6.0179C15.7132 6.00715 15.5683 6 15.3916 6C15.2149 6 15.0701 6.00715 14.9523 6.0179C14.6545 6.045 14.4707 6.2841 14.455 6.5827C14.4264 7.1228 14.3916 8.24385 14.3916 10.5C14.3916 12.7562 14.4264 13.8772 14.455 14.4173C14.4707 14.7159 14.6545 14.955 14.9523 14.9821C15.0701 14.9928 15.2149 15 15.3916 15C15.5683 15 15.7132 14.9928 15.831 14.9821ZM16.3706 17.5791C16.3478 17.8386 16.1467 17.9886 15.8863 17.9948C15.7594 17.9979 15.597 18 15.3916 18C15.1862 18 15.0239 17.9979 14.897 17.9948C14.6366 17.9886 14.4355 17.8386 14.4127 17.5791C14.4004 17.4391 14.3916 17.2512 14.3916 17C14.3916 16.7488 14.4004 16.5609 14.4127 16.4209C14.4355 16.1614 14.6366 16.0114 14.897 16.0052C15.0239 16.0021 15.1862 16 15.3916 16C15.597 16 15.7594 16.0021 15.8863 16.0052C16.1467 16.0114 16.3478 16.1614 16.3706 16.4209C16.3829 16.5609 16.3916 16.7488 16.3916 17C16.3916 17.2512 16.3829 17.4391 16.3706 17.5791ZM10.3706 17.5791C10.3478 17.8386 10.1467 17.9886 9.88625 17.9948C9.75935 17.9979 9.597 18 9.3916 18C9.1862 18 9.02385 17.9979 8.89695 17.9948C8.63655 17.9886 8.43545 17.8386 8.41265 17.5791C8.40035 17.4391 8.3916 17.2512 8.3916 17C8.3916 16.7488 8.40035 16.5609 8.41265 16.4209C8.43545 16.1614 8.63655 16.0114 8.89695 16.0052C9.02385 16.0021 9.1862 16 9.3916 16C9.597 16 9.75935 16.0021 9.88625 16.0052C10.1467 16.0114 10.3478 16.1614 10.3706 16.4209C10.3829 16.5609 10.3916 16.7488 10.3916 17C10.3916 17.2512 10.3829 17.4391 10.3706 17.5791ZM19.3192 17.4317C19.3065 17.6998 19.1575 17.9292 18.8918 17.968C18.7642 17.9867 18.6001 18 18.3916 18C18.1832 18 18.0191 17.9867 17.8914 17.968C17.6258 17.9292 17.4768 17.6998 17.464 17.4317C17.4344 16.8105 17.3916 15.3356 17.3916 12C17.3916 8.66435 17.4344 7.18955 17.464 6.56835C17.4768 6.3002 17.6258 6.07085 17.8914 6.032C18.0191 6.0133 18.1832 6 18.3916 6C18.6001 6 18.7642 6.0133 18.8918 6.032C19.1575 6.07085 19.3065 6.3002 19.3192 6.56835C19.3488 7.18955 19.3916 8.66435 19.3916 12C19.3916 15.3356 19.3488 16.8105 19.3192 17.4317Z" fill="#ACB5E9"/>
<rect x="0.891602" y="0.5" width="23" height="23" stroke="black"/>
</svg>
