<svg width="25" height="24" viewBox="0 0 25 24" fill="none" xmlns="http://www.w3.org/2000/svg">
<path d="M22.3476 11.0807C22.2857 10.5062 21.8143 10.163 21.2372 10.1336C20.0955 10.0754 17.6097 10 12.3916 10C7.17355 10 4.68771 10.0754 3.54602 10.1336C2.96894 10.163 2.49748 10.5062 2.43559 11.0807C2.40944 11.3234 2.3916 11.626 2.3916 12C2.3916 12.374 2.40944 12.6766 2.43559 12.9193C2.49748 13.4938 2.96894 13.837 3.54602 13.8664C4.68771 13.9246 7.17355 14 12.3916 14C17.6097 14 20.0955 13.9246 21.2372 13.8664C21.8143 13.837 22.2857 13.4938 22.3476 12.9193C22.3738 12.6766 22.3916 12.374 22.3916 12C22.3916 11.626 22.3738 11.3234 22.3476 11.0807Z" fill="#6F7BBA"/>
<path d="M22.3476 4.58072C22.2857 4.00621 21.8143 3.66299 21.2372 3.63357C20.0955 3.57537 17.6097 3.5 12.3916 3.5C7.17355 3.5 4.68771 3.57537 3.54602 3.63357C2.96894 3.66299 2.49748 4.00621 2.43559 4.58072C2.40944 4.82341 2.3916 5.12605 2.3916 5.5C2.3916 5.87395 2.40944 6.1766 2.43559 6.4193C2.49748 6.9938 2.96894 7.337 3.54602 7.3664C4.68771 7.42465 7.17355 7.5 12.3916 7.5C17.6097 7.5 20.0955 7.42465 21.2372 7.3664C21.8143 7.337 22.2857 6.9938 22.3476 6.4193C22.3738 6.1766 22.3916 5.87395 22.3916 5.5C22.3916 5.12605 22.3738 4.82341 22.3476 4.58072Z" fill="#6F7BBA"/>
<path d="M22.3476 17.5807C22.2857 17.0062 21.8143 16.663 21.2372 16.6336C20.0955 16.5754 17.6097 16.5 12.3916 16.5C7.17355 16.5 4.68771 16.5754 3.54602 16.6336C2.96894 16.663 2.49748 17.0062 2.43559 17.5807C2.40944 17.8234 2.3916 18.126 2.3916 18.5C2.3916 18.874 2.40944 19.1766 2.43559 19.4193C2.49748 19.9938 2.96894 20.337 3.54602 20.3664C4.68771 20.4246 7.17355 20.5 12.3916 20.5C17.6097 20.5 20.0955 20.4246 21.2372 20.3664C21.8143 20.337 22.2857 19.9938 22.3476 19.4193C22.3738 19.1766 22.3916 18.874 22.3916 18.5C22.3916 18.126 22.3738 17.8234 22.3476 17.5807Z" fill="#6F7BBA"/>
</svg>
