<svg width="25" height="24" viewBox="0 0 25 24" fill="none" xmlns="http://www.w3.org/2000/svg">
<path d="M8.12855 14.8477C8.046 14.3455 7.6094 13.9829 7.1076 14.0006C5.67195 14.0514 4.24889 14.1067 3.33963 14.1429C2.79267 14.1646 2.36727 14.6271 2.39268 15.1815C2.45761 16.5977 2.61872 19.1831 2.97141 20.6828C3.13317 21.3706 3.73098 21.7577 4.42649 21.8092C5.5945 21.8958 7.92805 22 12.3916 22C16.8552 22 19.1887 21.8958 20.3567 21.8092C21.0522 21.7577 21.6501 21.3706 21.8118 20.6828C22.1645 19.1831 22.3256 16.5977 22.3905 15.1815C22.416 14.6271 21.9906 14.1646 21.4436 14.1429C20.5343 14.1067 19.1113 14.0514 17.6756 14.0006C17.1738 13.9829 16.7372 14.3455 16.6547 14.8477L16.5363 15.5678C16.4558 16.0573 16.0381 16.4161 15.5486 16.4161H9.2346C8.74515 16.4161 8.3274 16.0573 8.24695 15.5678L8.12855 14.8477Z" fill="#ACB5E9"/>
<path d="M14.5498 8.2229C15.2795 8.2046 15.8705 8.17775 16.3465 8.1478C17.2928 8.0883 17.7028 7.19435 17.1266 6.4432C16.7405 5.93995 16.2228 5.30195 15.5366 4.51721C14.5251 3.36044 13.7576 2.68192 13.2341 2.28943C12.7194 1.90356 12.0634 1.90351 11.5487 2.28936C11.0251 2.68184 10.2576 3.36037 9.24627 4.51721C8.56037 5.30175 8.04272 5.93965 7.65667 6.44285C7.08032 7.19415 7.49047 8.08835 8.43692 8.14785C8.91282 8.17775 9.50377 8.2046 10.2333 8.2229C10.2307 8.55635 10.2292 8.92315 10.2292 9.3263C10.2292 10.894 10.2514 11.9129 10.2752 12.5546C10.2988 13.1913 10.6059 13.7737 11.2322 13.8992C11.5256 13.958 11.9054 14 12.3915 14C12.8777 14 13.2574 13.958 13.5509 13.8992C14.1772 13.7737 14.4842 13.1913 14.5078 12.5546C14.5316 11.9129 14.5538 10.894 14.5538 9.3263C14.5538 8.92315 14.5524 8.55635 14.5498 8.2229Z" fill="#6F7BBA"/>
</svg>
