<?xml version="1.0" encoding="UTF-8"?>
<svg xmlns="http://www.w3.org/2000/svg" xmlns:xlink="http://www.w3.org/1999/xlink" width="152px" height="40px" viewBox="0 0 152 40" version="1.1">
<defs>
<linearGradient id="linear0" gradientUnits="userSpaceOnUse" x1="26.0335" y1="79.01" x2="121.482" y2="114.395" gradientTransform="matrix(0.307071,0,0,0.307692,0,0)">
<stop offset="0" style="stop-color:rgb(40.784314%,71.372549%,100%);stop-opacity:1;"/>
<stop offset="1" style="stop-color:rgb(0%,51.764706%,100%);stop-opacity:1;"/>
</linearGradient>
</defs>
<g id="surface1">
<path style=" stroke:none;fill-rule:nonzero;fill:url(#linear0);" d="M 39.917969 20 C 39.917969 31.046875 30.984375 40 19.960938 40 C 8.9375 40 0 31.046875 0 20 C 0 8.953125 8.9375 0 19.960938 0 C 30.984375 0 39.917969 8.953125 39.917969 20 Z M 39.917969 20 "/>
<path style=" stroke:none;fill-rule:nonzero;fill:rgb(100%,100%,100%);fill-opacity:1;" d="M 10.765625 15.019531 C 11.46875 15.019531 12.019531 14.476562 12.019531 13.800781 C 12.019531 13.117188 11.46875 12.585938 10.765625 12.585938 C 10.070312 12.585938 9.519531 13.117188 9.519531 13.800781 C 9.519531 14.476562 10.070312 15.019531 10.765625 15.019531 Z M 10.765625 26.09375 C 11.453125 26.09375 11.894531 25.644531 11.894531 24.914062 L 11.894531 17.363281 C 11.894531 16.632812 11.453125 16.171875 10.765625 16.171875 C 10.078125 16.171875 9.644531 16.632812 9.644531 17.351562 L 9.644531 24.914062 C 9.644531 25.644531 10.078125 26.09375 10.765625 26.09375 Z M 10.765625 26.09375 "/>
<path style=" stroke:none;fill-rule:nonzero;fill:rgb(100%,100%,100%);fill-opacity:1;" d="M 14.84375 26.09375 C 15.496094 26.09375 15.957031 25.6875 15.957031 24.96875 L 15.957031 24.28125 L 16 24.28125 C 16.570312 25.390625 17.644531 26.066406 19.042969 26.066406 C 21.472656 26.066406 23 24.191406 23 21.136719 C 23 18.082031 21.464844 16.199219 19.054688 16.199219 C 17.691406 16.199219 16.605469 16.882812 16.054688 18 L 16 18 L 16 13.910156 C 16 13.152344 15.539062 12.730469 14.882812 12.730469 C 14.222656 12.730469 13.753906 13.152344 13.753906 13.910156 L 13.753906 24.96875 C 13.753906 25.699219 14.195312 26.09375 14.84375 26.09375 Z M 18.359375 24.230469 C 16.96875 24.230469 15.992188 23.011719 15.992188 21.136719 C 15.992188 19.28125 16.96875 18.046875 18.359375 18.046875 C 19.792969 18.046875 20.699219 19.246094 20.699219 21.136719 C 20.699219 23.039062 19.792969 24.230469 18.359375 24.230469 Z M 18.359375 24.230469 "/>
<path style=" stroke:none;fill-rule:evenodd;fill:rgb(100%,100%,100%);fill-opacity:1;" d="M 22.972656 14.800781 C 22.691406 14.964844 22.371094 15.390625 22.636719 16.09375 C 22.703125 16.269531 22.875 16.476562 23.089844 16.742188 C 23.726562 17.511719 24.761719 18.761719 24.78125 21.183594 C 24.761719 23.605469 23.726562 24.859375 23.089844 25.628906 C 22.875 25.890625 22.703125 26.097656 22.636719 26.277344 C 22.371094 26.980469 22.691406 27.402344 22.972656 27.566406 C 23.570312 27.902344 24.328125 27.363281 24.601562 27.089844 C 26.0625 25.625 26.671875 23.378906 26.695312 21.25 C 26.695312 21.226562 26.695312 21.207031 26.695312 21.183594 C 26.695312 21.164062 26.695312 21.140625 26.695312 21.121094 C 26.671875 18.988281 26.0625 16.742188 24.601562 15.277344 C 24.328125 15.003906 23.570312 14.464844 22.972656 14.800781 Z M 22.972656 14.800781 "/>
<path style=" stroke:none;fill-rule:evenodd;fill:rgb(100%,100%,100%);fill-opacity:1;" d="M 26.398438 12.984375 C 26.09375 13.195312 25.746094 13.738281 26.03125 14.636719 C 26.105469 14.867188 26.289062 15.132812 26.523438 15.46875 C 27.207031 16.457031 28.324219 18.066406 28.339844 21.183594 C 28.324219 24.300781 27.207031 25.910156 26.523438 26.898438 C 26.289062 27.234375 26.105469 27.5 26.03125 27.730469 C 25.746094 28.628906 26.09375 29.175781 26.398438 29.382812 C 27.039062 29.816406 27.855469 29.125 28.148438 28.773438 C 29.726562 26.886719 30.378906 23.988281 30.398438 21.25 C 30.398438 21.226562 30.398438 21.207031 30.398438 21.183594 C 30.398438 21.164062 30.398438 21.140625 30.398438 21.121094 C 30.378906 18.378906 29.726562 15.480469 28.148438 13.59375 C 27.855469 13.246094 27.039062 12.550781 26.398438 12.984375 Z M 26.398438 12.984375 "/>
<path style=" stroke:none;fill-rule:nonzero;fill:rgb(3.137255%,53.333333%,100%);fill-opacity:1;" d="M 51.542969 29.183594 C 52.671875 29.183594 53.339844 28.484375 53.339844 27.289062 L 53.339844 13.207031 C 53.339844 12 52.671875 11.300781 51.542969 11.300781 C 50.410156 11.300781 49.746094 12 49.746094 13.207031 L 49.746094 27.289062 C 49.746094 28.484375 50.410156 29.183594 51.542969 29.183594 Z M 51.542969 29.183594 "/>
<path style=" stroke:none;fill-rule:nonzero;fill:rgb(3.137255%,53.333333%,100%);fill-opacity:1;" d="M 57.625 28.953125 L 63.429688 28.953125 C 67.097656 28.953125 69.367188 27.035156 69.367188 23.96875 C 69.367188 21.664062 67.65625 19.941406 65.324219 19.757812 L 65.324219 19.664062 C 67.144531 19.382812 68.546875 17.792969 68.546875 15.886719 C 68.546875 13.21875 66.523438 11.542969 63.300781 11.542969 L 57.625 11.542969 C 56.496094 11.542969 55.828125 12.242188 55.828125 13.4375 L 55.828125 27.046875 C 55.828125 28.253906 56.496094 28.953125 57.625 28.953125 Z M 59.421875 18.78125 L 59.421875 14.257812 L 62.371094 14.257812 C 64.050781 14.257812 65.015625 15.054688 65.015625 16.453125 C 65.015625 17.925781 63.917969 18.78125 62.003906 18.78125 Z M 59.421875 26.238281 L 59.421875 21.183594 L 62.433594 21.183594 C 64.550781 21.183594 65.703125 22.050781 65.703125 23.679688 C 65.703125 25.34375 64.585938 26.238281 62.515625 26.238281 Z M 59.421875 26.238281 "/>
<path style=" stroke:none;fill-rule:nonzero;fill:rgb(3.137255%,53.333333%,100%);fill-opacity:1;" d="M 75.285156 29.195312 C 77.214844 29.195312 78.472656 28.253906 79.105469 26.625 L 79.175781 26.625 L 79.175781 27.421875 C 79.175781 28.589844 79.855469 29.207031 80.855469 29.207031 C 81.851562 29.207031 82.53125 28.589844 82.53125 27.421875 L 82.53125 17.597656 C 82.53125 16.390625 81.816406 15.753906 80.792969 15.753906 C 79.78125 15.753906 79.058594 16.390625 79.058594 17.597656 L 79.058594 23.425781 C 79.058594 25.140625 78.09375 26.261719 76.546875 26.261719 C 75.011719 26.261719 74.167969 25.34375 74.167969 23.621094 L 74.167969 17.597656 C 74.167969 16.390625 73.453125 15.753906 72.429688 15.753906 C 71.417969 15.753906 70.691406 16.390625 70.691406 17.597656 L 70.691406 24.355469 C 70.691406 27.371094 72.523438 29.195312 75.285156 29.195312 Z M 75.285156 29.195312 "/>
<path style=" stroke:none;fill-rule:nonzero;fill:rgb(3.137255%,53.333333%,100%);fill-opacity:1;" d="M 89.625 29.230469 C 92.992188 29.230469 95.265625 27.566406 95.265625 24.996094 C 95.265625 23.066406 94.148438 22.050781 91.433594 21.472656 L 89.328125 21.011719 C 88.054688 20.734375 87.554688 20.289062 87.554688 19.613281 C 87.554688 18.78125 88.375 18.214844 89.554688 18.214844 C 90.804688 18.214844 91.492188 18.816406 92.101562 19.601562 C 92.410156 19.976562 92.910156 20.144531 93.363281 20.144531 C 94.253906 20.144531 94.695312 19.648438 94.695312 18.9375 C 94.695312 18.769531 94.660156 18.601562 94.609375 18.417969 C 94.195312 16.960938 92.253906 15.742188 89.613281 15.742188 C 86.304688 15.742188 84.199219 17.332031 84.199219 19.808594 C 84.199219 21.726562 85.460938 23.015625 87.960938 23.558594 L 90.101562 24.019531 C 91.351562 24.296875 91.792969 24.667969 91.792969 25.371094 C 91.792969 26.226562 90.96875 26.757812 89.710938 26.757812 C 88.386719 26.757812 87.601562 26.347656 86.925781 25.441406 C 86.449219 24.898438 85.972656 24.644531 85.414062 24.644531 C 84.605469 24.644531 84.011719 25.1875 84.011719 25.996094 C 84.011719 26.191406 84.058594 26.417969 84.140625 26.648438 C 84.746094 28.167969 86.699219 29.230469 89.625 29.230469 Z M 89.625 29.230469 "/>
<path style=" stroke:none;fill-rule:nonzero;fill:rgb(3.137255%,53.333333%,100%);fill-opacity:1;" d="M 98.421875 14.414062 C 99.46875 14.414062 100.277344 13.605469 100.277344 12.589844 C 100.277344 11.566406 99.46875 10.769531 98.421875 10.769531 C 97.375 10.769531 96.566406 11.566406 96.566406 12.589844 C 96.566406 13.605469 97.375 14.414062 98.421875 14.414062 Z M 98.421875 29.207031 C 99.492188 29.207031 100.160156 28.519531 100.160156 27.371094 L 100.160156 17.597656 C 100.160156 16.453125 99.492188 15.753906 98.421875 15.753906 C 97.339844 15.753906 96.683594 16.453125 96.683594 17.597656 L 96.683594 27.371094 C 96.683594 28.519531 97.339844 29.207031 98.421875 29.207031 Z M 98.421875 29.207031 "/>
<path style=" stroke:none;fill-rule:nonzero;fill:rgb(3.137255%,53.333333%,100%);fill-opacity:1;" d="M 103.851562 29.207031 C 104.875 29.207031 105.585938 28.578125 105.585938 27.371094 L 105.585938 21.53125 C 105.585938 19.855469 106.574219 18.695312 108.132812 18.695312 C 109.691406 18.695312 110.476562 19.664062 110.476562 21.351562 L 110.476562 27.371094 C 110.476562 28.578125 111.191406 29.207031 112.214844 29.207031 C 113.226562 29.207031 113.953125 28.578125 113.953125 27.371094 L 113.953125 20.617188 C 113.953125 17.585938 112.359375 15.777344 109.527344 15.777344 C 107.5625 15.777344 106.277344 16.65625 105.597656 18.261719 L 105.527344 18.261719 L 105.527344 17.539062 C 105.527344 16.429688 104.839844 15.753906 103.792969 15.753906 C 102.742188 15.753906 102.113281 16.429688 102.113281 17.527344 L 102.113281 27.371094 C 102.113281 28.578125 102.839844 29.207031 103.851562 29.207031 Z M 103.851562 29.207031 "/>
<path style=" stroke:none;fill-rule:nonzero;fill:rgb(3.137255%,53.333333%,100%);fill-opacity:1;" d="M 121.652344 29.230469 C 124.117188 29.230469 126.089844 28.289062 126.9375 26.695312 C 127.089844 26.40625 127.175781 26.117188 127.175781 25.839844 C 127.175781 25.03125 126.566406 24.550781 125.816406 24.550781 C 125.367188 24.550781 125.054688 24.683594 124.6875 25.066406 C 123.746094 26.191406 122.914062 26.625 121.640625 26.625 C 119.878906 26.625 118.738281 25.371094 118.738281 23.449219 L 118.738281 23.292969 L 126.019531 23.292969 C 126.984375 23.292969 127.53125 22.738281 127.53125 21.761719 C 127.53125 18.25 125.105469 15.742188 121.488281 15.742188 C 117.714844 15.742188 115.324219 18.382812 115.324219 22.546875 C 115.324219 26.734375 117.667969 29.230469 121.652344 29.230469 Z M 118.773438 21.132812 C 118.894531 19.480469 120 18.347656 121.523438 18.347656 C 123.046875 18.347656 124.117188 19.445312 124.1875 21.132812 Z M 118.773438 21.132812 "/>
<path style=" stroke:none;fill-rule:nonzero;fill:rgb(3.137255%,53.333333%,100%);fill-opacity:1;" d="M 134.160156 29.230469 C 137.527344 29.230469 139.800781 27.566406 139.800781 24.996094 C 139.800781 23.066406 138.683594 22.050781 135.96875 21.472656 L 133.863281 21.011719 C 132.589844 20.734375 132.089844 20.289062 132.089844 19.613281 C 132.089844 18.78125 132.914062 18.214844 134.089844 18.214844 C 135.339844 18.214844 136.03125 18.816406 136.636719 19.601562 C 136.945312 19.976562 137.445312 20.144531 137.898438 20.144531 C 138.789062 20.144531 139.230469 19.648438 139.230469 18.9375 C 139.230469 18.769531 139.195312 18.601562 139.148438 18.417969 C 138.730469 16.960938 136.792969 15.742188 134.148438 15.742188 C 130.84375 15.742188 128.734375 17.332031 128.734375 19.808594 C 128.734375 21.726562 129.996094 23.015625 132.496094 23.558594 L 134.636719 24.019531 C 135.886719 24.296875 136.328125 24.667969 136.328125 25.371094 C 136.328125 26.226562 135.507812 26.757812 134.246094 26.757812 C 132.925781 26.757812 132.140625 26.347656 131.460938 25.441406 C 130.984375 24.898438 130.507812 24.644531 129.949219 24.644531 C 129.140625 24.644531 128.546875 25.1875 128.546875 25.996094 C 128.546875 26.191406 128.59375 26.417969 128.675781 26.648438 C 129.285156 28.167969 131.234375 29.230469 134.160156 29.230469 Z M 134.160156 29.230469 "/>
<path style=" stroke:none;fill-rule:nonzero;fill:rgb(3.137255%,53.333333%,100%);fill-opacity:1;" d="M 146.359375 29.230469 C 149.726562 29.230469 152 27.566406 152 24.996094 C 152 23.066406 150.882812 22.050781 148.167969 21.472656 L 146.0625 21.011719 C 144.789062 20.734375 144.289062 20.289062 144.289062 19.613281 C 144.289062 18.78125 145.109375 18.214844 146.289062 18.214844 C 147.539062 18.214844 148.226562 18.816406 148.835938 19.601562 C 149.144531 19.976562 149.644531 20.144531 150.097656 20.144531 C 150.988281 20.144531 151.429688 19.648438 151.429688 18.9375 C 151.429688 18.769531 151.394531 18.601562 151.34375 18.417969 C 150.929688 16.960938 148.988281 15.742188 146.347656 15.742188 C 143.039062 15.742188 140.933594 17.332031 140.933594 19.808594 C 140.933594 21.726562 142.195312 23.015625 144.695312 23.558594 L 146.835938 24.019531 C 148.085938 24.296875 148.527344 24.667969 148.527344 25.371094 C 148.527344 26.226562 147.703125 26.757812 146.445312 26.757812 C 145.121094 26.757812 144.335938 26.347656 143.660156 25.441406 C 143.183594 24.898438 142.707031 24.644531 142.148438 24.644531 C 141.339844 24.644531 140.746094 25.1875 140.746094 25.996094 C 140.746094 26.191406 140.792969 26.417969 140.875 26.648438 C 141.480469 28.167969 143.433594 29.230469 146.359375 29.230469 Z M 146.359375 29.230469 "/>
</g>
</svg>
