<svg width="68" height="56" viewBox="0 0 68 56" fill="none" xmlns="http://www.w3.org/2000/svg">
<path d="M4.05856 7.90761C6.35253 7.90761 8.14653 6.15036 8.14653 3.9538C8.14653 1.72796 6.35253 0 4.05856 0C1.794 0 0 1.72796 0 3.9538C0 6.15036 1.794 7.90761 4.05856 7.90761ZM4.05856 43.9019C6.29371 43.9019 7.73479 42.4375 7.73479 40.0652V15.5223C7.73479 13.1501 6.29371 11.6564 4.05856 11.6564C1.82341 11.6564 0.411738 13.1501 0.411738 15.4931V40.0652C0.411738 42.4375 1.82341 43.9019 4.05856 43.9019Z" fill="url(#paint0_linear_804_29)"/>
<path d="M17.3448 43.9019C19.4623 43.9019 20.9622 42.5839 20.9622 40.2409V38.0151H21.1092C22.962 41.6174 26.4618 43.814 31.0203 43.814C38.9316 43.814 43.9019 37.7222 43.9019 27.7938C43.9019 17.8653 38.9022 11.7443 31.0498 11.7443C26.6089 11.7443 23.0797 13.9701 21.2857 17.6017H21.1092V4.30525C21.1092 1.84511 19.6093 0.468599 17.4624 0.468599C15.3155 0.468599 13.7862 1.84511 13.7862 4.30525V40.2409C13.7862 42.6132 15.2272 43.9019 17.3448 43.9019ZM28.7852 37.8394C24.2561 37.8394 21.0798 33.8856 21.0798 27.7938C21.0798 21.7606 24.2561 17.7482 28.7852 17.7482C33.4614 17.7482 36.4023 21.6434 36.4023 27.7938C36.4023 33.9734 33.4614 37.8394 28.7852 37.8394Z" fill="url(#paint1_linear_804_29)"/>
<path fill-rule="evenodd" clip-rule="evenodd" d="M43.8171 7.20266C42.8933 7.7353 41.8471 9.11485 42.7132 11.3975C42.9327 11.9761 43.4899 12.6488 44.1993 13.5055C46.2705 16.0063 49.6399 20.0747 49.6991 27.9457C49.6399 35.8168 46.2705 39.8852 44.1993 42.386C43.4899 43.2426 42.9327 43.9153 42.7132 44.4939C41.8471 46.7766 42.8933 48.1561 43.8171 48.6888C45.7569 49.7845 48.2327 48.0265 49.1158 47.1433C53.8763 42.3828 55.856 35.0774 55.9329 28.1563H55.9352C55.9352 28.0861 55.935 28.016 55.9346 27.9457C55.935 27.8755 55.9352 27.8053 55.9352 27.7352H55.9329C55.856 20.8141 53.8763 13.5086 49.1158 8.74813C48.2327 7.86498 45.7569 6.10696 43.8171 7.20266Z" fill="url(#paint2_linear_804_29)"/>
<path fill-rule="evenodd" clip-rule="evenodd" d="M54.9641 1.2941C53.9704 1.97686 52.8449 3.74526 53.7766 6.67132C54.0128 7.413 54.6121 8.27532 55.3753 9.37344C57.6078 12.5855 61.2425 17.8151 61.2919 27.9446C61.2425 38.0741 57.6078 43.3037 55.3753 46.5158C54.6121 47.6139 54.0128 48.4762 53.7766 49.2179C52.8449 52.144 53.9704 53.9124 54.9641 54.5951C57.0509 55.9997 59.7141 53.7461 60.6641 52.6141C65.8085 46.4839 67.9342 37.0616 67.9985 28.1538H68C68 28.0841 67.9999 28.0144 67.9996 27.9446C67.9999 27.8749 68 27.8052 68 27.7355H67.9985C67.9342 18.8276 65.8085 9.40534 60.6641 3.27518C59.7141 2.1431 57.0509 -0.110434 54.9641 1.2941Z" fill="url(#paint3_linear_804_29)"/>
<defs>
<linearGradient id="paint0_linear_804_29" x1="8.79167" y1="26.6822" x2="41.0254" y2="38.632" gradientUnits="userSpaceOnUse">
<stop stop-color="#68B6FF"/>
<stop offset="1" stop-color="#0084FF"/>
</linearGradient>
<linearGradient id="paint1_linear_804_29" x1="8.79167" y1="26.6822" x2="41.0254" y2="38.632" gradientUnits="userSpaceOnUse">
<stop stop-color="#68B6FF"/>
<stop offset="1" stop-color="#0084FF"/>
</linearGradient>
<linearGradient id="paint2_linear_804_29" x1="45.1022" y1="32.4918" x2="56.2565" y2="33.8196" gradientUnits="userSpaceOnUse">
<stop stop-color="#68B6FF"/>
<stop offset="1" stop-color="#0084FF"/>
</linearGradient>
<linearGradient id="paint3_linear_804_29" x1="56.3466" y1="33.7852" x2="68.396" y2="34.9862" gradientUnits="userSpaceOnUse">
<stop stop-color="#68B6FF"/>
<stop offset="1" stop-color="#0084FF"/>
</linearGradient>
</defs>
</svg>
