<svg width="571" height="428" viewBox="0 0 571 428" fill="none" xmlns="http://www.w3.org/2000/svg">
<path d="M44.9052 349.89C97.9416 349.89 150.978 349.89 204.014 349.89C256.765 349.89 309.552 349.89 362.303 349.89C392.049 349.89 421.831 349.89 451.577 349.89C452.254 349.89 452.254 348.82 451.577 348.82C398.54 348.82 345.504 348.82 292.468 348.82C239.717 348.82 186.93 348.82 134.179 348.82C104.433 348.82 74.6512 348.82 44.9052 348.82C44.2276 348.82 44.2276 349.89 44.9052 349.89Z" fill="#E8E8E8"/>
<path d="M224.309 381.562C254.198 381.562 284.122 381.562 314.011 381.562C343.899 381.562 373.824 381.562 403.712 381.562C420.547 381.562 437.417 381.562 454.252 381.562C454.93 381.562 454.93 380.492 454.252 380.492C424.363 380.492 394.439 380.492 364.55 380.492C334.662 380.492 304.737 380.492 274.849 380.492C258.014 380.492 241.144 380.492 224.309 380.492C223.596 380.492 223.596 381.562 224.309 381.562Z" fill="#E8E8E8"/>
<path d="M59.2079 347.75C56.3902 346.145 53.8936 344.076 51.8606 341.544C50.8619 340.331 49.9346 339.011 49.1856 337.62C48.7576 336.836 48.3653 336.051 48.0086 335.231C47.8303 334.838 47.6519 334.446 47.5449 334.054C47.4736 333.84 47.4022 333.59 47.4022 333.34C47.1169 332.449 47.6876 331.949 49.0786 331.842C49.4709 332.377 50.3982 331.878 50.0059 331.307C48.9716 329.881 48.0443 328.383 47.2952 326.778C46.8673 325.886 46.4749 324.959 46.1539 324.031C46.0112 323.639 45.9042 323.247 45.7616 322.854C45.6902 322.64 45.6546 322.462 45.5832 322.248C45.3692 321.749 45.4763 321.249 45.8686 320.786C46.2253 321.392 47.0812 320.857 46.7959 320.251C44.5132 315.507 42.4089 310.728 40.4472 305.841C39.5199 303.559 38.6282 301.24 37.8079 298.886C37.4156 297.781 36.9162 296.639 36.6309 295.498C36.4169 294.571 36.2029 293.108 37.2372 292.502C37.7722 292.181 38.6996 292.145 38.9492 292.823C39.1989 293.465 40.1976 293.215 39.9836 292.538C38.8779 289.221 38.9849 285.904 40.3402 282.694C40.1262 282.801 39.9122 282.943 39.6982 283.05C43.4789 284.37 44.9056 289.185 46.3679 292.502C48.2226 296.675 50.0772 300.848 51.8962 305.021C55.6056 313.474 59.2792 321.963 62.8816 330.451C63.1312 331.022 64.0229 330.594 63.8446 330.023C62.9172 326.992 62.8102 323.96 63.5236 320.857C63.3096 320.964 63.0956 321.107 62.8816 321.214C64.2726 321.749 65.1642 322.926 65.3426 324.388C65.6992 324.352 66.0559 324.281 66.3769 324.245C65.6992 322.605 66.4126 320.75 68.1602 320.215C67.9463 320.144 67.7679 320.037 67.5539 319.965C72.2619 328.846 75.8643 338.262 78.3252 347.999C78.5036 348.677 79.5379 348.392 79.3596 347.714C76.8629 337.87 73.2249 328.383 68.4812 319.395C68.3742 319.181 68.0889 319.074 67.8749 319.145C65.6279 319.858 64.4152 322.319 65.3426 324.495C65.5566 324.994 66.4839 325.03 66.3769 324.352C66.1273 322.319 65.0216 320.893 63.0956 320.144C62.8459 320.037 62.4893 320.251 62.4536 320.5C61.7046 323.746 61.8116 327.027 62.7746 330.237C63.0956 330.095 63.4166 329.952 63.7376 329.809C59.8499 320.679 55.9266 311.548 51.9319 302.453C49.9703 297.959 47.9729 293.465 45.9399 289.007C44.6202 286.118 43.1222 283.05 39.9122 281.945C39.6269 281.838 39.3772 282.052 39.2702 282.301C37.8792 285.654 37.7366 289.292 38.9136 292.716C39.2702 292.609 39.5912 292.538 39.9479 292.431C39.3772 290.933 37.5226 290.719 36.3099 291.717C34.0986 293.536 36.0959 297.353 36.8449 299.386C39.4842 306.626 42.4802 313.724 45.8329 320.679C46.1539 320.5 46.4392 320.322 46.7603 320.144C46.4036 319.537 45.7616 319.323 45.0839 319.644C44.2279 320.072 44.2279 321.035 44.3706 321.856C45.0126 325.351 46.9742 328.882 49.0429 331.735C49.3639 331.557 49.6493 331.379 49.9703 331.2C49.1499 330.095 47.6163 330.13 46.7603 331.2C45.3693 332.948 47.0099 335.73 47.8659 337.335C50.3269 342.043 54.1076 345.895 58.6729 348.57C59.2792 349.034 59.8142 348.106 59.2079 347.75Z" fill="#E8E8E8"/>
<path d="M111.673 348.463C110.175 347.143 108.962 345.61 108.106 343.826C107.714 342.97 107.393 342.043 107.179 341.116C107.072 340.581 106.965 340.046 106.965 339.511C107.001 338.548 108.32 336.372 109.355 338.013C109.711 338.619 110.567 338.084 110.282 337.478C109.105 335.124 108.178 332.698 107.536 330.13C107.25 328.989 107.001 327.848 106.822 326.706C106.715 325.922 106.608 325.101 106.537 324.317C106.501 323.782 106.252 320.821 107.785 321.677C108.178 321.927 108.677 321.535 108.57 321.071C106.43 312.939 105.788 304.557 106.715 296.211C106.394 296.354 106.109 296.461 105.788 296.604C107.393 298.28 108.32 300.313 108.534 302.631C108.891 302.631 109.248 302.631 109.604 302.631C109.497 301.597 109.64 300.777 110.139 299.849C109.925 299.921 109.747 300.028 109.533 300.099C112.386 301.24 112.85 306.376 113.528 308.98C114.348 312.226 115.168 315.471 115.882 318.717C117.38 325.351 118.699 332.021 119.841 338.726C119.948 339.297 120.732 339.19 120.875 338.726C121.196 337.834 121.232 336.978 121.303 336.015C121.339 335.48 121.374 334.945 121.517 334.41C121.624 334.196 121.731 333.947 121.802 333.733C123.443 332.877 124.049 333.019 123.657 334.161C123.443 334.446 123.693 334.874 123.978 334.945C124.763 335.159 125.262 334.91 125.833 334.41C126.082 334.196 126.261 333.875 126.51 333.661C126.938 333.305 127.901 332.912 128.508 333.055C129.685 333.376 129.792 335.48 129.792 336.408C129.899 340.545 129.899 344.647 129.97 348.784C129.97 349.462 131.04 349.462 131.04 348.784C131.004 346.038 130.969 343.327 130.933 340.581C130.897 338.476 131.254 335.873 130.505 333.875C130.077 332.805 129.15 331.842 127.937 331.771C126.439 331.7 125.369 334.196 124.263 333.911C124.37 334.161 124.477 334.446 124.584 334.696C125.619 333.34 124.014 331.521 122.48 331.878C119.734 332.52 120.483 336.515 119.841 338.405C120.197 338.405 120.518 338.405 120.875 338.405C119.591 330.808 118.057 323.211 116.274 315.721C115.382 312.012 114.455 308.338 113.456 304.664C112.85 302.417 112.137 299.992 109.783 299.065C109.569 298.993 109.283 299.136 109.176 299.314C108.57 300.384 108.356 301.419 108.499 302.631C108.57 303.309 109.64 303.309 109.569 302.631C109.355 300.028 108.356 297.745 106.537 295.855C106.18 295.498 105.681 295.783 105.61 296.247C104.682 304.664 105.324 313.189 107.5 321.392C107.75 321.178 108.035 321 108.285 320.786C107.393 320.286 106.394 320.465 105.788 321.321C104.861 322.605 105.396 324.816 105.61 326.207C106.145 330.344 107.429 334.303 109.283 338.013C109.604 337.834 109.89 337.656 110.211 337.478C109.64 336.55 108.57 336.229 107.536 336.622C106.323 337.085 105.859 338.298 105.824 339.511C105.717 343.184 108.213 346.929 110.817 349.212C111.459 349.676 112.208 348.891 111.673 348.463Z" fill="#E8E8E8"/>
<path d="M346.145 347.785C345.86 346.073 345.717 344.397 345.753 342.649C345.753 341.972 345.788 341.33 345.86 340.652C345.895 340.153 345.967 339.653 346.074 339.154C346.181 338.155 346.823 337.906 347.928 338.476C348.285 338.512 348.642 338.583 348.963 338.619C348.463 329.845 350.282 321.178 354.348 313.367C354.027 313.331 353.706 313.296 353.385 313.224C353.599 313.831 353.849 314.473 354.063 315.079C354.277 315.65 355.062 315.543 355.097 314.936C355.882 306.483 358.914 298.423 363.8 291.468C363.55 291.539 363.301 291.61 363.051 291.646C365.512 292.823 364.192 297.067 363.907 299.1C363.479 301.989 363.087 304.878 362.659 307.732C361.838 313.51 360.982 319.252 360.162 325.03C360.055 325.708 361.054 325.993 361.196 325.315C361.589 323.318 362.908 321.82 364.906 321.214C364.692 321.035 364.442 320.857 364.228 320.714C364.371 322.07 364.727 323.247 365.476 324.388C365.69 324.709 366.19 324.745 366.404 324.388C367.26 322.854 368.829 324.317 369.15 325.28C369.507 326.35 369.221 327.455 368.936 328.49C368.401 330.665 367.866 332.841 367.331 335.017C366.297 339.261 365.227 343.47 364.192 347.714C364.014 348.392 365.048 348.677 365.227 347.999C366.867 341.365 368.793 334.696 370.184 327.99C370.541 326.314 370.612 324.174 368.972 323.175C367.795 322.462 366.225 322.605 365.512 323.889C365.833 323.889 366.118 323.889 366.439 323.889C365.797 322.89 365.476 321.927 365.369 320.75C365.334 320.429 365.048 320.144 364.692 320.251C362.373 320.928 360.733 322.712 360.233 325.101C360.59 325.208 360.911 325.28 361.268 325.387C362.266 318.467 363.265 311.548 364.299 304.629C364.763 301.561 365.405 298.423 365.619 295.284C365.726 293.536 365.441 291.575 363.729 290.754C363.443 290.612 363.158 290.683 362.98 290.933C357.951 298.03 354.919 306.269 354.099 314.936C354.455 314.901 354.812 314.829 355.133 314.794C354.919 314.187 354.669 313.545 354.455 312.939C354.313 312.547 353.706 312.368 353.492 312.796C349.355 320.75 347.429 329.631 347.964 338.583C348 339.154 348.891 339.332 348.998 338.726C349.391 336.836 346.93 336.122 345.788 337.406C344.825 338.476 344.825 340.224 344.754 341.579C344.647 343.719 344.79 345.859 345.146 347.964C345.218 348.748 346.252 348.463 346.145 347.785Z" fill="#E8E8E8"/>
<path d="M108.89 224.985C108.498 232.154 108.391 239.359 108.676 246.564C108.819 250.166 108.997 253.733 109.318 257.335C109.532 260.046 109.425 263.256 110.566 265.788C111.565 267.999 113.669 268.927 115.952 269.283C119.198 269.783 122.586 269.747 125.867 269.89C133.108 270.175 140.348 270.282 147.588 270.175C155.756 270.068 163.959 269.676 172.091 269.069C172.769 269.034 172.769 267.964 172.091 267.999C158.788 268.998 145.484 269.319 132.145 268.998C128.756 268.927 125.368 268.784 121.98 268.606C119.126 268.463 114.846 268.891 112.564 266.822C110.281 264.754 110.602 260.474 110.352 257.656C110.067 254.303 109.853 250.951 109.746 247.598C109.461 240.072 109.532 232.511 109.924 224.985C109.996 224.308 108.926 224.308 108.89 224.985Z" fill="#E8E8E8"/>
<path d="M109.569 225.199C131.932 225.77 154.26 226.376 176.623 226.947C176.444 226.769 176.266 226.59 176.088 226.412C175.053 239.644 174.055 252.877 173.02 266.109C172.985 266.787 174.055 266.787 174.09 266.109C175.125 252.877 176.123 239.644 177.158 226.412C177.193 226.127 176.908 225.877 176.623 225.877C154.26 225.306 131.932 224.7 109.569 224.129C108.892 224.094 108.892 225.164 109.569 225.199Z" fill="#E8E8E8"/>
<path d="M112.351 218.494C114.063 219.279 115.489 220.42 116.631 221.882C117.059 222.417 117.808 221.668 117.38 221.133C116.167 219.6 114.633 218.387 112.886 217.567C112.279 217.281 111.744 218.209 112.351 218.494Z" fill="#E8E8E8"/>
<path d="M112.992 222.739C114.918 221.169 116.844 219.6 118.77 218.066C119.305 217.638 118.556 216.889 118.021 217.317C116.095 218.887 114.169 220.456 112.243 221.99C111.708 222.418 112.457 223.167 112.992 222.739Z" fill="#E8E8E8"/>
<path d="M122.194 216.71C121.98 218.672 122.123 220.634 122.587 222.56C122.765 223.237 123.764 222.952 123.621 222.274C123.193 220.455 123.086 218.601 123.264 216.71C123.336 216.033 122.266 216.033 122.194 216.71Z" fill="#E8E8E8"/>
<path d="M123.122 217.281C125.155 217.067 127.117 217.139 129.114 217.495C129.792 217.602 130.077 216.604 129.399 216.461C127.295 216.069 125.226 215.997 123.122 216.211C122.444 216.283 122.444 217.353 123.122 217.281Z" fill="#E8E8E8"/>
<path d="M122.551 222.06C124.513 222.702 126.581 222.702 128.543 222.025C129.185 221.811 128.9 220.776 128.258 220.99C126.474 221.597 124.655 221.597 122.836 221.026C122.159 220.812 121.873 221.846 122.551 222.06Z" fill="#E8E8E8"/>
<path d="M128.723 216.711C128.723 218.316 128.723 219.921 128.723 221.526C128.723 222.204 129.793 222.204 129.793 221.526C129.793 219.921 129.793 218.316 129.793 216.711C129.793 216.033 128.723 216.033 128.723 216.711Z" fill="#E8E8E8"/>
<path d="M122.55 219.35C124.976 219.849 127.365 219.849 129.791 219.314C130.468 219.171 130.183 218.137 129.505 218.28C127.294 218.779 125.047 218.779 122.836 218.315C122.194 218.173 121.908 219.207 122.55 219.35Z" fill="#E8E8E8"/>
<path d="M134.392 219.314C136.96 219.849 139.492 219.849 142.06 219.314C142.738 219.171 142.453 218.137 141.775 218.28C139.385 218.743 137.031 218.743 134.677 218.28C134 218.137 133.714 219.171 134.392 219.314Z" fill="#E8E8E8"/>
<path d="M139.28 249.274C136.105 245.672 138.602 239.929 140.885 236.541C143.56 232.546 148.054 229.515 153.011 229.8C154.759 229.907 156.293 230.406 156.257 232.546C156.221 233.616 155.793 234.758 155.508 235.792C154.795 238.289 153.796 240.571 151.906 242.39C148.517 245.672 144.13 249.167 139.315 249.631C138.638 249.702 138.638 250.772 139.315 250.701C143.916 250.237 147.59 247.455 151.05 244.602C152.976 242.997 154.545 241.32 155.544 239.002C156.4 237.005 157.327 234.544 157.363 232.368C157.47 228.088 151.834 228.409 148.981 229.229C144.665 230.442 141.241 233.616 139.101 237.468C137.033 241.178 135.356 246.456 138.566 250.023C138.959 250.558 139.708 249.809 139.28 249.274Z" fill="#E8E8E8"/>
<path d="M140.064 250.059C139.815 249.88 139.565 249.702 139.315 249.524C139.173 249.417 138.923 249.452 138.78 249.524C136.89 250.522 135.392 252.413 135.178 254.624C135 256.514 136.141 258.191 138.21 257.87C140.136 257.549 142.169 255.837 142.311 253.804C142.418 251.913 140.813 250.344 138.959 250.629C138.281 250.736 138.566 251.771 139.244 251.664C141.598 251.343 141.527 254.374 140.385 255.551C139.494 256.479 137.425 257.691 136.498 256.193C135.891 255.23 136.462 253.661 136.961 252.769C137.282 252.234 137.675 251.735 138.138 251.307C138.78 250.736 138.923 250.558 139.601 251.022C140.1 251.378 140.635 250.451 140.064 250.059Z" fill="#E8E8E8"/>
<path d="M206.047 225.52C205.94 232.475 205.869 239.466 205.869 246.421C205.869 249.845 205.869 253.269 205.869 256.693C205.869 258.333 205.869 260.01 205.869 261.65C205.869 263.22 205.655 264.932 205.976 266.465C206.368 268.498 208.116 269.033 209.97 269.212C213.323 269.533 216.747 269.64 220.135 269.782C227.09 270.103 234.081 270.246 241.036 270.21C248.954 270.175 256.872 269.925 264.79 269.497C265.468 269.461 265.468 268.391 264.79 268.427C252.057 269.14 239.288 269.354 226.52 268.962C223.345 268.855 220.135 268.748 216.961 268.57C215.427 268.498 213.894 268.391 212.36 268.284C211.183 268.213 208.401 268.427 207.545 267.321C206.582 266.073 206.974 263.505 206.974 261.971C206.974 260.331 206.974 258.654 206.939 257.014C206.939 253.839 206.939 250.629 206.939 247.455C206.974 240.143 207.01 232.832 207.117 225.484C207.153 224.842 206.083 224.842 206.047 225.52Z" fill="#E8E8E8"/>
<path d="M211.254 225.306C223.096 225.841 234.973 226.376 246.814 226.947C249.739 227.09 252.699 227.232 255.624 227.339C257.157 227.411 258.691 227.482 260.189 227.553C261.402 227.625 264.398 227.197 264.968 228.552C265.396 229.551 264.933 231.477 264.861 232.547C264.79 234.08 264.683 235.578 264.612 237.112C264.433 240.037 264.291 242.926 264.112 245.85C263.72 252.627 263.328 259.368 262.935 266.145C262.9 266.822 263.97 266.822 264.005 266.145C264.362 259.725 264.754 253.305 265.111 246.885C265.289 243.746 265.468 240.572 265.646 237.433C265.753 235.792 265.824 234.152 265.931 232.547C266.003 231.298 266.252 229.943 266.074 228.695C265.789 226.662 264.005 226.662 262.293 226.59C259.012 226.448 255.731 226.305 252.449 226.127C245.994 225.841 239.538 225.52 233.082 225.235C225.806 224.914 218.53 224.557 211.254 224.236C210.541 224.201 210.541 225.271 211.254 225.306Z" fill="#E8E8E8"/>
<path d="M207.723 219.065C209.827 219.243 211.682 220.42 212.788 222.239C213.144 222.845 214.072 222.275 213.715 221.704C212.431 219.564 210.255 218.209 207.759 217.995C207.045 217.923 207.045 218.993 207.723 219.065Z" fill="#E8E8E8"/>
<path d="M208.971 222.738C210.79 221.418 212.573 219.992 214.249 218.458C214.749 217.994 214 217.245 213.5 217.709C211.895 219.171 210.219 220.527 208.471 221.811C207.865 222.239 208.4 223.166 208.971 222.738Z" fill="#E8E8E8"/>
<path d="M217.818 215.712C217.497 217.567 217.39 219.457 217.533 221.348C217.568 222.025 218.638 222.025 218.603 221.348C218.46 219.564 218.531 217.781 218.852 215.998C218.959 215.32 217.925 215.035 217.818 215.712Z" fill="#E8E8E8"/>
<path d="M217.888 221.811C220.278 222.346 222.632 222.06 224.843 221.062C225.485 220.776 224.914 219.849 224.308 220.134C222.346 221.026 220.242 221.24 218.173 220.776C217.496 220.634 217.21 221.668 217.888 221.811Z" fill="#E8E8E8"/>
<path d="M218.03 216.104C220.17 215.854 222.31 215.747 224.486 215.712C225.164 215.712 225.164 214.642 224.486 214.642C222.346 214.677 220.17 214.784 218.03 215.034C217.353 215.105 217.353 216.175 218.03 216.104Z" fill="#E8E8E8"/>
<path d="M224.915 215.391C224.415 217.46 224.201 219.528 224.273 221.668C224.308 222.346 225.378 222.346 225.343 221.668C225.271 219.635 225.45 217.638 225.949 215.676C226.092 214.999 225.057 214.713 224.915 215.391Z" fill="#E8E8E8"/>
<path d="M217.888 218.351C220.206 218.672 222.489 218.779 224.807 218.601C225.485 218.565 225.485 217.495 224.807 217.531C222.596 217.674 220.385 217.602 218.173 217.317C217.496 217.21 217.21 218.244 217.888 218.351Z" fill="#E8E8E8"/>
<path d="M230.265 218.458C232.726 218.708 235.222 218.993 237.683 219.243C238.361 219.314 238.361 218.244 237.683 218.173C235.222 217.923 232.726 217.638 230.265 217.388C229.587 217.317 229.587 218.387 230.265 218.458Z" fill="#E8E8E8"/>
<path d="M218.816 238.289C221.848 238.646 224.808 238.289 227.697 237.29C228.339 237.076 228.054 236.042 227.412 236.256C224.594 237.255 221.776 237.54 218.816 237.219C218.138 237.112 218.138 238.182 218.816 238.289Z" fill="#E8E8E8"/>
<path d="M229.551 241.464C232.048 240.394 234.402 239.11 236.613 237.54C237.184 237.148 236.649 236.221 236.078 236.613C233.867 238.147 231.513 239.466 229.016 240.536C228.41 240.786 228.945 241.713 229.551 241.464Z" fill="#E8E8E8"/>
<path d="M228.589 241.677C229.445 243.318 230.265 244.994 231.05 246.671C231.906 248.561 233.047 250.558 232.94 252.663C232.726 256.443 231.371 260.402 229.944 263.898C229.694 264.54 230.729 264.825 230.978 264.183C232.476 260.545 234.153 256.087 234.046 252.092C233.974 250.38 233.225 248.846 232.548 247.313C231.62 245.208 230.586 243.14 229.552 241.107C229.195 240.536 228.303 241.071 228.589 241.677Z" fill="#E8E8E8"/>
<path d="M235.829 237.576C237.22 240.072 238.575 242.569 239.966 245.101C241.5 247.883 242.605 250.202 241.607 253.412C240.822 255.98 239.609 258.512 238.218 260.83C237.077 262.756 233.546 267.143 231.442 263.612C231.085 263.006 230.158 263.577 230.514 264.147C231.691 266.109 234.259 266.287 236.078 265.075C238.753 263.327 240.287 259.546 241.5 256.764C242.784 253.768 243.818 250.808 242.498 247.634C240.965 243.96 238.682 240.5 236.756 237.041C236.399 236.434 235.472 236.969 235.829 237.576Z" fill="#E8E8E8"/>
<path d="M240.358 245.708C237.291 248.668 237.79 253.341 241.357 255.623C241.927 255.98 242.462 255.053 241.892 254.696C238.896 252.806 238.539 248.918 241.107 246.457C241.606 245.993 240.857 245.244 240.358 245.708Z" fill="#E8E8E8"/>
<path d="M218.175 238.324C218.603 241.891 219.066 245.422 219.459 248.989C219.851 252.555 218.924 255.266 217.14 258.333C216.463 259.51 215.749 260.652 215.179 261.864C214.786 262.649 214.144 263.719 214.608 264.611C215.393 266.216 217.889 265.431 219.138 265.074C223.988 263.683 228.304 260.545 230.052 255.658C230.908 253.233 231.086 250.629 230.587 248.133C229.909 244.816 228.233 241.784 228.411 238.289C228.447 237.611 227.377 237.611 227.341 238.289C227.056 243.46 230.551 247.954 229.588 253.197C228.625 258.476 224.595 262.15 219.637 263.79C219.102 263.969 218.567 264.111 218.032 264.254C216.998 264.504 216.641 264.825 216.177 263.719C215.749 262.72 215.999 262.542 216.498 261.65C216.819 261.044 217.14 260.473 217.497 259.903C218.567 258.084 219.708 256.229 220.279 254.16C220.957 251.806 220.564 249.417 220.279 247.027C219.922 244.138 219.566 241.249 219.245 238.36C219.173 237.647 218.103 237.647 218.175 238.324Z" fill="#E8E8E8"/>
<path d="M228.552 246.742C224.95 249.988 224.451 255.266 227.447 259.118C227.875 259.653 228.802 259.118 228.374 258.583C225.699 255.088 226.056 250.487 229.337 247.491C229.801 247.027 229.052 246.278 228.552 246.742Z" fill="#E8E8E8"/>
<path d="M283.943 228.837C283.372 234.901 282.98 240.964 282.73 247.027C282.623 250.059 282.552 253.091 282.516 256.158C282.48 258.905 282.231 261.901 282.587 264.647C282.837 266.609 284.228 267.322 286.047 267.572C288.793 267.928 291.611 268.035 294.393 268.178C300.599 268.535 306.841 268.642 313.047 268.535C319.966 268.428 326.885 268 333.769 267.322C334.447 267.251 334.447 266.181 333.769 266.252C319.502 267.643 305.164 267.893 290.862 266.894C289.079 266.787 287.117 266.823 285.369 266.395C283.051 265.788 283.586 262.97 283.55 261.116C283.515 257.62 283.55 254.089 283.657 250.594C283.836 243.354 284.299 236.113 284.977 228.909C285.048 228.124 283.978 228.16 283.943 228.837Z" fill="#E8E8E8"/>
<path d="M288.401 229.408C301.241 229.051 314.116 229.229 326.956 229.978C328.312 230.05 329.81 229.978 331.129 230.371C333.234 231.013 332.77 233.402 332.806 235.114C332.806 238.289 332.806 241.463 332.806 244.637C332.806 251.093 332.77 257.549 332.734 264.004C332.734 264.682 333.804 264.682 333.804 264.004C333.84 256.942 333.876 249.916 333.876 242.854C333.876 239.43 334.125 235.899 333.876 232.511C333.733 230.406 332.485 229.443 330.452 229.158C327.242 228.694 323.853 228.73 320.608 228.587C317.077 228.445 313.546 228.338 309.979 228.266C302.774 228.124 295.57 228.159 288.401 228.373C287.687 228.373 287.687 229.443 288.401 229.408Z" fill="#E8E8E8"/>
<path d="M286.083 223.166C288.081 224.593 290.149 225.913 292.289 227.125C292.896 227.482 293.431 226.555 292.824 226.198C290.684 224.985 288.616 223.666 286.618 222.239C286.083 221.847 285.548 222.774 286.083 223.166Z" fill="#E8E8E8"/>
<path d="M286.582 226.412C288.329 225.556 290.077 224.7 291.86 223.88C292.467 223.594 291.932 222.667 291.325 222.952C289.578 223.808 287.83 224.664 286.047 225.485C285.44 225.806 285.975 226.733 286.582 226.412Z" fill="#E8E8E8"/>
<path d="M296.354 220.456C296.247 221.668 296.104 222.881 295.997 224.094C295.926 224.807 295.676 225.77 296.318 226.305C296.889 226.804 297.888 226.555 298.565 226.483C299.849 226.376 301.098 226.269 302.382 226.162C303.059 226.091 303.059 225.021 302.382 225.092C301.49 225.164 300.598 225.235 299.707 225.342C299.136 225.378 297.816 225.734 297.317 225.556C296.568 225.271 297.353 221.312 297.46 220.491C297.495 219.778 296.425 219.778 296.354 220.456Z" fill="#E8E8E8"/>
<path d="M296.033 219.956C297.745 220.384 299.421 220.456 301.169 220.206C301.49 220.17 302.025 219.956 302.382 220.063C303.309 220.42 303.024 221.419 302.952 222.096C302.881 223.166 302.774 224.272 302.703 225.342C302.631 226.02 303.701 226.02 303.773 225.342C303.88 223.915 304.094 222.453 304.129 221.026C304.165 220.277 304.022 219.564 303.309 219.207C302.631 218.851 301.847 219.029 301.169 219.136C299.493 219.386 297.959 219.35 296.318 218.922C295.641 218.744 295.355 219.778 296.033 219.956Z" fill="#E8E8E8"/>
<path d="M296.356 221.561C298.246 222.203 300.208 222.346 302.205 221.989C302.883 221.882 302.598 220.848 301.92 220.955C300.137 221.276 298.389 221.133 296.641 220.527C295.999 220.313 295.714 221.347 296.356 221.561Z" fill="#E8E8E8"/>
<path d="M307.768 222.596C310.336 223.488 313.011 223.488 315.579 222.632C316.221 222.418 315.935 221.383 315.293 221.597C312.868 222.382 310.443 222.382 308.053 221.562C307.411 221.348 307.126 222.382 307.768 222.596Z" fill="#E8E8E8"/>
<path d="M299.601 237.005C305.949 239.43 312.762 236.577 319.253 238.075C319.931 238.218 320.216 237.183 319.538 237.041C313.047 235.543 306.235 238.396 299.886 235.971C299.244 235.721 298.959 236.755 299.601 237.005Z" fill="#E8E8E8"/>
<path d="M299.637 236.363C298.888 238.895 298.174 241.428 297.425 243.924C296.712 246.385 295.606 248.989 295.214 251.486C295 252.805 295.678 253.055 296.926 253.305C299.53 253.84 302.169 254.303 304.808 254.838C305.022 254.874 305.308 254.803 305.415 254.589C306.306 252.77 307.162 250.951 308.054 249.132C308.339 248.525 307.412 247.955 307.127 248.597C306.235 250.416 305.379 252.235 304.487 254.054C304.701 253.982 304.88 253.875 305.094 253.804C303.132 253.412 301.17 253.055 299.173 252.663C298.495 252.52 296.534 252.484 296.248 251.771C296.07 251.272 296.962 249.274 297.104 248.811C298.281 244.745 299.494 240.679 300.671 236.613C300.885 235.971 299.851 235.685 299.637 236.363Z" fill="#E8E8E8"/>
<path d="M304.558 247.313C305.985 248.704 307.875 249.453 309.872 249.382C310.55 249.346 310.55 248.276 309.872 248.312C308.125 248.383 306.555 247.777 305.307 246.564C304.843 246.1 304.094 246.849 304.558 247.313Z" fill="#E8E8E8"/>
<path d="M319.431 238.717C319.859 243.496 320.18 248.311 320.394 253.126C320.429 253.804 321.499 253.804 321.464 253.126C321.25 248.311 320.929 243.496 320.501 238.717C320.429 238.039 319.359 238.039 319.431 238.717Z" fill="#E8E8E8"/>
<path d="M308.481 248.882C308.588 250.594 308.053 254.09 310.3 254.553C311.834 254.874 313.76 254.446 315.293 254.268C316.934 254.054 318.539 253.733 320.144 253.305C320.822 253.127 320.536 252.092 319.859 252.271C317.469 252.877 315.044 253.305 312.583 253.483C311.299 253.59 310.229 253.697 309.801 252.235C309.515 251.272 309.622 249.881 309.551 248.918C309.515 248.205 308.445 248.169 308.481 248.882Z" fill="#E8E8E8"/>
<path d="M296.142 250.309C299.601 250.237 302.883 251.093 305.879 252.805C306.485 253.162 307.02 252.235 306.414 251.878C303.239 250.059 299.78 249.167 296.142 249.239C295.464 249.274 295.464 250.344 296.142 250.309Z" fill="#E8E8E8"/>
<path d="M310.658 250.808C311.228 251.2 311.835 251.271 312.441 251.093C312.655 251.057 312.869 251.022 313.083 251.022C313.832 250.915 314.617 250.843 315.366 250.736C316.792 250.558 318.219 250.38 319.61 250.201C320.288 250.13 320.288 249.06 319.61 249.131C316.828 249.488 313.725 249.524 311.014 250.201C310.194 250.415 309.552 251.164 310.444 251.806C310.622 251.913 310.836 251.878 310.979 251.806C311.014 251.771 311.086 251.771 311.121 251.735C311.835 251.414 311.264 250.487 310.658 250.808Z" fill="#E8E8E8"/>
<path d="M301.241 237.326C301.134 238.075 301.027 238.859 300.885 239.608C300.778 240.286 301.812 240.571 301.919 239.894C302.026 239.145 302.133 238.36 302.276 237.611C302.383 236.933 301.348 236.612 301.241 237.326Z" fill="#E8E8E8"/>
<path d="M306.377 237.29C306.27 238.039 306.163 238.824 306.02 239.573C305.913 240.251 306.947 240.536 307.054 239.858C307.161 239.109 307.268 238.325 307.411 237.576C307.518 236.898 306.484 236.613 306.377 237.29Z" fill="#E8E8E8"/>
<path d="M310.372 237.647C310.193 238.645 310.229 239.608 310.586 240.571C310.835 241.213 311.87 240.928 311.62 240.286C311.335 239.501 311.263 238.752 311.406 237.932C311.549 237.254 310.514 236.969 310.372 237.647Z" fill="#E8E8E8"/>
<path d="M316.222 237.112C316.222 237.861 316.222 238.645 316.222 239.394C316.222 240.072 317.292 240.072 317.292 239.394C317.292 238.645 317.292 237.861 317.292 237.112C317.292 236.434 316.222 236.434 316.222 237.112Z" fill="#E8E8E8"/>
<path d="M272.244 178.761C274.027 181.008 276.987 184.111 281.481 185.787C288.615 188.427 291.789 184.575 301.954 185.502C311.62 186.394 314.473 190.388 320.037 188.355C324.281 186.786 326.814 182.898 328.312 179.76C324.816 176.799 318.254 172.056 308.838 170.13C289.827 166.171 274.919 176.764 272.244 178.761Z" fill="black"/>
<path d="M301.348 103.183C300.206 105.074 299.386 106.714 298.815 107.927C297.638 110.424 296.247 113.384 295.427 117.379C295.106 118.877 294.963 120.125 294.892 120.91C296.782 120.517 298.958 120.232 301.383 120.161C308.517 119.982 314.259 122.015 317.861 123.656C318.468 122.871 319.288 121.73 320.001 120.196C320.786 118.591 321.25 116.986 321.82 113.348C322.177 111.173 322.534 108.355 322.783 104.967C323.746 105.288 325.316 105.68 327.242 105.823C329.31 105.965 330.63 105.751 330.951 106.393C331.308 107.071 329.988 107.749 329.524 109.496C328.954 111.743 330.844 112.813 330.202 114.597C329.703 115.952 328.597 115.524 327.598 117.236C326.814 118.627 327.313 119.233 326.421 121.373C325.993 122.336 325.637 123.192 324.923 123.834C322.997 125.511 319.787 124.512 319.181 124.334C319.538 125.154 319.93 126.402 319.894 127.865C319.894 128.4 319.823 128.863 319.11 131.61C318.682 133.25 318.468 134.106 318.111 135.319C317.79 136.496 317.326 138.03 316.72 139.813C313.367 140.277 310.55 140.241 308.517 140.134C306.02 139.991 303.844 139.849 301.134 138.921C298.423 137.994 296.426 136.674 295.142 135.711C294.607 134.142 294.036 132.038 293.893 129.505C293.644 125.832 294.321 122.836 294.928 120.945C292.859 121.873 291.932 121.659 291.432 121.302C290.683 120.696 291.29 119.768 290.362 117.878C289.827 116.772 289.292 116.451 289.043 115.274C288.9 114.561 288.936 113.955 288.971 113.598C289.185 111.101 290.683 110.745 290.755 108.783C290.79 107.428 290.113 107.035 290.505 105.93C290.719 105.359 291.004 105.145 291.86 104.289C293.679 102.506 294.607 101.578 295.106 100.33C295.32 99.8307 295.534 99.0817 295.498 98.0474C297.424 99.7594 299.386 101.471 301.348 103.183Z" fill="white"/>
<path d="M293.644 140.277C293.144 140.955 292.467 141.882 291.682 142.988C287.545 148.873 284.192 154.401 281.481 159.323C278.521 164.673 275.311 171.164 272.244 178.726C273.314 177.834 274.99 176.728 277.023 176.835C277.986 176.871 279.092 177.192 283.122 180.366C287.331 183.683 287.83 184.682 289.97 185.253C290.469 185.395 292.681 185.966 295.213 185.181C297.959 184.361 298.102 182.863 301.669 180.545C304.415 178.761 306.198 177.62 308.338 177.905C310.229 178.191 310.407 179.296 314.687 181.757C316.791 182.97 317.826 183.576 319.003 183.79C320.144 184.004 323.354 184.361 327.884 180.509C327.384 178.797 326.564 176.193 325.494 173.09C323.497 167.17 322.106 163.96 320.822 160.429C319.502 156.791 317.754 151.512 316.185 144.735C314.972 145.235 313.082 145.841 310.764 145.841C308.338 145.877 306.555 145.27 304.058 144.343C301.169 143.344 297.638 141.989 293.644 140.277Z" fill="white"/>
<path d="M295.105 135.676C294.606 137.209 294.107 138.743 293.607 140.277C294.535 141.061 295.64 141.882 296.924 142.631C301.846 145.413 306.697 145.484 309.443 145.484C311.048 145.484 313.367 145.377 316.113 144.771C316.291 143.094 316.47 141.454 316.612 139.777C314.972 140.098 312.689 140.419 309.978 140.384C305.77 140.277 302.702 139.314 301.953 139.1C299.136 138.172 296.853 136.888 295.105 135.676Z" fill="#0075E3"/>
<path d="M255.159 83.068C253.09 120.696 253.875 158.467 257.441 195.989C257.798 199.805 257.691 204.263 259.118 207.901C260.33 211.004 263.041 212.36 266.108 213.216C274.526 215.498 283.3 216.39 291.967 216.818C310.264 217.674 328.739 216.889 347 215.463C367.687 213.858 388.267 211.111 408.632 207.188C409.31 207.045 409.025 206.011 408.347 206.154C373.073 212.93 337.085 216.354 301.169 215.998C292.145 215.891 283.121 215.463 274.24 213.893C272.243 213.537 270.246 213.144 268.248 212.681C266.287 212.217 264.182 211.789 262.506 210.648C258.904 208.222 259.189 202.694 258.832 198.878C257.049 180.83 255.872 162.712 255.408 144.593C254.873 124.12 255.159 103.612 256.264 83.1393C256.264 82.3546 255.194 82.3903 255.159 83.068Z" fill="black"/>
<path d="M259.796 79.5722C291.575 76.6475 323.461 75.2922 355.347 75.5062C363.158 75.5775 370.933 75.7202 378.744 75.9698C382.739 76.0768 386.698 76.1838 390.693 76.4335C392.69 76.5405 394.83 76.7902 396.399 78.1455C397.826 79.3582 398.646 81.1058 399.288 82.8178C402.035 89.8442 402.534 97.5482 402.998 105.003C403.497 112.885 403.961 120.732 404.46 128.614C405.566 146.519 406.671 164.423 407.741 182.328C407.777 183.006 408.847 183.006 408.811 182.328C407.813 165.85 406.778 149.336 405.78 132.858C405.28 124.726 404.781 116.594 404.282 108.462C403.818 100.937 403.533 93.2682 401.428 85.9565C400.608 83.1388 399.645 79.8932 397.505 77.7175C395.329 75.5418 392.226 75.4348 389.337 75.2922C381.063 74.9355 372.824 74.6858 364.549 74.5788C348.142 74.2935 331.7 74.4718 315.293 75.0068C296.747 75.6488 278.236 76.8258 259.76 78.5378C259.118 78.5735 259.118 79.6435 259.796 79.5722Z" fill="black"/>
<path d="M260.688 63.6293C266.394 66.4826 271.495 70.2276 275.882 74.8643C276.345 75.3636 277.13 74.6146 276.631 74.1153C272.172 69.4429 267.001 65.5909 261.223 62.7376C260.616 62.3809 260.081 63.3083 260.688 63.6293Z" fill="black"/>
<path d="M262.613 76.5048C268.142 71.7254 273.242 66.5181 277.914 60.8828C278.342 60.3478 277.593 59.5988 277.165 60.1338C272.493 65.7691 267.393 70.9764 261.864 75.7558C261.365 76.1838 262.114 76.9684 262.613 76.5048Z" fill="black"/>
<path d="M280.946 61.6676C280.625 64.5922 280.376 67.6596 280.732 70.5842C280.946 72.3319 281.66 73.5089 283.479 73.7586C286.189 74.1153 289.221 73.6516 291.967 73.5803C292.966 73.5446 296.461 74.1152 296.354 72.3676C296.319 71.6899 295.249 71.6899 295.284 72.3676C295.284 72.4389 284.977 72.7599 284.014 72.7242C281.232 72.6172 281.66 69.2646 281.66 67.2673C281.66 65.3769 281.802 63.5223 281.981 61.6319C282.088 60.9899 281.018 60.9899 280.946 61.6676Z" fill="black"/>
<path d="M281.731 61.8814C286.902 61.4178 292.038 61.4891 297.174 62.1668C296.996 61.9884 296.818 61.8101 296.639 61.6318C296.497 65.0914 296.318 68.5868 296.176 72.0464C296.14 72.7241 297.21 72.7241 297.246 72.0464C297.388 68.5868 297.567 65.0914 297.709 61.6318C297.709 61.3108 297.46 61.1324 297.174 61.0968C292.038 60.4191 286.867 60.3478 281.731 60.8114C281.053 60.8828 281.017 61.9528 281.731 61.8814Z" fill="black"/>
<path d="M281.373 65.9479C286.652 66.0549 291.895 66.1619 297.174 66.2333C297.851 66.2333 297.851 65.1633 297.174 65.1633C291.895 65.0563 286.652 64.9493 281.373 64.8779C280.696 64.8779 280.696 65.9479 281.373 65.9479Z" fill="black"/>
<path d="M301.847 67.2316C309.123 67.4813 316.399 67.4456 323.711 67.0889C324.388 67.0533 324.388 65.9833 323.711 66.0189C316.435 66.3756 309.159 66.4113 301.847 66.1616C301.169 66.1259 301.169 67.1959 301.847 67.2316Z" fill="black"/>
<path d="M260.545 85.5642C271.387 84.7082 282.266 84.4229 293.144 84.6726C293.822 84.6726 293.822 83.6026 293.144 83.6026C282.266 83.3529 271.387 83.6382 260.545 84.4942C259.831 84.5656 259.831 85.6356 260.545 85.5642Z" fill="#E8E8E8"/>
<path d="M352.6 81.4982C367.615 81.6766 382.631 82.1402 397.611 82.9606C398.289 82.9962 398.289 81.9262 397.611 81.8906C382.631 81.0702 367.615 80.5709 352.6 80.4282C351.922 80.4282 351.922 81.4982 352.6 81.4982Z" fill="#E8E8E8"/>
<path d="M376.461 87.0977C381.704 86.7767 386.912 86.955 392.119 87.704C392.797 87.811 393.082 86.7767 392.404 86.6697C387.126 85.9207 381.811 85.671 376.461 85.992C375.784 86.0634 375.784 87.1334 376.461 87.0977Z" fill="#E8E8E8"/>
<path d="M301.383 102.898C297.46 108.177 295.07 114.347 294.357 120.874C294.286 121.552 295.356 121.552 295.427 120.874C296.105 114.526 298.494 108.534 302.311 103.433C302.703 102.898 301.776 102.363 301.383 102.898Z" fill="black"/>
<path d="M301.632 102.719C299.385 101.364 297.495 99.7232 295.854 97.6902C295.569 97.3336 294.927 97.6189 294.927 98.0826C295.105 102.184 290.183 103.254 289.47 106.857C289.184 108.248 290.718 109.104 290.183 110.423C289.755 111.458 288.899 112.278 288.471 113.348C288.186 114.097 288.114 114.846 288.542 115.559C289.077 116.415 289.719 116.915 289.791 118.056C289.826 118.734 289.648 119.411 289.826 120.089C290.361 122.086 292.858 122.835 294.499 121.694C295.069 121.302 294.534 120.374 293.964 120.767C293.143 121.337 292.038 121.337 291.324 120.588C290.611 119.875 290.861 118.948 290.861 118.056C290.896 116.986 290.647 116.451 290.04 115.595C289.612 115.024 289.22 114.739 289.398 113.954C289.505 113.455 289.933 112.92 290.183 112.528C290.611 111.886 291.075 111.244 291.324 110.495C291.503 109.888 291.467 109.46 291.324 108.854C291.003 107.499 290.611 106.571 291.574 105.43C291.966 104.966 292.394 104.538 292.822 104.146C294.499 102.47 296.139 100.686 296.032 98.1539C295.711 98.2966 295.426 98.4036 295.105 98.5462C296.781 100.651 298.779 102.363 301.097 103.754C301.668 104.003 302.203 103.076 301.632 102.719Z" fill="black"/>
<path d="M295.142 121.766C302.56 119.911 310.835 119.875 317.326 124.405C317.897 124.797 318.432 123.87 317.861 123.478C311.12 118.805 302.525 118.841 294.856 120.731C294.179 120.874 294.464 121.908 295.142 121.766Z" fill="black"/>
<path d="M317.897 123.977C320.215 122.265 320.893 119.412 321.606 116.737C322.533 113.17 323.033 109.496 323.247 105.787C323.282 105.109 322.212 105.109 322.177 105.787C321.998 108.926 321.606 112.064 320.893 115.167C320.286 117.807 319.68 121.338 317.362 123.05C316.827 123.442 317.362 124.369 317.897 123.977Z" fill="black"/>
<path d="M322.533 105.43C324.566 106.607 326.742 106.179 328.953 106.429C329.417 106.465 329.881 106.572 330.344 106.714C330.844 107.071 330.808 107.356 330.309 107.57C330.202 107.856 329.667 108.284 329.524 108.533C328.989 109.318 328.597 110.317 328.704 111.315C328.846 112.671 330.309 113.955 329.239 115.274C328.632 116.023 327.705 116.344 327.134 117.165C325.922 118.948 326.457 123.941 323.389 123.692C322.712 123.62 322.712 124.69 323.389 124.762C326.1 124.976 326.849 122.087 327.277 119.982C327.491 118.984 327.705 118.021 328.454 117.272C328.918 116.808 329.524 116.487 329.988 116.023C330.701 115.31 330.915 114.49 330.63 113.527C330.451 112.885 329.988 112.35 329.809 111.708C329.453 110.281 330.273 109.14 331.236 108.177C331.771 107.642 332.342 107.071 331.735 106.322C331.093 105.537 329.595 105.43 328.668 105.359C326.742 105.216 324.78 105.537 323.068 104.539C322.462 104.146 321.927 105.074 322.533 105.43Z" fill="black"/>
<path d="M317.719 124.155C319.823 124.655 321.963 124.655 324.067 124.155C324.745 124.013 324.46 122.978 323.782 123.121C321.856 123.549 319.93 123.549 318.004 123.121C317.326 122.978 317.041 124.013 317.719 124.155Z" fill="black"/>
<path d="M294.071 121.409C292.894 126.189 293.073 131.111 294.642 135.783C294.856 136.425 295.89 136.14 295.676 135.498C294.178 131.004 293.964 126.296 295.106 121.695C295.284 121.053 294.25 120.767 294.071 121.409Z" fill="black"/>
<path d="M294.678 135.961C296.319 138.85 301.062 139.599 303.987 140.134C308.017 140.883 312.119 140.883 316.149 140.241C316.827 140.134 316.542 139.1 315.864 139.207C312.226 139.777 308.552 139.813 304.914 139.207C303.309 138.957 301.74 138.565 300.206 138.101C298.53 137.566 296.533 137.067 295.605 135.426C295.249 134.82 294.321 135.355 294.678 135.961Z" fill="black"/>
<path d="M318.718 124.584C320.145 126.902 318.968 129.934 318.361 132.324C317.719 134.785 316.97 137.246 316.186 139.671C315.972 140.313 317.006 140.598 317.22 139.956C318.254 136.889 319.146 133.75 319.895 130.576C320.43 128.365 320.929 126.082 319.645 124.049C319.289 123.443 318.361 123.978 318.718 124.584Z" fill="black"/>
<path d="M293.428 140.384C295.069 143.487 299.563 144.058 302.595 144.842C306.875 145.912 311.262 146.519 315.649 145.698C316.326 145.556 316.041 144.521 315.363 144.664C311.404 145.413 307.445 144.878 303.558 143.951C300.704 143.273 295.854 142.738 294.356 139.849C294.035 139.207 293.107 139.742 293.428 140.384Z" fill="black"/>
<path d="M293.181 140.028C284.478 151.976 277.273 164.923 271.709 178.619C271.46 179.19 272.387 179.511 272.672 179.047C274.42 176.408 278.201 177.228 280.412 178.762C282.873 180.474 284.585 183.113 287.153 184.682C289.364 186.038 292.039 186.466 294.536 185.931C297.104 185.396 298.994 183.826 300.849 182.043C302.953 180.01 305.272 177.692 308.482 178.548C311.157 179.261 313.154 181.579 315.437 183.006C319.61 185.574 325.067 184.754 328.17 180.937C328.598 180.402 327.849 179.653 327.421 180.188C325.851 182.114 323.64 183.291 321.143 183.47C318.611 183.648 316.507 182.578 314.509 181.116C311.62 178.976 308.553 176.265 304.737 177.799C300.671 179.439 298.745 184.005 294.251 184.932C291.29 185.538 288.473 184.575 286.226 182.685C284.514 181.258 283.123 179.511 281.375 178.191C278.629 176.087 273.921 175.159 271.709 178.512C272.03 178.655 272.351 178.797 272.672 178.94C278.201 165.351 285.37 152.475 294.037 140.598C294.5 139.992 293.573 139.457 293.181 140.028Z" fill="black"/>
<path d="M315.649 144.913C318.752 156.933 322.818 168.631 327.811 180.009C328.097 180.651 329.024 180.08 328.739 179.474C323.781 168.203 319.751 156.576 316.683 144.663C316.505 143.986 315.471 144.235 315.649 144.913Z" fill="black"/>
<path d="M261.08 115.488C262.97 113.634 265.324 115.988 267 116.951C268.249 117.664 269.711 118.128 271.173 118.128C272.529 118.092 273.741 117.593 274.883 116.915C276.488 115.952 278.913 114.276 280.482 116.237C280.91 116.772 281.659 116.023 281.231 115.488C278.378 111.957 274.241 117.022 271.138 117.093C268.284 117.165 266.715 114.989 264.254 114.097C262.863 113.598 261.401 113.741 260.331 114.775C259.831 115.203 260.58 115.988 261.08 115.488Z" fill="#E8E8E8"/>
<path d="M345.645 119.269C349.141 116.095 353.991 119.269 357.808 119.982C361.374 120.66 365.084 120.232 368.436 118.805C370.291 117.985 371.967 116.772 373.893 116.095C376.212 115.31 378.102 116.059 380.313 116.808C383.809 117.985 387.411 117.735 390.692 116.095C391.299 115.774 390.764 114.882 390.157 115.167C387.946 116.237 385.556 116.701 383.095 116.38C380.955 116.095 379.029 114.953 376.889 114.668C373.18 114.204 370.22 117.093 366.938 118.27C362.551 119.84 358.378 119.198 354.063 117.771C350.995 116.772 347.536 116.13 344.932 118.484C344.361 118.984 345.11 119.733 345.645 119.269Z" fill="#E8E8E8"/>
<path d="M348.641 130.219C352.529 129.256 356.488 128.864 360.483 129.078C362.551 129.185 364.62 129.47 366.653 129.898C368.401 130.255 370.184 130.825 372.003 130.718C375.463 130.504 377.959 127.758 381.526 127.651C384.879 127.58 388.124 128.471 391.441 127.865C392.119 127.758 391.834 126.724 391.156 126.831C387.625 127.473 384.165 126.296 380.634 126.617C376.925 126.938 374.25 130.005 370.434 129.577C366.724 129.149 363.229 128.079 359.448 127.972C355.703 127.865 351.958 128.293 348.32 129.185C347.714 129.363 347.999 130.397 348.641 130.219Z" fill="#E8E8E8"/>
<path d="M100.58 148.123C100.865 149.8 101.721 153.224 104.575 155.934C109.889 160.963 119.269 160.821 121.98 157.29C122.979 155.97 122.551 154.864 124.869 149.407C125.475 147.945 125.654 147.695 125.547 147.339C125.119 145.769 120.018 145.02 100.58 148.123Z" fill="black"/>
<path d="M176.55 154.187C178.262 153.795 180.616 153.224 183.434 152.475C189.212 150.942 190.317 150.407 191.352 149.729C192.671 148.837 194.776 147.018 196.274 143.273C194.74 142.275 189.461 139.029 183.077 140.42C180.973 140.884 176.265 141.918 174.802 145.913C173.411 149.872 176.193 153.759 176.55 154.187Z" fill="black"/>
<path d="M115.952 199.662C119.982 201.231 125.867 203.086 133.179 203.799C136.853 204.156 142.916 204.406 155.364 202.123C163.246 200.661 173.875 198.164 186.144 193.634C184.575 190.317 181.65 185.716 176.55 183.184C171.021 180.438 167.348 182.292 153.83 184.218C134.071 187 127.793 185.003 121.445 191.066C118.377 193.884 116.808 197.237 115.952 199.662Z" fill="black"/>
<path d="M133.036 109.105C130.076 108.712 127.651 108.641 125.867 108.677C121.694 108.712 120.589 109.212 119.804 109.782C118.27 110.959 117.878 112.778 117.593 113.848C116.451 118.235 114.561 119.377 111.173 125.119C108.997 128.828 105.644 135.427 100.544 148.124C103.112 147.09 104.753 147.518 105.466 147.803C107.463 148.588 108.569 150.585 110.21 153.545C111.494 155.864 111.494 156.577 112.671 157.718C113.277 158.289 114.882 159.823 116.951 159.68C119.055 159.537 120.981 157.754 121.801 155.222C121.801 157.754 121.766 160.358 121.659 162.997C121.124 175.837 119.269 187.536 116.808 197.95C117.7 196.916 119.305 195.347 121.659 194.883C124.548 194.312 127.044 195.703 131.431 198.236C135.497 200.554 135.283 201.125 137.816 202.302C142.452 204.442 146.839 204.263 148.016 204.192C151.155 204.014 154.793 202.373 161.891 199.127C169.238 195.739 169.202 195.275 171.699 194.883C174.802 194.384 176.764 194.847 181.935 194.098C184.111 193.777 185.859 193.421 186.964 193.135C186.18 189.176 185.395 185.217 184.61 181.294C182.649 171.486 180.651 161.642 178.618 151.833C178.618 150.977 178.618 147.232 180.901 145.913C182.292 145.128 183.933 145.485 186.572 146.127C190.424 147.018 191.351 148.195 192.849 147.696C193.884 147.375 195.203 146.269 196.095 142.453C194.847 141.597 193.17 140.313 191.351 138.565C187.785 135.07 185.823 131.682 184.147 128.721C181.9 124.762 180.651 122.515 179.724 119.02C178.654 114.811 179.082 112.529 177.085 110.959C175.622 109.782 173.982 109.889 171.164 109.889C168.239 109.889 164.031 109.711 158.788 109.069C158.966 110.068 159.109 111.851 158.36 113.813C157.504 116.131 155.934 117.415 154.401 118.699C152.689 120.09 151.262 121.303 149.229 121.766C145.306 122.622 141.846 120.233 140.063 119.02C135.533 115.81 133.714 111.209 133.036 109.105Z" fill="white"/>
<path d="M140.634 149.158C137.78 149.871 136.71 152.76 136.568 153.188C135.533 155.97 136.746 158.431 137.031 158.966C137.459 159.822 138.244 161.427 139.992 162.069C142.346 162.961 144.949 161.534 146.34 159.965C148.017 158.11 148.908 154.971 147.375 152.261C146.091 150.049 143.309 148.48 140.634 149.158Z" fill="black"/>
<path d="M153.794 145.484C151.797 146.946 152.154 149.907 152.154 150.085C152.403 152.011 153.83 154.436 156.291 154.722C158.146 154.936 159.893 153.83 160.785 152.439C161.748 150.977 161.855 149.086 161.106 147.588C159.822 145.02 156.006 143.879 153.794 145.484Z" fill="black"/>
<path d="M79.8576 92.1626C78.7162 124.905 78.2882 157.718 78.6449 190.46C78.6806 195.632 78.7519 201.659 82.2116 205.832C84.1019 208.115 86.8126 209.185 89.7016 209.649C93.3396 210.255 97.0846 210.433 100.758 210.754C116.915 212.181 133.108 213.251 149.336 213.715C158.503 213.964 167.669 214.036 176.835 213.857C181.294 213.786 185.752 213.608 190.21 213.429C192.564 213.322 194.918 213.18 197.237 213.037C199.555 212.894 202.266 212.324 204.441 213.322C205.048 213.608 205.618 212.68 204.976 212.395C201.98 211.04 198.271 211.896 195.132 212.074C191.138 212.288 187.143 212.466 183.148 212.609C175.159 212.859 167.17 212.93 159.18 212.823C143.309 212.609 127.437 211.789 111.637 210.54C107.642 210.219 103.683 209.898 99.6882 209.542C96.0146 209.221 92.1269 209.149 88.5246 208.293C81.4982 206.581 79.9646 199.769 79.7506 193.42C79.1442 177.656 79.5366 161.784 79.7149 146.019C79.8932 128.043 80.3212 110.067 80.9276 92.0912C80.9632 91.4849 79.8932 91.4849 79.8576 92.1626Z" fill="black"/>
<path d="M80.1063 90.9139C87.3823 87.4542 95.1576 85.3142 103.183 84.5652C111.35 83.7805 119.625 83.8875 127.828 83.8162C144.199 83.6735 160.606 83.8875 176.977 84.6365C185.002 84.9932 193.063 85.6352 200.909 87.5969C202.55 88.0249 205.225 88.3459 206.224 89.8795C207.187 91.3775 207.187 93.9099 207.436 95.6219C208.043 99.8305 208.506 104.039 208.863 108.248C210.183 124.334 209.719 140.491 208.685 156.612C207.508 175.052 205.938 193.456 204.761 211.86C204.726 212.537 205.796 212.537 205.831 211.86C206.937 194.811 208.328 177.798 209.469 160.785C210.611 143.879 211.288 126.902 210.04 109.996C209.719 105.823 209.327 101.685 208.756 97.5479C208.506 95.6575 208.257 93.7672 207.9 91.8769C207.686 90.5572 207.365 89.3089 206.295 88.4172C205.261 87.5255 203.727 87.2402 202.443 86.8835C200.267 86.3129 198.092 85.8135 195.88 85.4212C192.064 84.7435 188.212 84.3155 184.36 83.9945C167.454 82.6749 150.37 82.6749 133.428 82.7105C123.834 82.7462 114.132 82.6035 104.538 83.3525C95.8353 84.0302 87.4179 86.2059 79.5356 89.9509C78.9293 90.2719 79.4999 91.1992 80.1063 90.9139Z" fill="black"/>
<path d="M83.3878 75.8625C87.7035 77.7885 91.8408 80.0712 95.7641 82.7105C96.3348 83.1029 96.8698 82.1755 96.2991 81.7832C92.3758 79.1439 88.2385 76.8612 83.9228 74.9352C83.3165 74.6855 82.7815 75.5772 83.3878 75.8625Z" fill="black"/>
<path d="M86.313 84.1019C89.3804 80.0716 92.2337 75.6132 95.6577 71.9039C96.1214 71.4046 95.3724 70.6556 94.9087 71.1549C91.4134 74.9712 88.5244 79.4652 85.4214 83.5669C84.9577 84.1019 85.9207 84.6369 86.313 84.1019Z" fill="black"/>
<path d="M100.686 70.192C100.437 72.76 100.33 75.3637 100.437 77.9317C100.472 79.18 100.258 80.7493 101.614 81.2487C102.398 81.534 103.754 81.32 104.61 81.32C105.894 81.32 107.213 81.3557 108.497 81.3557C111.351 81.3557 114.168 81.32 117.022 81.2487C117.699 81.2487 117.699 80.1787 117.022 80.1787C112.777 80.2857 108.497 80.2857 104.253 80.25C103.397 80.25 102.006 80.5353 101.578 79.608C101.257 78.8947 101.471 77.361 101.471 76.5763C101.435 74.4363 101.542 72.2963 101.756 70.1563C101.828 69.5143 100.758 69.5143 100.686 70.192Z" fill="black"/>
<path d="M101.365 70.2991C105.823 69.6571 110.317 69.4787 114.811 69.7641C115.774 69.8354 117.094 69.6927 117.986 70.0494C118.414 69.978 118.592 70.1564 118.449 70.5844C118.521 70.9767 118.485 71.3334 118.342 71.7257C118.271 72.1537 118.2 72.5817 118.093 73.0454C117.7 75.221 117.308 77.3967 116.88 79.5724C116.773 80.2501 117.772 80.5354 117.914 79.8577C118.449 77.04 118.949 74.1867 119.484 71.3691C119.769 69.7997 119.484 69.1934 117.879 68.9794C112.315 68.266 106.608 68.5157 101.08 69.3004C100.402 69.3717 100.723 70.4061 101.365 70.2991Z" fill="black"/>
<path d="M101.222 73.2951C107.071 73.3308 112.921 73.5091 118.734 73.8301C119.412 73.8658 119.412 72.7958 118.734 72.7601C112.885 72.4391 107.071 72.2608 101.222 72.2251C100.544 72.2251 100.544 73.2951 101.222 73.2951Z" fill="black"/>
<path d="M122.478 75.9345C125.688 76.6122 128.898 77.1829 132.108 77.6465C133.713 77.8605 135.318 78.0389 136.887 78.1815C138.706 78.3599 140.882 78.1815 142.594 78.8949C143.236 79.1802 143.771 78.2529 143.129 77.9675C141.988 77.4682 140.846 77.4325 139.634 77.3255C137.815 77.1829 135.96 77.0402 134.141 76.8262C130.289 76.3625 126.508 75.7205 122.728 74.9002C122.086 74.7575 121.8 75.7919 122.478 75.9345Z" fill="black"/>
<path d="M82.4971 180.759C82.6041 185.288 82.8537 189.818 83.2817 194.312C83.4957 196.523 83.7097 198.699 84.0307 200.875C84.2091 202.087 84.4587 203.193 85.5287 203.942C86.8127 204.869 88.6674 205.048 90.1654 205.369C92.3054 205.832 94.4454 206.225 96.6211 206.546C101.008 207.188 105.431 207.544 109.853 207.616C110.531 207.616 110.531 206.546 109.853 206.546C105.966 206.474 102.078 206.189 98.2261 205.69C94.5881 205.226 90.6647 204.762 87.2051 203.585C84.8511 202.801 85.0294 200.233 84.7797 198.128C84.5657 196.274 84.3874 194.419 84.2091 192.6C83.8524 188.677 83.6741 184.718 83.5671 180.759C83.5671 180.081 82.4971 180.081 82.4971 180.759Z" fill="#E8E8E8"/>
<path d="M178.333 87.8468C186.037 88.4175 193.848 89.0238 201.302 91.2352C202.586 91.6275 203.514 91.9485 203.87 93.4108C204.12 94.3738 203.977 95.5508 204.049 96.5495C204.156 98.5112 204.191 100.508 204.263 102.47C204.334 106.536 204.334 110.602 204.191 114.668C204.156 115.346 205.226 115.346 205.261 114.668C205.404 110.031 205.404 105.359 205.261 100.722C205.19 98.4042 205.119 96.0858 204.976 93.7675C204.905 92.4835 204.869 91.5205 203.621 90.8785C201.909 90.0225 199.662 89.6302 197.807 89.2378C195.667 88.7385 193.491 88.3818 191.351 88.0608C187.036 87.4545 182.72 87.1335 178.404 86.8125C177.62 86.7412 177.655 87.8112 178.333 87.8468Z" fill="#E8E8E8"/>
<path d="M101.043 148.409C104.325 141.704 107.606 135.034 110.887 128.329C112.564 124.94 114.204 121.516 115.881 118.128C116.665 116.523 117.45 114.954 118.235 113.349C119.091 111.565 119.697 109.996 121.837 109.604C123.656 109.247 125.582 109.176 127.437 109.14C129.184 109.104 132.109 108.676 133.393 110.103C134.32 111.137 134.82 112.671 135.462 113.848C136.139 115.096 136.888 116.345 137.744 117.45C140.847 121.481 145.983 123.407 150.941 122.016C156.505 120.446 160 114.775 159.43 109.104C159.358 108.427 158.288 108.427 158.36 109.104C159.002 115.489 154.258 121.338 147.731 121.409C144.664 121.445 141.739 120.232 139.635 118.021C137.495 115.81 136.389 113.028 134.891 110.424C133.5 107.999 131.324 108.034 128.756 108.034C127.116 108.034 125.475 108.141 123.834 108.284C122.622 108.391 121.195 108.462 120.054 108.997C119.162 109.461 118.627 110.21 118.163 111.066C117.307 112.671 116.558 114.347 115.738 115.988C114.169 119.162 112.635 122.372 111.066 125.547C107.428 132.965 103.79 140.42 100.152 147.838C99.8306 148.48 100.758 149.015 101.043 148.409Z" fill="black"/>
<path d="M159.358 109.354C162.069 109.604 164.744 109.854 167.455 110.103C170.13 110.353 173.09 110.282 175.694 110.888C177.905 111.387 178.119 115.56 178.69 117.415C179.296 119.377 180.009 121.267 180.794 123.157C184.182 131.039 189.39 138.102 195.881 143.701C196.416 144.165 197.165 143.38 196.63 142.952C189.354 136.711 183.754 128.614 180.509 119.591C179.724 117.451 179.153 115.275 178.618 113.028C178.226 111.459 177.655 110.282 175.979 109.889C173.589 109.319 170.95 109.39 168.525 109.14C165.493 108.855 162.426 108.57 159.394 108.284C158.681 108.213 158.681 109.283 159.358 109.354Z" fill="black"/>
<path d="M101.222 148.766C107.785 144.878 109.461 155.293 112.707 158.432C116.095 161.677 121.552 159.965 122.337 155.329C122.444 154.651 121.409 154.366 121.302 155.043C120.696 158.717 116.523 160.393 113.634 157.861C111.779 156.22 111.03 153.759 109.889 151.619C108.034 148.124 104.539 145.556 100.651 147.839C100.116 148.195 100.651 149.123 101.222 148.766Z" fill="black"/>
<path d="M195.596 142.453C195.667 145.056 194.169 147.696 191.209 147.089C188.819 146.59 186.715 145.449 184.254 145.128C182.827 144.949 181.151 144.735 180.116 145.948C178.868 147.41 178.44 149.871 178.119 151.69C178.012 152.368 179.046 152.653 179.153 151.976C179.367 150.763 179.617 149.586 180.045 148.445C180.473 147.232 180.758 146.305 182.328 146.055C183.005 145.948 184.04 146.162 184.682 146.233C187.071 146.59 189.247 147.945 191.601 148.231C194.954 148.587 196.773 145.449 196.666 142.453C196.666 141.775 195.596 141.775 195.596 142.453Z" fill="black"/>
<path d="M118.876 134.713C119.803 135.64 120.552 136.675 121.123 137.852C121.408 138.458 122.336 137.923 122.05 137.317C121.444 136.068 120.624 134.927 119.625 133.928C119.161 133.5 118.412 134.249 118.876 134.713Z" fill="black"/>
<path d="M121.445 135.533C122.372 156.327 120.696 177.156 116.487 197.522C116.344 198.199 117.379 198.485 117.521 197.807C121.766 177.334 123.442 156.398 122.515 135.533C122.479 134.855 121.409 134.855 121.445 135.533Z" fill="black"/>
<path d="M117.308 198.2C120.482 192.779 127.473 196.096 131.254 198.735C135.569 201.731 139.885 204.584 145.271 204.834C154.687 205.298 162.426 198.557 170.986 195.703C173.59 194.847 176.265 194.348 179.047 194.455C181.9 194.598 184.718 195.061 187.322 193.599C187.928 193.278 187.393 192.351 186.787 192.672C184.04 194.205 180.937 193.314 177.977 193.349C175.694 193.349 173.412 193.813 171.236 194.491C166.671 195.917 162.533 198.343 158.253 200.376C153.688 202.551 148.695 204.37 143.559 203.55C140.563 203.051 137.745 201.767 135.248 200.126C132.966 198.628 130.861 196.845 128.4 195.596C124.548 193.635 118.949 193.385 116.488 197.629C116.06 198.236 116.951 198.806 117.308 198.2Z" fill="black"/>
<path d="M174.304 136.353C178.691 155.257 182.757 174.267 186.502 193.313C186.645 193.991 187.679 193.705 187.536 193.028C183.791 173.982 179.725 154.971 175.338 136.068C175.196 135.426 174.161 135.676 174.304 136.353Z" fill="black"/>
<path d="M146.34 137.673C146.055 141.632 144.985 145.449 143.201 148.98C142.88 149.586 143.808 150.121 144.129 149.515C146.019 145.805 147.089 141.811 147.41 137.673C147.446 136.996 146.376 136.996 146.34 137.673Z" fill="black"/>
<path d="M137.709 158.895C135.069 156.148 137.174 151.833 139.991 150.121C143.023 148.302 146.376 149.942 147.125 153.331C147.731 156.006 146.768 159.929 144.164 161.356C141.133 162.996 137.78 160.928 137.281 157.682C137.174 157.004 136.139 157.29 136.246 157.967C136.817 161.712 140.669 164.066 144.236 162.497C147.909 160.892 149.229 155.435 147.802 151.94C146.269 148.23 142.167 147.232 138.957 149.514C135.818 151.761 133.928 156.541 136.924 159.679C137.423 160.179 138.172 159.394 137.709 158.895Z" fill="black"/>
<path d="M147.125 136.924C146.376 135.89 145.449 135.141 144.414 134.392C142.738 133.144 141.418 131.788 140.598 129.827C140.42 129.399 139.671 129.256 139.564 129.827C139.136 132.323 139.314 135.07 140.955 137.103C142.488 138.993 145.021 139.885 147.339 139.064C147.981 138.85 147.696 137.816 147.054 138.03C145.021 138.743 142.845 137.923 141.597 136.175C140.348 134.392 140.206 132.181 140.562 130.112C140.206 130.112 139.885 130.112 139.528 130.112C140.134 131.539 140.919 132.823 142.025 133.893C143.344 135.141 145.021 135.961 146.126 137.459C146.626 138.03 147.553 137.495 147.125 136.924Z" fill="black"/>
<path d="M147.518 137.316C148.481 133.607 153.296 132.644 153.724 128.542C153.367 128.542 153.01 128.542 152.654 128.542C152.475 132.038 151.619 137.067 147.161 137.245C146.483 137.281 146.483 138.351 147.161 138.315C152.261 138.101 153.51 132.715 153.724 128.542C153.759 127.829 152.725 127.865 152.654 128.542C152.297 132.252 147.446 133.429 146.483 137.031C146.305 137.709 147.339 137.994 147.518 137.316Z" fill="black"/>
<path d="M147.088 138.173C148.336 139.421 148.515 141.49 149.513 142.988C150.369 144.272 151.511 145.306 152.866 146.127C153.472 146.483 154.007 145.556 153.401 145.199C151.76 144.236 150.476 142.845 149.727 141.098C149.157 139.814 148.907 138.458 147.873 137.424C147.373 136.925 146.589 137.674 147.088 138.173Z" fill="black"/>
<path d="M155.221 153.937C153.402 153.188 152.368 150.371 152.511 148.516C152.725 145.591 156.363 144.593 158.645 145.77C160.678 146.84 161.463 149.301 160.678 151.405C159.822 153.759 157.112 154.686 154.865 153.973C154.223 153.759 153.937 154.793 154.579 155.007C157.361 155.899 160.643 154.651 161.713 151.797C162.747 149.015 161.392 145.734 158.61 144.628C155.899 143.594 152.118 144.771 151.476 147.874C150.977 150.442 152.439 154.009 154.9 155.007C155.578 155.221 155.863 154.187 155.221 153.937Z" fill="black"/>
<path d="M428.392 256.586C431.281 254.945 433.813 254.303 435.454 254.054C437.309 253.768 438.949 253.483 440.947 254.125C443.657 254.981 445.227 256.978 445.869 257.87C446.404 254.375 447.188 251.557 447.83 249.595C448.472 247.634 448.936 246.599 449.721 245.601C450.006 245.244 451.076 243.924 453.858 242.391C456.141 241.142 458.031 240.643 461.669 239.68C465.307 238.717 467.162 238.253 468.553 238.61C470.086 238.967 471.335 239.965 473.76 241.963C475.793 243.603 477.362 245.137 478.432 246.243C478.646 245.422 479.217 243.603 480.893 242.034C482.427 240.572 484.103 240.144 485.102 239.894C489.168 238.895 492.699 240.465 493.983 241.107C492.949 242.498 491.344 244.388 489.025 246.243C484.032 250.237 479.288 251.2 473.831 252.627C461.526 255.837 464.451 256.479 449.221 260.616C444.442 261.9 438.486 263.398 431.566 264.789C430.496 262.043 429.462 259.297 428.392 256.586Z" fill="white"/>
<path d="M432.244 264.754C436.06 262.935 439.912 261.045 443.8 259.154C448.936 256.622 454.001 254.054 458.958 251.522C460.421 251.45 462.525 251.308 465.093 250.987C474.901 249.774 482.534 247.099 487.135 245.209C489.346 244.281 492.307 242.962 495.695 241.143C492.521 243.711 488.669 246.421 484.139 249.025C477.041 253.055 470.336 255.481 464.95 257.014C454.036 259.547 443.158 262.15 432.244 264.754Z" fill="black"/>
<path d="M427.464 183.79C439.448 188.498 449.328 197.665 454.963 209.221C455.249 209.827 456.176 209.292 455.891 208.686C450.113 196.88 439.983 187.571 427.75 182.756C427.108 182.542 426.822 183.576 427.464 183.79Z" fill="black"/>
<path d="M418.87 233.652C428.001 227.731 437.132 221.775 446.262 215.854C446.833 215.498 446.298 214.57 445.727 214.927C436.597 220.848 427.466 226.804 418.335 232.725C417.765 233.117 418.3 234.044 418.87 233.652Z" fill="black"/>
<path d="M446.867 215.605C460.456 213.608 474.009 211.575 487.598 209.577C488.276 209.47 487.99 208.436 487.313 208.543C473.724 210.54 460.17 212.573 446.581 214.571C445.904 214.642 446.189 215.676 446.867 215.605Z" fill="black"/>
<path d="M455.357 209.577C455.928 210.897 456.356 212.288 456.712 213.679C456.891 214.356 457.925 214.071 457.747 213.393C457.39 212.002 456.926 210.647 456.391 209.292C456.142 208.65 455.107 208.935 455.357 209.577Z" fill="black"/>
<path d="M446.154 215.57C450.398 227.589 454.607 239.573 458.851 251.593C459.065 252.235 460.1 251.95 459.886 251.308C455.641 239.288 451.433 227.304 447.188 215.284C446.974 214.642 445.94 214.892 446.154 215.57Z" fill="black"/>
<path d="M459.6 251.985C472.333 251.201 484.745 247.634 495.98 241.571C496.587 241.25 496.052 240.322 495.445 240.643C484.389 246.635 472.155 250.131 459.6 250.915C458.887 250.951 458.887 252.021 459.6 251.985Z" fill="black"/>
<path d="M487.491 209.72C490.202 220.17 492.948 230.656 495.659 241.107C495.837 241.784 496.872 241.499 496.693 240.821C493.983 230.371 491.236 219.885 488.526 209.435C488.347 208.793 487.313 209.042 487.491 209.72Z" fill="black"/>
<path d="M418.013 232.939C421.972 243.71 426.217 254.374 430.711 264.932C430.996 265.574 431.888 265.003 431.638 264.397C427.144 253.946 422.935 243.353 419.048 232.653C418.798 232.011 417.764 232.297 418.013 232.939Z" fill="black"/>
<path d="M431.816 265.217C441.125 261.116 450.256 256.693 459.208 251.949C459.815 251.628 459.28 250.701 458.673 251.022C449.721 255.766 440.555 260.188 431.281 264.29C430.675 264.575 431.21 265.503 431.816 265.217Z" fill="black"/>
<path d="M432.386 265.253C442.515 262.685 452.68 260.26 462.881 257.977C463.559 257.834 463.273 256.8 462.596 256.943C452.395 259.225 442.23 261.651 432.101 264.219C431.459 264.397 431.744 265.431 432.386 265.253Z" fill="black"/>
<path d="M463.737 257.87C469.943 255.979 476.007 253.625 481.82 250.736C484.745 249.274 487.634 247.705 490.416 246.028C491.878 245.172 493.305 244.245 494.696 243.318C495.445 242.818 496.444 242.39 496.836 241.534C496.907 241.356 496.8 241.142 496.693 240.999C496.622 240.928 496.586 240.892 496.515 240.821C496.337 240.643 496.087 240.643 495.873 240.75C495.802 240.785 495.766 240.821 495.695 240.821C495.053 241.106 495.623 242.034 496.23 241.748C496.301 241.713 496.337 241.677 496.408 241.677C496.194 241.641 495.98 241.606 495.766 241.606C495.481 241.285 488.989 245.672 488.24 246.1C485.672 247.598 483.069 248.989 480.429 250.273C474.972 252.912 469.266 255.123 463.452 256.871C462.774 257.049 463.06 258.084 463.737 257.87Z" fill="black"/>
<path d="M456.033 241.606C458.102 241.036 460.17 240.536 462.275 240.073C464.236 239.645 467.019 238.61 468.98 239.252C470.871 239.859 472.69 241.678 474.152 242.962C475.686 244.317 477.148 245.815 478.503 247.349C478.967 247.884 479.716 247.099 479.252 246.6C477.683 244.816 476.006 243.14 474.187 241.606C472.761 240.394 471.084 238.789 469.265 238.218C467.518 237.683 465.378 238.361 463.63 238.717C460.991 239.252 458.352 239.894 455.748 240.608C455.07 240.75 455.355 241.785 456.033 241.606Z" fill="black"/>
<path d="M455.392 241.035C452.681 242.212 449.65 244.138 448.116 246.742C447.331 248.062 447.224 249.631 447.01 251.093C446.725 253.019 446.475 254.945 446.261 256.871C446.19 257.549 447.26 257.549 447.331 256.871C447.545 255.159 447.759 253.412 448.009 251.7C448.223 250.237 448.294 248.561 449.043 247.277C450.47 244.816 453.395 243.033 455.927 241.927C456.569 241.677 456.034 240.75 455.392 241.035Z" fill="black"/>
<path d="M428.534 257.121C431.245 256.158 433.991 254.91 436.809 254.197C439.769 253.448 443.693 255.73 445.369 258.156C445.761 258.726 446.689 258.191 446.296 257.621C444.798 255.445 441.731 253.412 439.092 252.984C437.415 252.734 435.882 253.341 434.312 253.911C432.279 254.625 430.246 255.374 428.213 256.087C427.607 256.301 427.892 257.335 428.534 257.121Z" fill="black"/>
<path d="M478.896 246.457C479.431 245.244 480.073 244.103 480.822 242.997C481.892 241.463 482.962 240.75 484.745 240.429C487.598 239.965 491.201 239.93 493.697 241.535C494.268 241.891 494.803 240.964 494.232 240.607C491.486 238.86 487.563 238.86 484.424 239.395C480.893 240.001 479.324 242.819 477.933 245.886C477.683 246.564 478.61 247.099 478.896 246.457Z" fill="black"/>
<path d="M451.79 381.562C452.111 384.772 452.467 387.982 452.788 391.192C449.257 391.442 446.547 392.119 444.728 392.726C442.195 393.582 440.769 394.402 436.275 396.506C433.421 397.826 431.103 398.86 429.569 399.538C430.711 400.037 432.423 400.679 434.598 401.036C437.701 401.5 439.556 401 442.766 400.572C447.296 399.966 447.01 400.537 456.926 399.752C461.277 399.395 463.274 399.146 464.095 397.683C464.63 396.756 464.38 395.864 464.023 392.868C463.738 390.586 463.702 388.267 463.417 385.949C463.167 383.631 462.811 380.207 462.561 375.927C458.994 377.817 455.392 379.707 451.79 381.562Z" fill="#020202"/>
<path d="M430.283 207.188C430.568 209.078 430.96 211.86 431.495 215.212C433.707 229.122 435.882 240.143 438.308 251.735C442.267 270.674 445.227 284.905 450.042 304.914C454.714 324.245 460.635 347.001 468.125 372.467C466.306 374.072 463.845 375.926 460.742 377.531C455.321 380.349 450.292 381.241 446.975 381.526C445.013 377.175 442.124 370.683 438.95 362.694C429.07 338.013 423.613 317.718 419.654 302.988C418.12 297.21 415.41 286.332 410.06 264.646C408.169 257.049 406.636 250.808 405.637 246.706C405.031 244.923 401.321 233.652 407.741 222.239C414.91 209.363 428.82 207.402 430.283 207.188Z" fill="white"/>
<path opacity="0.2" d="M419.796 234.33C419.761 236.969 419.796 240.786 420.046 245.422C421.045 261.865 424.469 274.348 427.001 282.979C431.852 299.386 442.873 333.448 459.208 377.71C458.031 378.495 456.569 379.315 454.785 380.028C451.789 381.205 449.114 381.598 447.153 381.705C443.622 374.036 438.807 362.944 433.813 349.319C427.179 331.165 423.399 317.184 417.549 295.284C414.304 283.122 410.238 267.072 405.886 247.955C410.523 243.425 415.16 238.86 419.796 234.33Z" fill="#919191"/>
<path d="M429.747 207.937C436.987 251.236 446.26 294.215 457.567 336.622C460.777 348.678 464.165 360.697 467.696 372.646C467.874 373.288 468.909 373.038 468.73 372.36C456.318 330.238 445.868 287.581 437.451 244.46C435.061 232.226 432.85 219.921 430.781 207.616C430.638 206.974 429.64 207.259 429.747 207.937Z" fill="black"/>
<path d="M405.85 249.381C414.125 284.619 422.435 320.001 435.026 354.027C438.521 363.443 442.302 372.716 446.51 381.847C446.796 382.489 447.723 381.918 447.438 381.312C432.422 348.605 422.578 313.83 414.018 278.984C411.593 269.033 409.239 259.082 406.885 249.131C406.742 248.418 405.708 248.703 405.85 249.381Z" fill="black"/>
<path d="M447.154 382.239C455.286 382.418 462.134 377.603 468.375 372.966C468.91 372.574 468.375 371.646 467.84 372.039C461.777 376.568 455.072 381.348 447.154 381.169C446.476 381.134 446.476 382.204 447.154 382.239Z" fill="black"/>
<path d="M451.255 381.562C451.397 384.843 451.718 388.089 452.289 391.335C452.467 391.121 452.646 390.871 452.788 390.657C448.829 390.193 445.191 391.905 441.66 393.51C437.523 395.365 433.386 397.255 429.284 399.11C428.927 399.253 428.999 399.716 429.177 399.966C430.283 401.357 431.959 401.642 433.635 401.642C436.275 401.642 438.95 401.357 441.589 401.214C447.438 400.893 453.288 400.572 459.137 400.216C460.671 400.109 462.418 400.109 463.667 399.11C465.379 397.755 464.772 395.365 464.594 393.475C464.095 387.625 463.595 381.812 463.096 375.962C463.025 375.285 461.955 375.285 462.026 375.962C462.418 380.742 462.846 385.521 463.239 390.336C463.417 392.44 464.237 395.401 463.453 397.398C462.597 399.609 458.923 399.181 456.961 399.288C452.289 399.538 447.617 399.823 442.944 400.073C440.483 400.216 438.022 400.358 435.561 400.501C433.6 400.608 431.21 400.965 429.855 399.217C429.819 399.502 429.783 399.788 429.748 400.073C433.457 398.397 437.166 396.72 440.876 395.044C444.621 393.368 448.473 391.263 452.717 391.763C453.109 391.798 453.288 391.37 453.216 391.085C452.681 387.946 452.36 384.772 452.253 381.598C452.325 380.884 451.255 380.884 451.255 381.562Z" fill="black"/>
<path d="M392.619 376.711C392.761 381.812 392.904 386.912 393.082 392.012C388.517 393.011 385.093 393.76 383.238 394.152C379.351 394.973 375.106 395.864 370.256 398.397C367.367 399.93 367.26 400.465 367.331 400.679C367.616 401.892 373.965 401.393 376.854 401.179C383.738 400.644 393.689 400.002 407.706 399.395C407.385 395.757 407.171 391.905 407.099 387.839C406.992 381.847 407.278 376.283 407.706 371.219C402.677 373.038 397.648 374.892 392.619 376.711Z" fill="#020202"/>
<path d="M386.163 210.897C386.056 213.108 385.878 216.425 385.7 220.42C384.844 238.182 383.239 271.174 383.096 297.424C382.989 315.864 383.524 341.758 386.449 373.751C388.589 375.106 391.549 376.604 395.223 377.567C404.318 379.886 412.057 377.318 415.267 376.034C414.554 371.076 413.698 364.228 412.913 356.025C410.916 335.231 410.845 319.181 410.809 306.983C410.738 280.804 412.307 284.263 411.629 271.138C411.201 263.22 412.878 255.338 412.913 247.42C412.913 246.029 412.913 242.997 414.625 239.823C416.73 235.971 420.332 233.938 422.615 232.939C423.292 229.836 424.041 224.45 422.615 218.137C421.866 214.82 420.332 208.079 415.767 204.655C409.204 199.698 396.899 201.98 386.163 210.897Z" fill="white"/>
<path opacity="0.22" d="M414.019 240.821C413.448 240.75 410.345 259.939 408.062 286.546C404.817 323.996 404.924 355.597 405.815 378.744C407.385 378.388 409.025 377.96 410.773 377.461C412.342 376.997 413.84 376.497 415.231 375.998C414.268 368.722 412.984 358.129 412.057 345.289C407.706 285.94 414.91 240.928 414.019 240.821Z" fill="#919191"/>
<path d="M385.627 210.897C383.487 253.198 381.347 295.57 383.237 337.906C383.772 349.89 384.628 361.838 385.877 373.751C385.948 374.429 387.018 374.429 386.947 373.751C382.488 331.593 383.166 289.15 384.949 246.885C385.449 234.901 386.055 222.881 386.661 210.897C386.733 210.219 385.663 210.219 385.627 210.897Z" fill="black"/>
<path d="M420.189 232.832C413.841 235.507 412.521 243.283 412.093 249.382C411.38 259.475 411.023 269.605 410.666 279.698C409.953 300.456 409.917 321.214 411.201 341.937C411.915 353.386 413.056 364.799 414.661 376.141C414.768 376.818 415.802 376.533 415.695 375.856C410.06 336.373 410.631 296.355 412.771 256.622C413.163 249.275 412.485 237.255 420.724 233.76C421.366 233.474 420.831 232.583 420.189 232.832Z" fill="black"/>
<path d="M386.306 374.393C390.764 376.961 395.686 378.602 400.786 379.137C405.566 379.636 410.773 379.387 415.017 376.89C415.624 376.533 415.089 375.606 414.482 375.963C410.416 378.352 405.387 378.566 400.786 378.067C395.864 377.568 391.121 375.963 386.841 373.466C386.234 373.109 385.699 374.037 386.306 374.393Z" fill="black"/>
<path d="M392.084 376.712C392.227 381.812 392.369 386.912 392.547 392.013C392.69 391.834 392.797 391.656 392.94 391.513C387.839 392.548 382.704 393.582 377.675 394.937C373.751 395.972 369.935 397.47 366.975 400.323C366.689 400.573 366.796 400.965 367.081 401.179C368.116 401.928 369.293 401.892 370.541 401.857C372.182 401.857 373.822 401.785 375.463 401.75C379.101 401.678 382.703 401.536 386.341 401.357C393.475 401.036 400.608 400.537 407.706 399.931C407.991 399.895 408.241 399.717 408.241 399.396C407.884 392.655 407.527 385.914 407.171 379.173C407.135 378.495 406.065 378.495 406.101 379.173C406.457 385.914 406.814 392.655 407.171 399.396C407.349 399.217 407.527 399.039 407.706 398.861C401.072 399.431 394.402 399.895 387.732 400.252C384.451 400.394 381.17 400.537 377.924 400.644C376.283 400.68 374.643 400.715 373.002 400.751C371.397 400.787 369.007 401.25 367.616 400.252C367.652 400.537 367.688 400.822 367.723 401.108C370.826 398.112 374.928 396.756 379.066 395.722C383.774 394.545 388.517 393.546 393.261 392.583C393.475 392.548 393.653 392.298 393.653 392.084C393.51 386.984 393.368 381.883 393.19 376.783C393.154 376.034 392.084 376.034 392.084 376.712Z" fill="black"/>
<path d="M426.075 144.913C423.114 143.808 420.225 145.234 419.869 145.413C416.266 147.267 414.269 152.047 415.161 157.254C416.373 160.214 417.55 163.175 418.763 166.171C420.475 170.451 422.187 174.695 423.935 178.975C423.15 180.259 421.937 182.185 420.439 184.503C415.517 192.386 414.84 193.563 413.413 195.453C411.665 197.736 408.955 200.839 404.817 204.013C407.171 204.548 410.488 205.012 414.376 204.726C420.154 204.298 424.541 202.372 427.109 201.017C430.105 198.77 432.281 196.559 433.707 194.882C436.668 191.423 437.345 189.354 437.524 188.783C438.023 187.178 438.13 185.752 438.094 183.505C438.023 179.332 437.559 176.086 436.917 172.234C435.919 166.028 435.419 162.854 434.599 159.893C433.529 155.97 432.566 153.794 432.102 152.796C430.176 148.694 428.892 145.948 426.075 144.913Z" fill="white"/>
<path opacity="0.1" d="M415.161 157.254C416.373 155.863 417.8 154.757 419.155 154.971C421.616 155.399 421.509 159.893 424.826 166.67C428.001 173.161 430.497 173.875 430.497 177.834C430.497 180.616 429.249 182.684 427.323 185.787C426.61 186.929 424.22 190.638 418.834 195.168C415.981 197.522 411.63 200.732 405.566 203.442C407.849 201.017 409.739 199.091 411.023 197.807C414.519 194.347 415.767 193.277 417.051 190.888C418.121 188.89 417.907 188.355 418.87 186.322C420.404 183.077 422.651 180.901 424.327 179.581C423.614 178.155 422.9 176.657 422.187 175.159C419.334 168.988 417.015 162.996 415.161 157.254Z" fill="#919191"/>
<path d="M425.682 145.305C433.101 151.404 434.741 161.712 436.132 170.664C436.56 173.553 436.953 176.442 437.238 179.331C437.488 182.042 437.844 184.86 437.309 187.535C436.275 192.742 431.46 196.915 427.287 199.804C426.716 200.196 427.251 201.124 427.822 200.731C431.924 197.914 436.489 193.99 438.022 189.068C438.807 186.572 438.7 183.932 438.486 181.364C438.237 178.368 437.88 175.408 437.487 172.448C436.132 162.746 434.527 151.226 426.466 144.592C425.931 144.093 425.147 144.877 425.682 145.305Z" fill="black"/>
<path d="M414.662 157.397C417.586 164.637 420.511 171.878 423.4 179.082C423.65 179.724 424.684 179.439 424.434 178.797C421.51 171.557 418.585 164.316 415.696 157.112C415.446 156.505 414.412 156.755 414.662 157.397Z" fill="black"/>
<path d="M427.643 176.55C423.007 179.225 420.189 183.719 417.514 188.177C414.268 193.598 410.737 198.485 405.815 202.515C405.28 202.943 406.029 203.692 406.564 203.264C411.094 199.555 414.589 195.096 417.621 190.067C420.474 185.324 423.256 180.295 428.214 177.441C428.785 177.156 428.25 176.229 427.643 176.55Z" fill="black"/>
<path d="M374.643 144.272C375 147.018 375.57 151.37 376.462 156.648C378.923 171.521 381.027 177.834 383.06 189.676C383.916 194.705 385.022 202.195 385.7 211.468C388.482 213.394 392.12 215.32 396.614 216.426C413.52 220.527 427.965 209.078 430.283 207.188C429.284 197.879 428.999 190.282 428.963 185.075C428.821 170.915 430.14 165.208 428.749 154.901C427.608 146.341 425.254 139.528 423.471 135.213C418.584 133.536 402.071 128.507 385.7 136.497C381.027 138.815 377.389 141.633 374.643 144.272Z" fill="black"/>
<path d="M322.534 119.84C322.392 119.911 322.178 120.161 322.677 123.799C322.998 126.153 323.212 126.831 323.39 127.972C323.89 131.539 322.962 132.395 323.212 135.89C323.39 138.28 323.997 140.027 324.353 141.169C325.281 143.915 326.458 145.591 330.666 151.548C334.411 156.791 334.055 156.256 334.411 156.791C337.3 161.106 337.728 162.925 341.366 170.13C344.969 177.228 346.823 180.01 348 181.65C350.533 185.181 352.566 187.286 355.49 188.677C356.632 189.212 358.665 190.175 361.304 190.032C362.802 189.961 364.585 189.533 367.332 187.785C372.182 184.718 374.929 180.723 376.712 178.155C380.457 172.627 381.991 167.776 382.383 166.563C383.917 161.57 384.024 157.647 384.095 155.293C384.202 150.87 384.238 147.945 382.169 145.556C382.062 145.413 379.494 142.524 376.926 143.166C375.678 143.487 375.036 144.45 373.431 147.054C369.721 153.153 368.509 155.471 368.509 155.471C367.617 157.147 365.834 160.607 364.407 163.068C363.016 165.529 360.876 168.953 357.844 172.912C356.953 171.771 355.74 170.166 354.349 168.204C351.781 164.602 350.283 162.497 348.607 159.573C346.36 155.614 344.933 153.153 344.255 149.443C343.685 146.519 343.72 143.558 343.72 142.738C343.756 138.208 344.612 135.676 342.971 134.107C342.9 134.035 341.83 133.001 340.796 133.286C339.797 133.572 339.084 134.963 339.155 136.782C337.479 135.676 335.624 134.249 333.805 132.466C332.2 130.861 331.344 129.72 327.385 124.905C324.104 120.839 323.034 119.59 322.534 119.84Z" fill="white"/>
<path opacity="0.21" d="M323.711 130.754C324.318 133.144 325.388 136.675 327.456 140.562C330.595 146.519 333.02 147.731 337.086 153.331C341.224 159.038 339.94 159.394 346.716 171.2C352.459 181.151 354.599 183.041 357.238 183.469C360.805 184.076 363.979 181.757 366.012 180.331C370.256 177.263 372.075 173.483 375.285 166.492C378.816 158.824 381.598 152.689 383.346 148.73C383.738 150.549 384.059 152.76 384.095 155.257C384.095 156.327 384.095 159.858 382.954 164.495C380.457 174.446 374.679 181.044 373.181 182.685C369.935 186.251 367.26 189.069 362.945 189.711C359.378 190.246 356.453 189.069 355.526 188.641C351.496 186.893 349.391 183.79 346.146 178.761C344.969 176.942 344.541 176.051 340.296 167.847C336.73 160.928 334.911 157.433 334.447 156.755C331.487 152.261 329.632 150.87 326.315 145.128C324.888 142.631 324.175 141.097 323.747 139.207C322.891 135.712 323.283 132.644 323.711 130.754Z" fill="#919191"/>
<path d="M378.138 142.096C375.819 142.274 374.214 143.701 372.93 145.555C371.111 148.159 369.756 151.191 368.258 153.973C366.582 157.076 364.905 160.179 363.229 163.246C361.624 166.242 360.019 169.238 357.701 171.735C357.237 172.234 357.986 172.983 358.45 172.484C362.409 168.239 364.798 162.64 367.509 157.575C369.078 154.686 370.612 151.797 372.181 148.908C373.465 146.518 375.07 143.38 378.138 143.166C378.815 143.094 378.851 142.024 378.138 142.096Z" fill="black"/>
<path d="M358.236 174.588C358.343 172.555 357.344 170.915 356.132 169.345C354.384 167.098 352.529 164.923 350.996 162.533C347.964 157.861 345.717 152.76 344.183 147.41C344.005 146.733 342.971 147.018 343.149 147.696C344.54 152.546 346.502 157.183 349.105 161.534C350.318 163.567 351.709 165.529 353.171 167.419C354.848 169.559 357.309 171.664 357.166 174.624C357.13 175.302 358.2 175.302 358.236 174.588Z" fill="black"/>
<path d="M344.112 147.197C344.219 144.558 344.29 141.918 344.148 139.243C344.041 137.317 344.041 134.714 343.149 132.966C342.614 131.896 341.544 131.432 340.545 132.253C339.19 133.358 338.619 136.033 338.227 137.603C338.049 138.28 339.083 138.566 339.261 137.888C339.404 137.317 340.831 131.789 342.329 133.786C342.578 134.107 342.614 135.106 342.685 135.463C342.828 136.39 342.935 137.317 343.006 138.28C343.256 141.241 343.113 144.237 343.006 147.197C343.006 147.91 344.076 147.91 344.112 147.197Z" fill="black"/>
<path d="M338.905 136.568C335.98 134.249 333.305 131.646 330.916 128.792C329.596 127.187 328.383 125.511 327.278 123.763C326.493 122.515 325.851 120.768 324.745 119.733C322.926 118.092 321.286 119.84 321.5 121.837C321.678 123.514 322.641 124.94 323.568 126.296C324.852 128.186 326.172 130.041 327.456 131.895C327.848 132.466 328.776 131.931 328.383 131.36C326.671 128.864 324.531 126.403 323.212 123.692C322.998 123.228 322.284 121.73 322.57 121.124C323.604 118.913 324.817 121.659 325.138 122.23C325.78 123.371 326.457 124.477 327.206 125.582C330.238 130.076 333.912 134 338.156 137.352C338.691 137.745 339.44 136.996 338.905 136.568Z" fill="black"/>
<path d="M322.535 125.083C322.428 130.041 324.104 134.713 327.278 138.494C327.706 139.029 328.491 138.244 328.027 137.745C325.031 134.178 323.462 129.755 323.569 125.083C323.605 124.37 322.535 124.37 322.535 125.083Z" fill="black"/>
<path d="M322.856 127.829C321.822 131.681 322.428 135.64 324.604 138.993C324.96 139.564 325.888 139.029 325.531 138.458C323.534 135.355 322.927 131.681 323.89 128.115C324.069 127.473 323.034 127.187 322.856 127.829Z" fill="black"/>
<path d="M322.642 134.82C322.642 140.098 325.139 144.664 328.099 148.872C331.452 153.652 334.947 158.146 337.586 163.389C342.544 173.233 346.61 184.86 357.132 190.139C357.738 190.46 358.273 189.532 357.667 189.211C347.359 184.004 343.364 172.519 338.514 162.854C336.053 157.967 332.878 153.687 329.668 149.229C326.565 144.913 323.712 140.277 323.712 134.82C323.712 134.142 322.642 134.142 322.642 134.82Z" fill="black"/>
<path d="M357.488 190.175C363.195 191.673 368.545 188.213 372.361 184.254C376.392 180.117 379.602 175.124 381.742 169.774C383.917 164.352 384.987 158.432 384.452 152.582C384.096 148.695 383.061 142.417 378.139 142.025C377.462 141.954 377.462 143.024 378.139 143.095C383.204 143.523 383.525 152.012 383.525 155.65C383.525 160.714 382.348 165.779 380.351 170.416C378.425 174.91 375.714 179.047 372.397 182.685C368.759 186.68 363.48 190.674 357.774 189.176C357.132 188.962 356.846 189.997 357.488 190.175Z" fill="black"/>
<path d="M390.23 85.3145C384.63 87.9895 382.455 93.1611 380.885 96.9061C378.817 101.828 378.781 105.93 378.817 112.064C378.852 119.768 380.101 120.303 380.208 127.508C380.386 138.386 377.604 139.349 379.173 144.129C381.634 151.761 391.157 157.361 399.967 158.966C413.913 161.534 430.284 154.971 432.887 146.197C435.17 138.529 424.969 135.925 419.37 120.66C413.092 103.54 421.331 94.4808 412.771 87.7041C407.029 83.1388 396.935 82.1045 390.23 85.3145Z" fill="#0075E3"/>
</svg>
