<svg width="559" height="420" viewBox="0 0 559 420" fill="none" xmlns="http://www.w3.org/2000/svg">
<path d="M165.568 378.967C161.306 374.635 157.638 369.813 154.633 364.538C151.663 359.297 148.17 352.799 148.868 346.58C148.694 346.755 148.519 346.929 148.344 347.104C148.484 347.174 148.624 347.209 148.763 347.279C149.148 347.838 150.056 347.314 149.672 346.755C149.322 346.231 148.973 346.021 148.344 346.056C148.03 346.056 147.855 346.301 147.82 346.58C147.121 352.799 150.51 359.262 153.445 364.538C156.52 370.093 160.363 375.194 164.835 379.701C165.289 380.19 166.023 379.456 165.568 378.967Z" fill="#E8E8E8"/>
<path d="M154.214 353.952C148.52 345.497 144.432 335.82 142.755 325.723C142.51 324.29 142.371 322.858 142.545 321.425C142.58 321.041 142.65 320.692 142.72 320.307C142.685 319.748 142.93 319.539 143.489 319.713C144.502 319.644 144.921 320.727 145.48 321.46C146.982 323.452 148.415 325.513 149.812 327.609C152.677 331.977 155.193 336.553 157.429 341.27C157.708 341.864 158.616 341.34 158.337 340.746C155.682 335.086 152.572 329.636 148.974 324.5C148.03 323.137 147.052 321.775 146.039 320.447C145.445 319.679 144.851 318.665 143.908 318.316C142.056 317.652 141.672 320.028 141.497 321.321C141.183 324.151 141.916 327.12 142.545 329.845C143.244 332.815 144.117 335.75 145.2 338.615C147.262 344.205 150.022 349.515 153.341 354.441C153.655 355.07 154.564 354.546 154.214 353.952Z" fill="#E8E8E8"/>
<path d="M172.766 372.434C165.674 361.882 158.512 350.353 158.302 337.251C158.022 337.391 157.778 337.566 157.498 337.706C158.721 338.474 159.664 339.418 160.468 340.64C160.782 341.13 161.621 340.815 161.411 340.221C159.874 335.784 158.442 331.277 157.149 326.735C156.52 324.569 155.961 322.403 155.402 320.237C154.878 318.141 153.69 315.136 155.437 313.319C155.192 313.319 154.948 313.319 154.703 313.319C158.686 318.42 161.237 324.36 163.787 330.264C166.582 336.797 169.412 343.366 172.207 349.899C172.452 350.423 173.395 350.039 173.15 349.48C172.801 348.886 172.906 348.292 173.465 347.663C173.185 347.628 172.906 347.593 172.626 347.558C177.028 353.497 180.522 360.066 182.898 367.088C183.108 367.717 184.121 367.437 183.911 366.809C181.465 359.716 178.007 353.043 173.535 347.034C173.325 346.789 172.976 346.65 172.696 346.929C171.928 347.733 171.683 348.711 172.102 349.759C172.417 349.619 172.731 349.48 173.046 349.34C170.146 342.597 167.281 335.889 164.381 329.146C161.9 323.346 159.28 317.582 155.367 312.551C155.192 312.341 154.808 312.376 154.633 312.551C153.446 313.808 153.306 315.346 153.515 316.988C153.865 319.468 154.668 321.984 155.332 324.394C156.8 329.81 158.477 335.155 160.328 340.466C160.643 340.326 160.957 340.186 161.272 340.046C160.398 338.684 159.315 337.601 157.918 336.727C157.568 336.518 157.114 336.797 157.114 337.182C157.324 350.493 164.486 362.197 171.718 372.888C172.242 373.517 173.15 372.993 172.766 372.434Z" fill="#E8E8E8"/>
<path d="M188.663 367.368C187.265 364.573 186.147 361.673 185.309 358.668C184.924 357.236 184.575 355.804 184.33 354.336C184.191 353.568 184.051 352.764 183.981 351.96C183.911 351.541 183.876 351.122 183.841 350.703C183.667 350.074 183.946 350.004 184.715 350.493C185.868 350.738 186.007 351.262 186.601 352.205C186.916 352.729 187.195 353.253 187.51 353.777C188.243 355.14 188.907 356.572 189.501 358.04C190.584 360.66 191.493 363.35 192.401 366.04C192.611 366.669 193.624 366.39 193.414 365.761C192.191 362.092 190.934 358.389 189.222 354.895C188.418 353.218 187.51 351.471 186.357 349.969C185.763 349.165 184.889 348.397 183.806 348.746C182.863 349.061 182.723 349.864 182.758 350.738C182.828 352.659 183.247 354.616 183.667 356.502C184.54 360.45 185.937 364.293 187.754 367.927C188.034 368.521 188.942 367.997 188.663 367.368Z" fill="#E8E8E8"/>
<path d="M196.069 365.761C192.366 355.175 191.143 343.855 190.794 332.675C190.724 329.95 190.759 327.19 191.073 324.465C191.143 323.871 191.073 322.508 191.493 322.054C191.632 321.88 192.82 321.355 193.135 321.53C193.309 321.635 193.414 322.229 193.484 322.404C193.903 323.766 194.183 325.234 194.497 326.631C195.86 332.326 197.152 338.056 198.41 343.785C199.878 350.423 201.275 357.027 202.603 363.7C202.742 364.364 203.756 364.084 203.616 363.42C200.891 349.795 198.026 336.169 194.637 322.683C194.322 321.425 193.519 319.329 191.772 320.028C189.955 320.762 190.06 323.906 189.92 325.443C189.291 331.976 190.06 338.58 190.654 345.078C191.283 352.24 192.645 359.228 195.056 366.04C195.301 366.669 196.314 366.39 196.069 365.761Z" fill="#E8E8E8"/>
<path d="M377.394 390.322C374.844 384.837 373.342 378.932 373.097 372.888C372.957 369.919 373.097 366.949 373.551 364.014C373.726 362.826 373.796 360.94 374.39 359.892C375.193 358.459 375.752 359.472 376.172 360.346C376.626 361.254 377.045 362.197 377.429 363.176C377.674 363.805 378.687 363.525 378.442 362.896C377.953 361.708 376.311 356.083 374.145 357.97C373.097 358.878 373.027 361.01 372.783 362.232C372.433 364.154 372.189 366.075 372.084 368.032C371.63 375.858 373.167 383.719 376.486 390.811C376.765 391.44 377.674 390.916 377.394 390.322Z" fill="#E8E8E8"/>
<path d="M380.12 371.7C379.701 365.027 379.875 358.354 380.679 351.716C381.412 345.637 382.496 339.383 385.989 334.212C385.675 334.212 385.395 334.212 385.081 334.212C385.954 335.854 386.409 337.496 386.478 339.383C386.478 339.942 387.422 340.117 387.492 339.523C388.47 332.326 390.706 325.443 394.2 319.084C393.99 319.154 393.815 319.259 393.606 319.329C396.086 319.923 395.632 324.989 395.702 326.875C395.807 329.601 395.807 332.361 395.702 335.121C395.527 340.746 395.073 346.371 394.689 351.995C393.92 363.35 393.151 374.705 392.383 386.06C392.348 386.723 393.396 386.723 393.431 386.06C394.269 373.552 395.143 361.044 395.981 348.502C396.401 342.318 396.855 336.134 396.82 329.95C396.785 327.295 396.82 324.5 396.401 321.844C396.156 320.307 395.562 318.7 393.885 318.316C393.676 318.281 393.396 318.351 393.291 318.56C389.797 324.989 387.492 331.976 386.478 339.243C386.828 339.278 387.177 339.348 387.492 339.383C387.422 337.357 386.933 335.47 385.954 333.688C385.745 333.339 385.256 333.374 385.046 333.688C381.692 338.649 380.539 344.554 379.77 350.388C378.827 357.446 378.617 364.608 379.072 371.735C379.142 372.399 380.19 372.399 380.12 371.7Z" fill="#E8E8E8"/>
<path d="M394.689 362.057C395.108 360.555 395.702 359.123 396.54 357.795C397.064 356.922 397.379 356.118 398.462 356.118C399.231 355.873 399.65 356.258 399.685 357.201C399.755 357.725 399.824 358.249 399.859 358.808C400.104 361.778 400.174 364.817 400.139 367.787C400.034 374.076 399.335 380.33 398.043 386.514C397.903 387.177 398.916 387.457 399.056 386.793C400.803 378.478 401.501 369.953 401.082 361.463C400.977 359.647 401.397 354.686 398.427 354.686C397.274 354.686 396.54 355.908 395.981 356.747C394.933 358.284 394.2 359.996 393.71 361.743C393.501 362.407 394.479 362.686 394.689 362.057Z" fill="#E8E8E8"/>
<path d="M379.282 143.942C385.186 136.501 395.493 133.182 404.681 135.418C409.852 136.675 413.59 140.029 417.992 142.824C422.394 145.654 427.181 146.493 432.317 145.41C443.567 142.964 452.965 132.203 465.053 133.706C470.364 134.37 474.905 137.549 479.587 139.89C484.024 142.126 488.531 143.453 493.527 142.755C500.06 141.846 505.825 138.457 512.079 136.571C517.774 134.859 524.517 134.16 529.478 138.108C530.002 138.527 530.736 137.793 530.212 137.374C521.407 130.387 510.053 136.326 501.074 139.645C495.029 141.881 489.055 142.824 482.941 140.344C478.12 138.352 473.857 135.173 468.861 133.531C457.017 129.653 447.27 138.702 436.963 142.859C430.919 145.305 424.7 145.759 418.971 142.265C414.603 139.575 410.9 136.151 405.869 134.684C396.121 131.889 384.872 135.243 378.513 143.209C378.094 143.733 378.862 144.466 379.282 143.942Z" fill="#E8E8E8"/>
<path d="M381.308 118.822C386.129 114.84 392.872 113.582 398.811 115.538C404.716 117.46 408.594 122.945 414.463 125.006C420.368 127.103 427.041 125.915 432.91 124.238C435.985 123.329 438.989 122.176 441.889 120.779C444.859 119.346 447.619 117.495 450.658 116.167C457.332 113.232 465.018 114.42 470.119 119.801C470.573 120.29 471.341 119.556 470.852 119.067C466.939 114.944 461.14 112.848 455.48 113.617C452.51 114.036 449.785 115.294 447.2 116.726C443.881 118.508 440.666 120.36 437.138 121.687C430.5 124.238 422.359 126.404 415.337 124.168C408.943 122.141 404.89 116.097 398.357 114.281C392.208 112.569 385.5 114.036 380.574 118.054C380.05 118.508 380.783 119.242 381.308 118.822Z" fill="#E8E8E8"/>
<path d="M48.3185 156.799C48.6329 151.629 53.3495 148.379 58.0311 147.401C63.7958 146.178 69.3509 148.659 74.2421 151.524C79.3081 154.493 84.0596 157.812 89.5448 159.944C94.995 162.04 100.899 163.228 106.769 162.774C112.219 162.354 117.18 160.398 121.687 157.358C126.229 154.319 130.282 150.58 135.208 148.1C148.135 141.601 160.153 150.825 171.473 156.24C176.854 158.826 182.653 160.677 188.662 159.839C193.693 159.14 198.48 156.66 200.995 152.083C201.31 151.489 200.401 150.965 200.087 151.559C197.432 156.38 192.086 158.686 186.741 158.965C180.522 159.28 174.687 156.764 169.307 153.934C158.896 148.519 147.541 141.252 135.627 146.702C130.631 148.973 126.509 152.712 122.072 155.821C117.041 159.35 111.555 161.586 105.371 161.795C98.943 162.005 92.5494 160.328 86.7498 157.568C81.2296 154.948 76.4432 151.139 70.9231 148.519C65.9969 146.178 60.6514 145.095 55.4108 147.052C51.1135 148.659 47.5499 152.013 47.2704 156.799C47.2354 157.498 48.2836 157.498 48.3185 156.799Z" fill="#E8E8E8"/>
<path d="M120.115 136.466C124.168 131.54 129.828 127.138 136.396 126.579C142.44 126.09 147.296 129.618 151.873 133.042C156.136 136.221 160.643 139.331 166.198 139.366C172.836 139.401 178.705 135.802 183.806 131.924C189.326 127.732 196.453 120.534 204.07 123.399C204.699 123.644 204.978 122.631 204.349 122.386C198.305 120.15 192.366 123.993 187.754 127.557C181.85 132.099 175.736 137.479 167.979 138.213C155.437 139.436 148.869 124.517 136.361 125.496C129.513 126.055 123.574 130.527 119.346 135.662C118.927 136.256 119.696 136.99 120.115 136.466Z" fill="#E8E8E8"/>
<path d="M60.6867 261.717C63.307 258.922 67.3597 258.992 70.7836 260.145C74.452 261.402 77.4567 264.093 80.6709 266.119C86.9247 269.997 93.7725 270.032 100.48 267.237C107.398 264.337 112.639 259.131 118.648 254.834C121.653 252.703 124.937 250.746 128.57 250.013C132.309 249.244 136.012 249.978 139.436 251.515C146.039 254.52 151.594 259.795 159.036 260.634C159.7 260.704 159.7 259.656 159.036 259.586C151.839 258.782 146.318 253.541 139.96 250.607C133.601 247.707 127.312 248.336 121.338 251.83C114.7 255.743 109.459 261.612 102.577 265.141C99.0131 266.957 95.0302 268.285 90.9775 268.285C86.5404 268.285 82.837 266.398 79.2734 263.953C75.9543 261.682 72.7052 259.236 68.6524 258.572C65.4731 258.048 62.189 258.607 59.953 261.018C59.4988 261.437 60.2325 262.206 60.6867 261.717Z" fill="#E8E8E8"/>
<path d="M381.972 247.881C383.893 250.537 387.143 251.41 390.287 250.921C394.724 250.222 398.078 246.868 401.502 244.283C408.944 238.623 418.586 235.024 427.216 240.3C433.435 244.108 438.151 250.641 445.453 252.528C453.908 254.694 461.769 249.453 468.687 245.366C473.229 242.676 477.875 240.37 483.046 239.182C488.671 237.889 494.506 237.854 500.131 238.972C500.794 239.112 501.074 238.099 500.41 237.959C491.641 236.212 482.452 237.225 474.382 241.068C466.591 244.737 459.254 251.585 450.31 251.969C442.029 252.353 436.544 245.855 430.5 241.278C427.565 239.077 424.351 237.225 420.648 236.701C416.7 236.142 412.717 236.981 409.083 238.553C404.262 240.614 400.524 243.968 396.296 247.008C392.558 249.663 386.199 252.004 382.845 247.357C382.496 246.798 381.588 247.322 381.972 247.881Z" fill="#E8E8E8"/>
<path d="M149.707 99.642C152.1 99.642 154.039 97.7024 154.039 95.3098C154.039 92.9172 152.1 90.9775 149.707 90.9775C147.315 90.9775 145.375 92.9172 145.375 95.3098C145.375 97.7024 147.315 99.642 149.707 99.642Z" stroke="#282828" stroke-width="1.04813" stroke-miterlimit="10"/>
<path d="M383.369 178.251C385.839 178.251 387.841 176.249 387.841 173.779C387.841 171.309 385.839 169.307 383.369 169.307C380.899 169.307 378.897 171.309 378.897 173.779C378.897 176.249 380.899 178.251 383.369 178.251Z" stroke="#282828" stroke-width="1.04813" stroke-miterlimit="10"/>
<path d="M172.696 223.425C174.876 223.425 176.644 221.658 176.644 219.477C176.644 217.297 174.876 215.529 172.696 215.529C170.516 215.529 168.748 217.297 168.748 219.477C168.748 221.658 170.516 223.425 172.696 223.425Z" stroke="#185FA1" stroke-width="1.04813" stroke-miterlimit="10"/>
<path d="M180.068 212.14C181.939 212.14 183.457 210.623 183.457 208.751C183.457 206.88 181.939 205.362 180.068 205.362C178.196 205.362 176.679 206.88 176.679 208.751C176.679 210.623 178.196 212.14 180.068 212.14Z" stroke="#185FA1" stroke-width="1.04813" stroke-miterlimit="10"/>
<path d="M115.224 288.06C115.996 288.06 116.622 287.434 116.622 286.662C116.622 285.89 115.996 285.265 115.224 285.265C114.452 285.265 113.827 285.89 113.827 286.662C113.827 287.434 114.452 288.06 115.224 288.06Z" fill="#282828"/>
<path d="M128.99 291.553C130.34 291.553 131.435 290.458 131.435 289.108C131.435 287.757 130.34 286.662 128.99 286.662C127.639 286.662 126.544 287.757 126.544 289.108C126.544 290.458 127.639 291.553 128.99 291.553Z" fill="#282828"/>
<path d="M378.094 44.1262C379.657 44.1262 380.924 42.8592 380.924 41.2962C380.924 39.7333 379.657 38.4663 378.094 38.4663C376.531 38.4663 375.264 39.7333 375.264 41.2962C375.264 42.8592 376.531 44.1262 378.094 44.1262Z" fill="#185FA1"/>
<path d="M98.4538 178.251C99.6887 178.251 100.69 177.25 100.69 176.015C100.69 174.78 99.6887 173.779 98.4538 173.779C97.2189 173.779 96.2178 174.78 96.2178 176.015C96.2178 177.25 97.2189 178.251 98.4538 178.251Z" fill="#185FA1"/>
<path d="M438.92 303.572C440.27 303.572 441.365 302.477 441.365 301.126C441.365 299.776 440.27 298.681 438.92 298.681C437.569 298.681 436.474 299.776 436.474 301.126C436.474 302.477 437.569 303.572 438.92 303.572Z" fill="#185FA1"/>
<path d="M440.143 169.587C440.818 169.587 441.366 169.039 441.366 168.364C441.366 167.689 440.818 167.141 440.143 167.141C439.467 167.141 438.92 167.689 438.92 168.364C438.92 169.039 439.467 169.587 440.143 169.587Z" fill="#185FA1"/>
<path d="M420.717 78.5045C421.032 77.9804 421.521 77.107 422.15 76.8624C424.071 76.0588 423.512 77.1768 424.141 77.7358C424.596 78.1201 424.875 78.4695 425.539 78.5394C427.356 78.7141 428.404 76.8624 429.801 76.0938C431.583 75.1505 431.967 78.3298 433.714 78.5743C435.042 78.784 436.335 77.9455 437.348 77.1768C438.815 76.0588 440.248 74.9758 441.785 76.8624C442.134 77.3166 442.518 77.8756 443.077 78.0852C444.405 78.5394 444.475 77.2467 444.929 76.4781C446.466 73.8578 450.834 81.02 452.79 77.2816C453.105 76.6877 452.196 76.1636 451.882 76.7576C450.624 79.0984 445.838 72.041 444.021 75.7793C443.811 76.1986 443.846 77.0021 443.147 76.8624C442.868 76.8275 442.484 76.0588 442.344 75.8492C441.89 75.3252 441.435 74.836 440.737 74.6613C439.025 74.312 437.592 75.7095 436.335 76.6178C435.845 76.9672 435.321 77.2817 434.727 77.4214C433.365 77.7009 433.295 77.2467 432.736 76.1287C432.456 75.5697 432.317 75.1505 431.723 74.871C430.5 74.277 429.102 75.1854 428.194 75.989C426.832 77.2118 426.273 77.7708 424.526 76.3383C424.071 75.954 423.862 75.5697 423.163 75.4998C421.696 75.3252 420.508 76.8624 419.844 77.9804C419.46 78.5743 420.368 79.0984 420.717 78.5045Z" fill="#185FA1"/>
<path d="M73.8582 321.705C73.963 321.006 74.6617 320.377 75.3954 320.412C75.9894 320.447 76.4086 321.146 76.7231 321.565C77.0026 321.984 77.2122 322.473 77.6664 322.753C78.6796 323.312 79.3783 322.473 79.9722 321.705C80.4963 321.041 81.0902 319.888 81.9287 319.504C83.5359 318.805 84.0599 320.482 84.8635 321.251C85.5972 321.949 86.8549 322.438 87.6934 321.635C88.1826 321.181 88.1826 320.447 88.6367 319.993C89.4403 319.154 90.9776 319.294 91.6414 320.202C92.2702 321.041 92.3751 322.438 93.7027 322.543C94.9604 322.648 95.3447 321.285 95.9387 320.482C98.0349 317.582 100.97 321.111 102.123 322.928C102.472 323.487 103.38 322.962 103.031 322.403C101.948 320.726 100.69 318.84 98.5939 318.456C96.9169 318.176 95.6941 318.875 94.8207 320.307C94.4713 320.901 94.2267 321.879 93.0738 320.796C92.7594 320.517 92.6895 319.888 92.41 319.539C92.0606 319.084 91.6414 318.77 91.0824 318.56C89.8596 318.141 88.2874 318.525 87.5537 319.643C87.4139 319.853 87.3441 320.272 87.2043 320.447C86.1911 321.635 85.4924 320.412 84.8635 319.643C84.3744 319.049 83.8852 318.49 83.1166 318.316C81.5444 317.966 80.4614 319.294 79.5879 320.377C79.4132 320.622 79.2036 320.901 79.0289 321.146C78.4001 321.914 77.9459 321.914 77.7013 321.181C77.4567 320.901 77.3519 320.482 77.1074 320.167C76.7231 319.713 76.3387 319.469 75.7448 319.364C74.3822 319.119 73.0546 320.028 72.845 321.39C72.7402 322.089 73.7534 322.369 73.8582 321.705Z" fill="#282828"/>
<path d="M95.4492 314.961C95.9034 313.634 97.4057 313.599 98.2792 314.402C98.6285 314.752 98.8382 315.276 99.3273 315.485C100.131 315.87 100.62 315.52 101.109 314.891C101.738 314.088 102.157 312.97 103.485 313.389C104.288 313.634 104.638 314.542 105.302 314.961C106.035 315.485 106.874 315.416 107.573 314.857C108.97 313.704 109.774 312.236 111.905 313.005C112.918 313.389 113.477 314.857 114.63 314.857C115.748 314.857 116.027 313.634 116.586 312.935C117.739 311.572 120.255 311.992 120.884 313.669C121.128 314.298 122.141 314.018 121.897 313.389C121.023 311.118 117.844 310.245 116.027 311.957C115.399 312.551 115.189 313.913 114.036 313.354C113.407 313.04 113.058 312.341 112.359 312.062C110.961 311.503 109.319 311.712 108.166 312.655C107.887 312.865 107.712 313.214 107.468 313.389C106.769 313.948 106.105 314.018 105.371 313.529C104.778 313.11 104.533 312.586 103.799 312.376C102.297 311.957 101.424 312.795 100.515 313.773C99.4321 314.926 99.5369 313.913 98.6984 313.249C98.3141 312.935 97.79 312.76 97.3009 312.76C96.0082 312.69 94.9252 313.459 94.5059 314.682C94.2264 315.311 95.2396 315.59 95.4492 314.961Z" fill="#282828"/>
<path d="M78.9237 230.448C78.8887 228.736 81.5789 230.867 81.9632 231.181C82.3825 231.496 82.8367 231.81 83.3957 231.915C84.4787 232.09 85.3522 231.496 86.1208 230.762C86.5401 230.378 86.9942 229.644 87.5183 229.4C88.811 228.736 89.0556 229.784 89.6495 230.622C90.1736 231.356 90.9422 231.74 91.8506 231.496C92.8288 231.216 93.5625 230.343 94.3311 229.714C94.5407 229.539 94.8202 229.19 95.0997 229.155C96.2177 228.98 96.1129 229.889 96.3575 230.448C96.5322 230.797 96.7069 231.146 97.0912 231.356C98.314 232.09 99.2922 230.727 100.131 230.063C101.913 228.596 104.603 229.12 105.686 231.146C106 231.74 106.909 231.216 106.594 230.622C105.826 229.225 104.428 228.317 102.821 228.212C102.087 228.142 101.319 228.247 100.655 228.526C99.8862 228.841 99.3272 229.819 98.6284 230.063C96.8815 230.692 97.0562 227.827 95.3094 228.002C93.9817 228.107 93.1432 229.574 92.0951 230.168C90.2085 231.251 90.2085 228.072 88.3917 227.967C87.134 227.897 86.2955 229.155 85.4919 229.889C85.2124 230.168 84.898 230.518 84.5137 230.692C83.3607 231.216 82.5572 230.273 81.7187 229.609C81.1946 229.225 80.7404 228.91 80.0766 228.841C78.9586 228.736 77.8057 229.225 77.8406 230.483C77.9105 231.112 78.9586 231.112 78.9237 230.448Z" fill="#185FA1"/>
<path d="M390.916 264.547C391.23 264.058 392.278 264.302 392.698 264.512C393.082 264.687 393.396 264.966 393.781 265.141C394.165 265.315 394.514 265.455 394.934 265.49C395.807 265.525 396.366 265.071 396.855 264.372C397.344 263.673 397.624 262.8 398.602 263.114C399.091 263.254 399.475 263.778 399.895 264.093C400.593 264.582 401.327 264.861 402.166 264.582C403.074 264.267 403.563 263.429 404.332 262.905C406.079 261.682 406.358 263.604 407.756 264.163C408.734 264.547 409.677 264.058 410.551 263.569C412.472 262.486 414.464 262.171 416.245 263.743C416.735 264.197 417.503 263.464 416.979 263.01C416.001 262.171 414.848 261.612 413.555 261.542C411.878 261.472 411.04 262.381 409.572 262.905C407.301 263.743 407.301 261.333 405.45 261.263C404.402 261.228 403.633 262.136 402.934 262.765C402.096 263.534 401.327 263.743 400.349 263.079C399.895 262.765 399.545 262.346 399.021 262.101C398.148 261.717 397.414 261.927 396.75 262.59C396.017 263.359 396.296 263.778 395.003 263.953C393.816 264.128 393.536 263.569 392.523 263.254C391.545 262.94 390.601 263.079 390.007 263.988C389.623 264.582 390.531 265.106 390.916 264.547Z" fill="#185FA1"/>
<path d="M217.242 42.2745L219.967 375.473L362.058 390.182V38.4663L217.242 42.2745Z" fill="white" stroke="black" stroke-width="1.04813" stroke-miterlimit="10"/>
<path d="M219.792 355.35C219.862 362.058 219.897 368.766 219.967 375.474L362.058 390.182C362.232 383.055 362.372 375.963 362.547 368.835C314.962 364.363 267.377 359.857 219.792 355.35Z" fill="white" stroke="black" stroke-width="1.04813" stroke-miterlimit="10"/>
<path d="M285.23 377.325C288.394 377.325 290.959 374.76 290.959 371.595C290.959 368.431 288.394 365.866 285.23 365.866C282.065 365.866 279.5 368.431 279.5 371.595C279.5 374.76 282.065 377.325 285.23 377.325Z" fill="white" stroke="black" stroke-width="1.04813" stroke-miterlimit="10"/>
<path d="M269.648 116.412C267.796 117.006 267.167 118.788 264.756 124.343C261.577 131.68 263.743 126.194 261.193 132.413C260.005 135.348 258.398 139.296 256.581 144.047C254.38 148.065 251.76 153.061 248.895 158.861C248.056 160.538 245.506 165.744 242.047 173.22C238.903 180.103 234.92 189.152 230.553 199.982C229.574 200.681 228.177 201.834 226.919 203.581C225.836 205.083 225.976 205.502 224.474 208.367C222.447 212.21 221.539 212.804 221.679 214.551C221.713 214.831 221.923 217.241 223.67 217.905C225.137 218.464 226.64 217.416 226.814 217.276C227.408 217.451 228.002 217.661 228.596 217.835C229.015 217.765 229.609 217.661 230.343 217.591C230.972 217.521 231.985 217.416 233.243 217.416C234.85 217.416 235.094 217.556 235.863 217.346C236.422 217.172 237.191 216.962 237.575 216.298C237.89 215.704 237.575 215.285 237.365 213.433C237.296 212.665 237.191 211.966 237.261 211.057C237.365 209.8 237.645 209.52 237.82 208.332C237.89 207.703 237.959 206.795 237.715 205.607C239.811 202.463 242.711 198.026 246.1 192.645C250.432 185.763 253.472 180.941 257.175 174.338C259.97 169.342 263.569 162.949 267.412 154.109C269.648 149.043 268.39 151.349 272.373 141.567C272.373 141.567 276.321 131.959 277.054 123.993C277.124 123.085 277.229 121.338 276.356 119.556C276.146 119.102 275.727 118.298 274.888 117.6C273.491 116.342 271.29 115.853 269.648 116.412Z" fill="white"/>
<path d="M192.156 252.493C192.086 254.31 191.946 257.175 191.492 260.599C189.99 271.709 186.496 280.199 183.981 286.208C183.107 288.304 181.815 291.239 180.033 294.733C180.697 295.047 181.71 295.606 182.688 296.585C183.422 297.318 183.876 298.052 184.19 298.646C185.518 298.681 186.985 298.646 188.557 298.506C191.143 298.296 193.449 297.877 195.44 297.388C196.593 298.995 197.746 300.602 198.899 302.244C199.703 303.327 200.471 304.445 201.275 305.529C204.209 305.563 208.367 305.529 213.328 305.144C217.625 304.83 221.049 304.55 224.962 303.677C228.631 302.838 234.116 301.161 240.335 297.458C240.3 296.27 240.265 294.628 240.265 292.672C240.265 291.169 240.3 285.998 240.964 278.836C241.418 274.015 242.221 267.726 243.724 260.25C242.012 259.271 240.335 258.328 238.623 257.35C238.728 257.175 239.985 255.463 239.496 254.799C239.077 254.24 237.47 254.52 235.548 255.673C234.78 255.253 234.011 254.799 233.208 254.38C232.823 253.192 232.474 252.004 232.09 250.816C230.622 250.991 228.456 251.236 225.801 251.515C220.351 252.109 217.591 252.424 216.682 252.493C212.525 252.738 209.171 252.493 204.699 252.179C201.973 252.004 199.598 251.725 196.034 252.004C194.427 252.144 193.064 252.354 192.156 252.493Z" fill="white"/>
<path d="M269.054 116.237C262.485 125.286 259.621 136.186 255.044 146.248C252.563 151.734 249.244 156.8 246.519 162.145C243.654 167.735 241.313 173.57 238.868 179.334C235.968 186.147 233.033 192.925 230.133 199.738C229.854 200.367 230.762 200.891 231.042 200.262C236.073 188.523 240.789 176.574 246.274 165.045C248.895 159.525 252.249 154.389 254.939 148.904C257.315 144.047 259.166 138.981 261.158 133.95C263.534 127.941 266.154 122.002 269.962 116.761C270.346 116.237 269.438 115.713 269.054 116.237Z" fill="#161616"/>
<path d="M269.787 116.901C273.421 115.398 276.286 119.102 276.565 122.351C276.845 125.775 275.587 129.373 274.678 132.623C272.897 138.981 270.661 145.2 268.075 151.244C262.904 163.472 256.371 175.072 249.384 186.357C245.436 192.75 241.313 199.004 237.191 205.258C236.806 205.817 237.715 206.341 238.099 205.782C253.995 181.745 270.311 156.485 276.949 128.046C277.718 124.797 278.312 120.884 276.111 118.019C274.574 116.027 271.953 114.839 269.508 115.818C268.914 116.167 269.158 117.18 269.787 116.901Z" fill="#161616"/>
<path d="M229.12 205.712C230.203 207.074 229.12 208.472 229.784 209.904C230.028 210.428 230.762 211.057 230.867 211.616C230.238 213.223 229.539 213.573 228.735 212.664C228.526 212.455 228.316 212.245 228.107 212.036C227.652 211.546 226.884 212.28 227.373 212.769C228.176 213.608 229.155 214.516 230.412 214.376C231.286 214.306 232.054 213.713 232.194 212.839C232.474 211.127 230.657 210.009 230.657 208.332C230.657 206.935 230.867 206.166 229.923 204.978C229.434 204.454 228.7 205.188 229.12 205.712Z" fill="#161616"/>
<path d="M230.273 199.738C228.701 200.017 227.723 201.17 226.919 202.498C225.522 204.838 224.404 207.389 223.146 209.8C222.307 211.442 220.875 213.398 221.189 215.355C221.434 216.892 222.517 217.975 223.914 218.464C224.543 218.674 224.823 217.661 224.194 217.451C219.897 215.949 224.089 210.289 225.312 207.878C226.43 205.712 227.793 201.275 230.518 200.751C231.216 200.646 230.937 199.633 230.273 199.738Z" fill="#161616"/>
<path d="M237.19 206.062C238.169 207.774 236.736 209.555 236.771 211.337C236.806 213.049 238.518 215.215 236.981 216.648C236.492 217.102 237.225 217.836 237.714 217.381C239.287 215.914 238.413 214.132 237.994 212.35C237.435 209.975 239.391 207.774 238.099 205.503C237.749 204.944 236.841 205.468 237.19 206.062Z" fill="#161616"/>
<path d="M223.565 218.394C226.185 218.988 228.072 217.032 229.399 215.005C229.783 214.446 228.875 213.922 228.491 214.481C227.443 216.053 225.975 217.87 223.844 217.381C223.18 217.241 222.901 218.254 223.565 218.394Z" fill="#161616"/>
<path d="M225.172 215.495C226.045 214.377 227.583 214.062 228.805 214.831C229.399 215.18 229.923 214.272 229.329 213.923C227.757 212.944 225.591 213.294 224.438 214.761C224.019 215.285 224.753 216.019 225.172 215.495Z" fill="#161616"/>
<path d="M226.464 217.626C228.875 219.582 231.321 217.241 232.753 215.32C233.172 214.796 232.264 214.272 231.845 214.796C230.867 216.088 229.015 218.324 227.233 216.892C226.674 216.473 225.94 217.206 226.464 217.626Z" fill="#161616"/>
<path d="M230.867 214.202C231.251 214.062 231.74 214.307 231.74 214.761C231.74 215.425 232.788 215.425 232.788 214.761C232.788 213.678 231.6 212.77 230.587 213.189C230.308 213.294 230.133 213.538 230.238 213.818C230.308 214.062 230.587 214.307 230.867 214.202Z" fill="#161616"/>
<path d="M230.098 218.045C232.195 218.953 234.57 217.87 235.025 215.564C235.164 214.901 234.151 214.621 234.011 215.285C233.697 216.857 232.16 217.8 230.622 217.137C229.994 216.892 229.469 217.765 230.098 218.045Z" fill="#161616"/>
<path d="M232.824 214.796C233.208 214.446 233.872 214.761 233.942 215.25C234.047 215.914 235.06 215.634 234.955 214.97C234.71 213.678 232.998 213.224 232.055 214.062C231.601 214.481 232.335 215.215 232.824 214.796Z" fill="#161616"/>
<path d="M233.417 217.765C234.675 218.674 236.631 218.185 237.295 216.787C237.575 216.193 236.666 215.634 236.387 216.263C235.933 217.171 234.78 217.486 233.941 216.892C233.382 216.438 232.858 217.346 233.417 217.765Z" fill="#161616"/>
<path d="M234.885 215.879C235.164 215.355 235.444 214.726 235.968 214.411C236.422 214.132 237.016 214.167 237.26 214.691C237.784 215.774 236.597 216.543 235.723 216.822C235.094 216.997 235.339 218.01 236.003 217.835C237.61 217.381 239.182 215.739 238.099 214.027C237.68 213.328 236.876 213.049 236.072 213.259C235.024 213.538 234.465 214.481 233.976 215.355C233.697 215.949 234.57 216.473 234.885 215.879Z" fill="#161616"/>
<path d="M226.919 212.839C220.246 216.298 217.416 224.019 214.411 230.413C210.288 239.112 206.201 247.846 202.078 256.546C201.799 257.14 202.707 257.699 202.987 257.07C206.9 248.79 210.813 240.475 214.726 232.194C217.8 225.661 220.63 217.276 227.443 213.747C228.037 213.433 227.513 212.525 226.919 212.839Z" fill="#161616"/>
<path d="M236.911 217.346C237.61 229.958 238.274 242.606 238.972 255.218C239.007 255.882 240.055 255.882 240.02 255.218C239.322 242.606 238.658 229.958 237.959 217.346C237.924 216.682 236.876 216.682 236.911 217.346Z" fill="#161616"/>
<path d="M202.183 257.49C203.127 258.712 203.756 260.075 204.105 261.577C204.175 261.892 204.594 262.066 204.874 261.892C206.061 261.123 207.284 260.32 208.472 259.551C209.031 259.167 208.507 258.258 207.948 258.643C206.76 259.411 205.537 260.215 204.349 260.983C204.594 261.088 204.874 261.193 205.118 261.298C204.734 259.621 204 258.119 202.952 256.756C202.533 256.197 201.764 256.966 202.183 257.49Z" fill="#161616"/>
<path d="M208.472 259.83C219.652 264.093 231.845 262.695 243.27 260.215C243.934 260.075 243.654 259.062 242.99 259.201C231.741 261.647 219.757 263.045 208.752 258.817C208.123 258.573 207.843 259.586 208.472 259.83Z" fill="#161616"/>
<path d="M202.358 257.489C214.341 259.446 226.604 258.887 238.378 255.777C239.042 255.603 238.762 254.59 238.099 254.764C226.534 257.839 214.446 258.433 202.637 256.476C201.973 256.371 201.694 257.385 202.358 257.489Z" fill="#161616"/>
<path d="M239.042 255.253C238.728 255.847 238.413 256.476 238.099 257.07C237.959 257.349 238.064 257.768 238.413 257.838C240.195 258.118 241.802 258.782 243.27 259.865C243.829 260.249 244.353 259.341 243.794 258.956C242.291 257.838 240.545 257.105 238.693 256.825C238.798 257.07 238.903 257.349 239.007 257.594C239.322 257 239.636 256.371 239.951 255.777C240.265 255.183 239.357 254.659 239.042 255.253Z" fill="#161616"/>
<path d="M202.113 257.594C201.799 271.29 199.283 284.845 194.707 297.772C194.497 298.401 195.51 298.681 195.72 298.052C200.332 285.055 202.847 271.394 203.161 257.594C203.196 256.93 202.148 256.93 202.113 257.594Z" fill="#161616"/>
<path d="M207.668 261.367C207.109 276.146 204.768 290.819 200.751 305.039C200.576 305.703 201.589 305.982 201.764 305.318C205.817 290.994 208.157 276.25 208.716 261.367C208.716 260.703 207.668 260.703 207.668 261.367Z" fill="#161616"/>
<path d="M194.741 298.332C196.977 300.638 199.004 303.118 200.821 305.773C201.205 306.332 202.113 305.808 201.729 305.249C199.877 302.524 197.816 299.974 195.51 297.598C194.986 297.109 194.252 297.877 194.741 298.332Z" fill="#161616"/>
<path d="M201.764 305.983C215.04 305.843 229.12 305.494 240.579 297.912C241.138 297.528 240.614 296.62 240.055 297.004C228.736 304.481 214.9 304.795 201.799 304.935C201.065 304.935 201.065 305.983 201.764 305.983Z" fill="#161616"/>
<path d="M243.165 260.11C240.719 272.163 239.566 284.391 239.671 296.689C239.671 297.353 240.719 297.353 240.719 296.689C240.579 284.496 241.732 272.338 244.143 260.389C244.318 259.725 243.305 259.446 243.165 260.11Z" fill="#161616"/>
<path d="M236.597 216.613C238.798 231.112 241.034 245.576 243.235 260.075C243.34 260.739 244.353 260.459 244.248 259.795C242.047 245.296 239.811 230.832 237.61 216.333C237.505 215.669 236.492 215.949 236.597 216.613Z" fill="#161616"/>
<path d="M223.74 215.809C217.171 229.434 212.036 243.724 208.332 258.397C208.157 259.061 209.171 259.341 209.345 258.677C213.014 244.073 218.115 229.888 224.648 216.333C224.962 215.739 224.054 215.215 223.74 215.809Z" fill="#161616"/>
<path d="M221.993 215.25C211.686 226.989 201.729 239.043 192.121 251.376C191.702 251.9 192.436 252.633 192.855 252.109C202.463 239.776 212.42 227.758 222.727 215.984C223.181 215.495 222.447 214.761 221.993 215.25Z" fill="#161616"/>
<path d="M192.191 252.458C194.043 253.087 195.895 253.541 197.816 253.821C197.746 253.541 197.676 253.227 197.572 252.947C196.488 254.17 195.405 255.358 194.357 256.581C193.903 257.07 194.637 257.838 195.091 257.314C196.174 256.092 197.257 254.904 198.305 253.681C198.55 253.401 198.48 252.877 198.061 252.807C196.139 252.493 194.287 252.039 192.436 251.445C191.842 251.235 191.562 252.248 192.191 252.458Z" fill="#161616"/>
<path d="M195.021 257.315C197.082 257.559 199.143 257.839 201.205 258.083C201.869 258.153 201.869 257.105 201.205 257.035C199.143 256.791 197.082 256.511 195.021 256.267C194.357 256.162 194.357 257.21 195.021 257.315Z" fill="#161616"/>
<path d="M192.296 252.179C190.444 266.678 186.287 280.793 179.963 293.999C179.683 294.593 180.592 295.152 180.871 294.523C187.265 281.177 191.492 266.888 193.344 252.179C193.414 251.515 192.366 251.515 192.296 252.179Z" fill="#161616"/>
<path d="M194.217 257.524C193.868 261.437 192.995 265.245 191.632 268.914C191.387 269.543 192.401 269.822 192.645 269.193C194.043 265.42 194.916 261.507 195.266 257.524C195.3 256.86 194.252 256.86 194.217 257.524Z" fill="#161616"/>
<path d="M180.313 295.536C181.71 296.305 182.583 297.213 183.492 298.471C184.051 299.275 184.051 299.205 185.204 299.205C188.034 299.205 190.829 298.89 193.589 298.296C194.253 298.157 193.973 297.143 193.309 297.283C191.842 297.598 190.34 297.842 188.837 297.982C187.719 298.087 185.903 298.506 184.854 298.157C184.086 297.877 183.632 296.794 183.038 296.235C182.374 295.606 181.64 295.082 180.837 294.663C180.243 294.279 179.719 295.187 180.313 295.536Z" fill="#161616"/>
<path d="M193.449 252.668C196.768 252.458 200.122 252.423 203.441 252.633C206.62 252.807 209.8 253.297 213.014 253.401C219.408 253.646 225.906 252.179 232.195 251.34C232.859 251.235 232.579 250.222 231.915 250.327C225.452 251.2 218.849 252.668 212.315 252.318C205.992 252.004 199.808 251.235 193.449 251.62C192.785 251.689 192.785 252.738 193.449 252.668Z" fill="#161616"/>
<path d="M231.565 250.816C231.496 251.34 230.832 251.76 230.587 252.214C230.343 252.633 230.343 253.157 230.587 253.541C230.902 254.03 231.565 254.24 232.09 254.45C233.033 254.834 233.976 255.218 234.954 255.568C235.583 255.812 235.863 254.799 235.234 254.555C234.57 254.31 233.906 254.065 233.277 253.821C232.928 253.681 231.426 253.332 231.496 252.738C231.531 252.458 232.02 252.109 232.194 251.864C232.439 251.515 232.579 251.235 232.614 250.816C232.683 250.152 231.635 250.152 231.565 250.816Z" fill="#161616"/>
<path d="M231.706 251.306C232.125 252.214 232.544 253.122 232.963 254.031C233.243 254.66 234.151 254.101 233.872 253.507C233.452 252.598 233.033 251.69 232.614 250.782C232.334 250.153 231.426 250.712 231.706 251.306Z" fill="#161616"/>
<path d="M234.955 217.416C233.942 223.145 232.824 228.875 231.985 234.64C231.601 237.225 231.356 239.811 231.391 242.396C231.461 245.296 231.95 248.126 231.077 250.956C230.867 251.585 231.88 251.864 232.09 251.235C232.859 248.755 232.614 246.239 232.474 243.689C232.334 240.754 232.544 237.819 232.963 234.919C233.802 229.155 234.92 223.425 235.933 217.695C236.073 217.031 235.06 216.752 234.955 217.416Z" fill="#161616"/>
<path d="M235.234 218.22C236.142 230.483 233.976 242.711 234.989 254.939C235.059 255.603 236.107 255.603 236.037 254.939C235.024 242.711 237.19 230.448 236.282 218.22C236.247 217.556 235.199 217.556 235.234 218.22Z" fill="#161616"/>
<path d="M253.995 369.953C253.925 371.735 253.856 373.516 253.786 375.298C249.034 377.918 245.086 380.364 241.942 382.46C239.461 384.102 235.933 386.443 231.495 389.972C228.91 392.033 226.814 393.885 225.242 395.282C225.766 395.737 226.604 396.366 227.722 396.645C229.958 397.204 231.95 396.121 232.614 395.772C236.002 394.06 233.836 396.365 246.414 391.509C251.095 389.692 257.594 386.967 265.42 383.089C265.245 381.098 265.07 379.141 264.896 377.15C264.581 373.691 264.267 370.232 263.987 366.773C260.633 367.857 257.314 368.905 253.995 369.953Z" fill="#161616"/>
<path d="M269.682 190.689C269.019 193.973 268.075 198.759 266.957 204.559C259.97 240.929 254.03 272.023 250.676 305.773C249.139 321.25 247.602 342.562 247.672 368.276C249.104 368.765 251.27 369.429 253.995 369.953C257.769 370.687 261.227 371.351 265.385 370.477C266.887 370.163 269.158 369.499 271.779 367.962C273.036 349.689 274.643 334.142 276.111 322.089C278.032 306.157 280.268 287.92 285.16 264.407C288.269 249.523 291.204 238.448 292.497 233.732C295.257 223.6 298.017 214.761 300.392 207.494C303.991 201.03 305.249 193.554 302.104 188.872C297.423 182.059 282.574 180.277 269.682 190.689Z" fill="white"/>
<path d="M269.193 190.549C264.686 213.538 260.179 236.527 256.441 259.62C252.737 282.504 249.733 305.528 248.196 328.657C247.322 341.828 246.938 355.035 247.147 368.276C247.147 368.94 248.196 368.94 248.196 368.276C247.811 345.043 249.314 321.809 251.969 298.75C254.659 275.552 258.502 252.493 262.73 229.539C265.105 216.612 267.656 203.72 270.171 190.828C270.311 190.165 269.298 189.885 269.193 190.549Z" fill="#161616"/>
<path d="M292.846 230.937C286.942 247.707 284.357 265.42 281.492 282.889C278.557 300.882 275.692 318.909 273.701 337.007C272.548 347.279 271.709 357.62 271.22 367.962C271.185 368.625 272.233 368.625 272.268 367.962C273.107 349.619 275.203 331.347 277.823 313.18C280.374 295.431 283.099 277.648 286.418 260.005C288.27 250.257 290.541 240.545 293.825 231.181C294.069 230.587 293.056 230.308 292.846 230.937Z" fill="#161616"/>
<path d="M248.231 368.94C252.214 370.373 256.476 370.897 260.669 371.281C264.826 371.665 268.285 370.198 271.919 368.346C272.513 368.032 271.988 367.123 271.395 367.438C267.656 369.359 264.267 370.617 260.005 370.163C256.092 369.744 252.214 369.255 248.51 367.927C247.882 367.682 247.602 368.696 248.231 368.94Z" fill="#161616"/>
<path d="M253.472 369.953C253.472 371.525 254.065 374.355 252.808 375.543C251.725 376.521 249.838 377.15 248.545 377.849C245.68 379.456 242.851 381.203 240.125 383.055C234.78 386.653 229.714 390.636 224.928 394.933C224.753 395.073 224.718 395.387 224.858 395.562C226.185 397.658 228.841 397.309 230.972 396.785C234.99 395.807 238.972 394.619 242.885 393.326C250.502 390.811 257.909 387.771 265.071 384.242C265.665 383.928 265.141 383.054 264.547 383.334C258.223 386.443 251.725 389.169 245.087 391.474C241.907 392.592 238.658 393.606 235.409 394.514C233.732 395.003 232.055 395.457 230.343 395.842C228.841 396.191 226.744 396.575 225.731 395.038C225.696 395.248 225.661 395.457 225.661 395.667C231.077 390.776 236.841 386.339 242.99 382.426C245.96 380.539 248.965 378.757 252.074 377.115C253.052 376.591 254.17 376.172 254.485 374.984C254.904 373.447 254.555 371.49 254.555 369.953C254.52 369.289 253.472 369.289 253.472 369.953Z" fill="#161616"/>
<path d="M263.848 371.596C264.197 375.439 264.547 379.282 264.896 383.125C264.966 383.789 266.014 383.789 265.944 383.125C265.595 379.282 265.246 375.439 264.896 371.596C264.826 370.932 263.778 370.897 263.848 371.596Z" fill="#161616"/>
<path d="M350.214 353.777C351.366 355.419 352.519 357.062 353.672 358.669C351.366 362.058 349.026 365.796 346.72 369.884C343.715 375.194 341.27 380.295 339.243 384.977C339.627 385.326 340.221 385.71 340.99 385.815C343.121 386.06 344.868 383.649 346.44 381.693C351.087 375.893 350.947 377.954 356.397 371.141C357.935 369.22 359.856 366.634 361.953 363.455C361.743 358.739 361.498 353.987 361.289 349.271C360.415 350.179 358.913 351.507 356.677 352.485C353.952 353.708 351.541 353.812 350.214 353.777Z" fill="#161616"/>
<path d="M285.265 191.248C282.505 194.322 281.037 198.724 280.967 198.899C278.277 207.179 281.212 214.411 282.19 216.543C284.112 216.752 287.012 217.416 289.108 219.652C290.89 221.539 291.204 223.635 292.043 227.024C292.986 230.797 294.523 234.361 295.501 238.134C296.27 241.104 298.89 249.279 304.096 265.595C304.096 265.595 309.476 282.505 314.962 297.493C319.923 311.083 327.819 330.544 340.256 354.616C342.178 355.07 344.763 355.419 347.768 355.07C355.559 354.161 360.485 349.165 362.092 347.418C361.988 341.269 361.883 335.086 361.778 328.937C360.485 325.687 358.634 321.041 356.502 315.486C351.297 301.93 343.715 282.12 335.819 256.651C330.928 240.824 327.854 230.797 324.919 216.298C322.718 205.398 321.425 196.174 320.656 189.536C306.018 183.387 291.693 184.121 285.265 191.248Z" fill="white"/>
<path d="M282.051 217.066C284.252 217.521 286.732 218.01 288.374 219.687C290.191 221.538 290.715 224.578 291.449 226.989C292.916 231.67 294.384 236.352 295.816 241.068C298.716 250.467 301.651 259.865 304.655 269.228C310.699 287.92 317.233 306.506 325.094 324.499C329.531 334.631 334.387 344.588 339.802 354.231C340.117 354.825 341.025 354.301 340.711 353.707C320.726 318.141 308.638 278.976 296.62 240.195C294.908 234.675 293.231 229.19 291.484 223.67C290.82 221.608 290.086 219.652 288.304 218.289C286.558 216.997 284.357 216.507 282.26 216.053C281.666 215.913 281.387 216.927 282.051 217.066Z" fill="#161616"/>
<path d="M319.608 191.527C322.997 210.254 326.875 228.771 332.326 247.043C337.636 264.896 343.61 282.539 350.074 299.973C353.672 309.721 357.446 319.433 361.289 329.111C361.533 329.74 362.547 329.46 362.302 328.832C355.489 311.747 348.991 294.523 343.051 277.089C336.972 259.236 331.138 241.173 326.875 222.796C324.465 212.35 322.508 201.799 320.622 191.248C320.482 190.584 319.469 190.863 319.608 191.527Z" fill="#161616"/>
<path d="M340.116 355.174C347.733 357.131 355.349 354.126 361.533 349.759C362.092 349.375 361.568 348.466 361.009 348.851C355.035 353.078 347.733 356.083 340.396 354.161C339.732 353.986 339.453 355 340.116 355.174Z" fill="#161616"/>
<path d="M350.563 355.28C351.471 356.502 352.345 357.725 353.253 358.948C353.638 359.472 354.546 358.948 354.162 358.424C353.253 357.201 352.38 355.978 351.471 354.756C351.052 354.197 350.144 354.721 350.563 355.28Z" fill="#161616"/>
<path d="M353.603 358.983C349.829 363.735 346.615 368.87 343.715 374.216C342.248 376.941 340.85 379.701 339.453 382.461C338.754 383.859 338.021 385.431 339.977 386.199C342.038 387.003 343.75 384.907 345.113 383.684C347.384 381.657 349.55 379.561 351.646 377.36C355.664 373.168 359.298 368.626 362.407 363.735C362.756 363.176 361.848 362.651 361.499 363.21C358.843 367.368 355.839 371.246 352.52 374.88C350.982 376.592 349.34 378.234 347.698 379.841C346.825 380.679 345.916 381.518 345.043 382.356C344.1 383.195 343.086 384.383 341.968 384.942C340.99 385.431 339.907 385.466 339.802 384.033C339.767 383.649 340.431 382.845 340.606 382.461C341.165 381.343 341.724 380.26 342.283 379.142C343.401 376.941 344.554 374.775 345.777 372.609C348.327 368.137 351.122 363.804 354.301 359.752C354.756 359.193 354.022 358.459 353.603 358.983Z" fill="#161616"/>
<path d="M277.299 108.9C273.456 111.206 270.87 114.001 269.263 115.992C266.154 126.858 265.769 135.592 265.979 141.497C266.328 151.454 268.425 156.275 269.473 168.433C270.311 178.111 269.892 186.007 269.473 191.038C273.246 192.575 277.648 194.008 282.644 194.951C299.17 198.095 313.145 194.322 321.005 191.457C318.979 181.011 318.42 172.521 318.28 166.826C317.896 152.607 319.713 144.99 318.21 128.954C317.302 119.137 316.778 114.176 313.878 110.856C306.122 101.912 288.653 102.017 277.299 108.9Z" fill="#282828"/>
<path d="M310.455 113.093C308.743 115.363 308.708 118.054 308.778 120.045C308.953 126.054 309.826 129.967 309.826 129.967C312.341 141.217 311.328 138.841 312.831 144.571C316.464 158.406 323.102 174.827 324.814 179.02C331.313 195.091 336.448 207.529 339.663 215.355C338.964 216.542 338.055 218.324 337.252 220.525C336.134 223.705 335.575 225.347 336.344 226.709C337.462 228.631 340.466 228.736 341.235 228.771C341.969 229.819 342.667 230.867 343.401 231.915C343.611 232.09 344.659 232.858 346.161 232.684C347.943 232.474 348.851 231.042 348.956 230.867C350.004 230.133 351.052 229.365 352.1 228.631C352.694 228.247 353.358 227.792 354.057 227.233C354.965 226.5 355.699 225.731 356.258 225.067C356.607 224.368 357.062 223.216 356.957 221.783C356.887 220.735 356.537 219.372 354.756 217.276C352.275 214.341 349.201 212.56 346.825 211.477C342.423 198.864 339.488 188.453 337.636 181.256C327.819 143.383 326.875 138.946 326.875 138.946C323.521 123.609 325.233 134.23 322.019 124.342C320.727 120.394 319.469 116.377 315.695 113.686C314.228 112.638 312.796 112.044 311.783 111.73C311.363 112.079 310.909 112.499 310.455 113.093Z" fill="white"/>
<path d="M348.048 251.096C342.283 255.358 335.296 259.83 326.98 263.778C323.591 265.385 320.272 266.783 317.128 267.971C316.324 271.709 315.451 275.866 314.682 279.57C311.363 295.257 307.974 310.944 304.585 326.631C305.948 327.609 307.59 328.622 309.512 329.461C316.604 332.535 323.347 331.731 326.736 331.033C328.518 331.522 330.893 331.976 333.723 332.011C335.715 332.011 337.427 331.801 338.859 331.522C341.165 330.544 343.611 329.356 346.126 327.923C353.009 323.975 358.145 319.364 361.848 315.416C361.883 297.108 361.918 278.836 361.988 260.529C361.254 260.075 360.555 259.586 359.822 259.131C359.577 258.677 359.228 257.978 358.843 257.14C358.249 255.847 358.145 255.428 357.83 255.358C356.992 255.218 356.258 257.874 355.524 257.769C355.14 257.734 354.686 256.895 354.406 253.157C352.31 252.493 350.179 251.794 348.048 251.096Z" fill="white"/>
<path d="M311.572 112.289C314.786 112.778 316.743 115.434 318.245 118.089C319.957 121.059 321.39 124.238 322.647 127.417C325.163 133.811 326.665 140.519 328.237 147.192C331.522 161.027 335.12 174.758 339.033 188.418C341.269 196.174 343.575 203.895 345.986 211.617C346.195 212.246 347.208 212.001 346.999 211.337C342.492 197.013 338.334 182.619 334.526 168.085C332.605 160.818 330.788 153.551 329.076 146.249C327.434 139.261 325.792 132.309 323.032 125.67C321.704 122.456 320.237 119.172 318.315 116.237C316.778 113.862 314.752 111.73 311.817 111.276C311.188 111.171 310.908 112.185 311.572 112.289Z" fill="#161616"/>
<path d="M311.119 111.73C306.577 115.469 308.359 123.19 309.023 128.151C309.966 135.243 311.538 142.266 313.495 149.113C317.617 163.543 323.487 177.413 329.286 191.248C332.605 199.144 335.889 207.04 338.859 215.041C339.104 215.669 340.117 215.39 339.872 214.761C329.985 188.034 316.22 162.46 311.014 134.16C310.28 130.107 309.721 126.055 309.372 121.967C309.092 118.648 309.023 114.77 311.818 112.499C312.377 112.045 311.608 111.311 311.119 111.73Z" fill="#161616"/>
<path d="M339.173 215.11C338.3 216.997 337.426 218.919 336.553 220.805C335.924 222.133 335.225 223.565 335.26 225.068C335.365 228.142 338.719 228.596 341.06 229.295C341.723 229.47 342.003 228.457 341.339 228.282C340.291 227.967 339.173 227.723 338.125 227.339C336.168 226.57 336.064 224.858 336.658 223.111C337.531 220.561 338.928 218.08 340.046 215.634C340.361 215.041 339.453 214.516 339.173 215.11Z" fill="#161616"/>
<path d="M346.894 211.931C350.598 214.656 357.445 218.15 356.258 223.74C356.118 224.404 357.131 224.684 357.271 224.02C358.563 217.801 351.611 214.097 347.418 211.023C346.894 210.604 346.37 211.512 346.894 211.931Z" fill="#161616"/>
<path d="M340.606 225.871C341.444 226.011 342.318 226.186 343.156 226.326C343.82 226.43 344.099 225.417 343.436 225.312C342.597 225.173 341.724 224.998 340.885 224.858C340.221 224.753 339.942 225.767 340.606 225.871Z" fill="#161616"/>
<path d="M342.143 226.116C342.457 227.967 343.401 229.609 344.833 230.867C345.357 231.321 346.091 230.553 345.567 230.133C344.274 229.015 343.436 227.548 343.156 225.871C343.051 225.172 342.038 225.452 342.143 226.116Z" fill="#161616"/>
<path d="M343.995 232.894C347.768 234.815 350.982 229.225 349.305 226.116C348.991 225.522 348.082 226.046 348.397 226.64C349.55 228.806 347.279 233.383 344.519 231.985C343.925 231.706 343.401 232.614 343.995 232.894Z" fill="#161616"/>
<path d="M349.026 231.391C351.786 230.867 353.358 228.072 352.345 225.417C352.1 224.788 351.087 225.068 351.331 225.696C352.17 227.828 351.017 229.959 348.746 230.378C348.117 230.518 348.397 231.496 349.026 231.391Z" fill="#161616"/>
<path d="M352.031 229.155C352.939 229.19 353.708 228.701 354.197 227.967C354.826 226.989 354.756 225.766 354.651 224.648C354.581 223.984 353.533 223.984 353.603 224.648C353.708 225.836 353.847 228.177 352.031 228.107C351.367 228.072 351.367 229.12 352.031 229.155Z" fill="#161616"/>
<path d="M354.72 227.164C356.083 226.43 357.026 225.103 357.306 223.565C357.411 222.902 356.397 222.622 356.293 223.286C356.083 224.578 355.349 225.627 354.196 226.255C353.602 226.57 354.126 227.478 354.72 227.164Z" fill="#161616"/>
<path d="M344.134 229.295C334.631 240.789 328.552 254.764 326.631 269.543C326.526 270.207 327.609 270.207 327.679 269.543C329.565 255.079 335.575 241.278 344.903 230.029C345.322 229.539 344.554 228.771 344.134 229.295Z" fill="#161616"/>
<path d="M343.331 228.701C332.151 239.671 323.172 252.738 316.953 267.132C316.674 267.761 317.582 268.285 317.862 267.656C324.045 253.367 332.955 240.37 344.065 229.435C344.554 228.981 343.785 228.212 343.331 228.701Z" fill="#161616"/>
<path d="M316.708 267.866C317.826 268.809 319.224 270.591 320.796 270.731C321.53 270.801 322.229 270.521 322.892 270.312C324.15 269.927 325.408 269.508 326.666 269.124C327.294 268.914 327.05 267.901 326.386 268.111C324.989 268.565 323.416 269.264 321.984 269.473C319.993 269.788 318.84 268.32 317.442 267.097C316.953 266.678 316.184 267.447 316.708 267.866Z" fill="#161616"/>
<path d="M316.604 267.831C312.481 287.291 308.358 306.751 304.236 326.211C304.096 326.875 305.109 327.155 305.249 326.491C309.372 307.031 313.494 287.57 317.617 268.11C317.757 267.446 316.743 267.167 316.604 267.831Z" fill="#161616"/>
<path d="M304.201 327.015C307.17 329.566 310.909 330.544 314.612 331.452C318.735 332.465 322.753 332.64 326.875 331.522C327.539 331.347 327.26 330.334 326.596 330.509C322.648 331.592 318.84 331.417 314.892 330.439C311.363 329.566 307.764 328.692 304.934 326.246C304.41 325.827 303.677 326.561 304.201 327.015Z" fill="#161616"/>
<path d="M326.421 269.578C325.268 289.877 325.164 310.21 326.107 330.544C326.142 331.208 327.19 331.208 327.155 330.544C326.212 310.245 326.352 289.877 327.47 269.578C327.539 268.914 326.491 268.914 326.421 269.578Z" fill="#161616"/>
<path d="M342.877 231.811C338.579 245.262 334.317 258.678 330.02 272.129C329.81 272.757 330.823 273.037 331.033 272.408C335.33 258.957 339.592 245.541 343.89 232.09C344.064 231.426 343.051 231.147 342.877 231.811Z" fill="#161616"/>
<path d="M329.705 273.316C330.404 274.189 331.417 276.286 332.71 276.286C333.339 276.286 334.037 275.831 334.561 275.587C335.644 275.098 336.728 274.609 337.811 274.084C338.439 273.805 337.88 272.897 337.287 273.176C336.134 273.7 334.736 274.643 333.513 274.923C332.325 275.202 332.29 274.888 331.731 274.154C331.312 273.63 330.893 273.106 330.474 272.582C330.054 272.058 329.321 272.792 329.705 273.316Z" fill="#161616"/>
<path d="M329.495 273.456C329.286 286.802 328.203 300.148 326.211 313.354C326.106 314.018 327.12 314.298 327.224 313.634C329.216 300.323 330.334 286.907 330.543 273.456C330.578 272.792 329.53 272.792 329.495 273.456Z" fill="#161616"/>
<path d="M326.805 330.579C330.404 332.361 334.282 332.92 338.23 332.186C338.894 332.081 338.614 331.068 337.95 331.173C334.317 331.837 330.648 331.313 327.329 329.67C326.735 329.391 326.211 330.299 326.805 330.579Z" fill="#161616"/>
<path d="M337.007 273.945C339.208 293.056 339.663 312.307 338.335 331.487C338.3 332.151 339.348 332.151 339.383 331.487C340.711 312.307 340.256 293.056 338.055 273.945C337.985 273.281 336.937 273.281 337.007 273.945Z" fill="#161616"/>
<path d="M331.417 274.154C341.06 269.088 350.004 262.904 358.179 255.707C358.703 255.253 357.935 254.519 357.446 254.973C349.34 262.101 340.431 268.215 330.893 273.246C330.299 273.56 330.823 274.469 331.417 274.154Z" fill="#161616"/>
<path d="M337.462 274.399C346.266 272.023 354.302 267.411 360.87 261.053C361.359 260.599 360.625 259.83 360.136 260.319C353.708 266.573 345.847 271.045 337.217 273.386C336.518 273.56 336.798 274.574 337.462 274.399Z" fill="#161616"/>
<path d="M352.834 228.421C354.092 237.33 355.349 246.274 356.642 255.183C356.747 255.847 357.76 255.568 357.655 254.904C356.397 245.995 355.14 237.051 353.847 228.142C353.742 227.478 352.729 227.757 352.834 228.421Z" fill="#161616"/>
<path d="M354.266 228.142C356.572 238.868 358.633 249.628 360.485 260.459C360.59 261.123 361.603 260.843 361.498 260.179C359.646 249.349 357.55 238.588 355.279 227.862C355.14 227.233 354.126 227.513 354.266 228.142Z" fill="#161616"/>
<path d="M339.104 332.675C347.628 328.273 354.965 322.019 362.197 315.765C362.721 315.311 361.953 314.577 361.464 315.032C354.302 321.216 347.035 327.399 338.58 331.802C337.986 332.081 338.51 332.989 339.104 332.675Z" fill="#161616"/>
<path d="M357.586 256.057C358.319 258.014 359.298 260.18 361.499 260.809C362.162 260.984 362.442 259.97 361.778 259.796C359.996 259.272 359.228 257.385 358.599 255.778C358.354 255.149 357.341 255.428 357.586 256.057Z" fill="#161616"/>
<path d="M326.701 269.962C337.357 267.097 347.069 261.437 354.79 253.541C355.245 253.052 354.511 252.319 354.057 252.808C346.475 260.599 336.937 266.154 326.421 268.984C325.757 269.159 326.037 270.137 326.701 269.962Z" fill="#161616"/>
<path d="M353.952 253.471C354.126 254.904 354.441 256.301 354.86 257.664C355.07 258.293 356.083 258.048 355.873 257.384C355.454 256.092 355.174 254.799 355 253.471C354.93 252.808 353.882 252.808 353.952 253.471Z" fill="#161616"/>
<path d="M317.267 268.145C319.993 267.761 322.543 266.398 325.024 265.245C327.784 263.953 330.509 262.59 333.164 261.123C338.405 258.258 343.436 255.044 348.292 251.515C348.816 251.131 348.327 250.222 347.768 250.607C343.086 253.995 338.23 257.105 333.199 259.9C330.718 261.262 328.203 262.555 325.652 263.778C322.927 265.071 320.027 266.678 317.023 267.097C316.324 267.237 316.639 268.25 317.267 268.145Z" fill="#161616"/>
<path d="M347.698 251.271C349.515 252.529 351.506 253.262 353.707 253.507C354.371 253.577 354.371 252.529 353.707 252.459C351.716 252.214 349.899 251.48 348.257 250.362C347.663 249.978 347.139 250.886 347.698 251.271Z" fill="#161616"/>
<path d="M348.292 250.712C349.585 244.283 349.27 237.68 349.27 231.181C349.27 230.518 348.222 230.518 348.222 231.181C348.222 237.575 348.537 244.108 347.279 250.432C347.139 251.096 348.152 251.375 348.292 250.712Z" fill="#161616"/>
<path d="M350.493 231.147C351.262 234.99 350.843 238.903 351.297 242.746C351.716 246.415 352.869 249.908 353.987 253.402C354.197 254.031 355.21 253.751 355 253.123C353.742 249.314 352.52 245.471 352.24 241.488C351.996 237.925 352.24 234.396 351.506 230.867C351.367 230.204 350.388 230.483 350.493 231.147Z" fill="#161616"/>
<path d="M361.464 260.494C360.451 278.837 360.625 297.249 361.953 315.591C361.988 316.255 363.036 316.255 363.001 315.591C361.673 297.249 361.534 278.837 362.512 260.494C362.547 259.831 361.499 259.831 361.464 260.494Z" fill="#161616"/>
<path d="M285.894 61.4202C280.094 61.2455 275.867 65.1585 273.98 66.9054C266.259 74.0676 265.979 84.3741 265.875 87.833C265.77 91.3616 265.455 104.708 272.827 108.167C277.264 110.228 282.61 107.887 287.501 105.791C290.121 104.673 294.104 102.507 297.947 98.6286C300.882 95.624 304.446 91.9905 305.459 86.121C305.703 84.6537 306.402 79.6226 303.712 74.382C302.175 71.3425 300.183 69.5956 298.157 67.8487C294.803 64.879 290.995 61.56 285.894 61.4202Z" fill="white"/>
<path d="M287.431 62.8174C284.846 62.6427 282.889 63.4812 280.863 64.3197C277.02 65.9617 274.818 68.5471 273.316 70.294C270.102 74.0672 268.844 77.7357 268.53 78.7838C267.831 80.9499 266.608 84.9328 267.656 89.7891C268.18 92.1299 269.438 97.9645 274.679 100.515C278.871 102.541 283.099 101.284 284.391 100.864C285.16 101.563 286.348 102.856 287.012 104.742C287.012 104.742 288.269 108.341 286.488 112.429C283.867 118.438 273.875 122.491 266.713 119.521C257.559 115.713 256.826 101.877 258.048 94.6105C258.712 90.5927 260.18 87.4134 261.437 85.2472C261.263 81.6487 261.542 74.9407 265.874 69.0013C272.792 59.4983 287.116 56.0744 290.261 59.5682C291.064 60.4416 291.623 62.1535 291.029 62.8523C290.54 63.4812 289.213 62.9571 287.431 62.8174Z" fill="#0075E3"/>
<path d="M287.745 61.4554C286.452 63.0975 286.347 65.019 286.313 66.5214C286.068 72.3559 289.841 78.7495 293.44 78.6447C294.069 78.6097 295.082 78.4001 296.305 77.1424C296.654 77.0375 298.541 76.5135 300.253 77.5965C302.104 78.7495 302.558 81.0554 302.279 82.6974C301.999 84.3744 300.916 85.3876 300.567 85.7021C298.855 87.2742 296.724 87.2742 296.27 87.2393C295.885 88.8814 295.047 91.4318 293.23 94.0521C291.868 95.9737 290.4 97.3362 289.282 98.2446C288.968 99.4674 288.618 101.249 288.444 103.38C288.129 107.538 287.78 112.464 290.54 115.993C293.475 119.731 298.925 120.57 302.593 120.081C310.874 118.997 316.289 110.612 317.931 103.904C320.691 92.5498 313.249 83.5359 312.376 82.4878C313.005 72.4258 309.476 63.6914 302.943 60.4422C298.506 58.346 290.854 57.5774 287.745 61.4554Z" fill="#0075E3"/>
<path d="M279.745 64.6693C271.604 68.1631 267.062 78.5395 266.957 87.0293C266.888 91.676 268.844 96.4275 272.373 99.5369C275.936 102.681 280.758 102.926 285.09 101.249C289.632 99.502 293.23 95.9384 295.187 91.5363C295.466 90.9423 294.558 90.3833 294.279 91.0122C292.217 95.6938 288.164 99.4321 283.203 100.795C280.234 101.598 277.019 101.459 274.399 99.7815C271.884 98.1744 270.032 95.4842 269.019 92.7241C267.027 87.3088 268.46 81.1249 270.731 75.9891C272.687 71.552 275.762 67.6041 280.304 65.6476C280.863 65.2982 280.338 64.3898 279.745 64.6693Z" fill="#161616"/>
<path d="M275.936 71.7969C273.7 76.4436 271.814 81.23 270.207 86.1562C270.067 86.5755 270.591 87.0297 270.975 86.7502C272.687 85.4575 274.434 84.1299 276.146 82.8372C276.67 82.4179 276.146 81.5095 275.622 81.9288C273.91 83.2215 272.163 84.5491 270.451 85.8418C270.696 86.0514 270.975 86.2261 271.22 86.4357C272.792 81.6143 274.644 76.8978 276.845 72.321C277.124 71.727 276.216 71.203 275.936 71.7969Z" fill="#161616"/>
<path d="M273.456 88.3918C274.33 90.1736 276.531 90.4531 278.243 89.8941C280.374 89.2303 281.771 87.3786 282.225 85.2474C282.365 84.5836 281.352 84.3041 281.212 84.9679C280.898 86.4703 280.129 87.7979 278.732 88.5665C277.369 89.3002 275.133 89.4749 274.33 87.8678C274.085 87.2738 273.177 87.7979 273.456 88.3918Z" fill="#161616"/>
<path d="M281.212 71.5522C280.758 73.334 281.911 75.3255 283.798 75.57C285.719 75.8495 287.396 74.0677 287.326 72.216C287.291 71.5522 286.243 71.5522 286.278 72.216C286.348 73.5087 285.195 74.8014 283.832 74.5219C282.645 74.2774 281.946 72.9497 282.225 71.8317C282.4 71.2029 281.387 70.9234 281.212 71.5522Z" fill="#161616"/>
<path d="M270.591 74.1377C270.172 75.2906 271.29 76.3737 272.443 76.2689C273.98 76.1291 274.609 74.5919 274.958 73.2992C275.133 72.6354 274.12 72.3559 273.945 73.0197C273.77 73.7184 273.561 74.522 272.932 74.9413C272.443 75.2906 271.29 75.2557 271.604 74.3823C271.814 73.7883 270.801 73.5088 270.591 74.1377Z" fill="#161616"/>
<path d="M284.111 78.784C284.146 78.784 284.216 78.784 284.251 78.784C284.531 78.784 284.775 78.5394 284.775 78.2599C284.775 77.9804 284.531 77.7358 284.251 77.7358C284.216 77.7358 284.146 77.7358 284.111 77.7358C283.832 77.7358 283.587 77.9804 283.587 78.2599C283.587 78.5394 283.797 78.784 284.111 78.784Z" fill="#161616"/>
<path d="M288.339 77.1419C289.003 77.1419 289.003 76.0938 288.339 76.0938C287.675 76.0938 287.675 77.1419 288.339 77.1419Z" fill="#161616"/>
<path d="M287.92 80.7058C287.955 80.7058 288.025 80.7058 288.06 80.7058C288.339 80.7058 288.584 80.4613 288.584 80.1818C288.584 79.9023 288.339 79.6577 288.06 79.6577C288.025 79.6577 287.955 79.6577 287.92 79.6577C287.641 79.6577 287.396 79.9023 287.396 80.1818C287.431 80.4613 287.641 80.7058 287.92 80.7058Z" fill="#161616"/>
<path d="M284.077 66.4862C285.335 65.473 287.082 66.067 287.571 67.5693C287.78 68.1982 288.794 67.9187 288.584 67.2898C287.815 64.9839 285.195 64.2502 283.343 65.7525C282.784 66.1718 283.553 66.9055 284.077 66.4862Z" fill="#161616"/>
<path d="M273.98 67.8137C274.714 66.3463 276.705 66.5908 277.019 68.2329C277.159 68.8967 278.172 68.6172 278.033 67.9534C277.509 65.4728 274.19 65.0536 273.072 67.2896C272.757 67.8835 273.665 68.4076 273.98 67.8137Z" fill="#161616"/>
<path d="M295.746 78.19C299.764 74.3469 304.69 83.221 299.345 85.8413C298.506 86.2606 297.738 86.1557 296.864 86.2955C296.585 86.3304 296.27 86.3654 296.026 86.5401C295.746 86.7846 295.607 87.3786 295.467 87.7279C295.083 88.7761 294.698 89.7892 294.349 90.8374C294.104 91.4662 295.117 91.7457 295.362 91.1169C295.676 90.3133 295.886 89.4399 296.27 88.6363C296.375 88.1472 296.62 87.693 297.004 87.3436C297.179 87.3436 297.353 87.3436 297.528 87.3436C298.437 87.0292 299.38 87.0641 300.253 86.5051C302 85.4221 302.978 83.3957 302.804 81.3693C302.454 77.6659 298.157 74.3469 294.978 77.4214C294.524 77.9454 295.257 78.6791 295.746 78.19Z" fill="#161616"/>
<path d="M283.937 101.424C284.915 102.926 285.998 104.324 287.186 105.686C287.64 106.21 288.374 105.442 287.92 104.952C286.802 103.66 285.789 102.297 284.845 100.9C284.461 100.341 283.553 100.865 283.937 101.424Z" fill="#161616"/>
</svg>
