<svg width="25" height="24" viewBox="0 0 25 24" fill="none" xmlns="http://www.w3.org/2000/svg">
<path d="M3.74014 6.8172C3.82684 6.34385 4.24031 6 4.72152 6H20.0617C20.5429 6 20.9564 6.34385 21.0431 6.8172C22.4086 14.2724 22.6416 18 22.6416 18C22.6416 18 22.6416 18.695 22.5904 19.6754C22.5188 21.0459 21.4354 22.0861 20.064 22.138C18.5366 22.1959 16.1134 22.25 12.3916 22.25C8.6698 22.25 6.2466 22.1959 4.71926 22.138C3.34782 22.0861 2.26442 21.0459 2.19282 19.6754C2.1416 18.695 2.1416 18 2.1416 18C2.1416 18 2.37454 14.2724 3.74014 6.8172Z" fill="#E08EB5"/>
<path fill-rule="evenodd" clip-rule="evenodd" d="M7.3916 6C7.3916 3.23857 9.6302 1 12.3916 1C15.153 1 17.3916 3.23857 17.3916 6V8C17.3916 8.5523 16.9439 9 16.3916 9C15.8393 9 15.3916 8.5523 15.3916 8V6C15.3916 4.34314 14.0485 3 12.3916 3C10.7348 3 9.3916 4.34314 9.3916 6V8C9.3916 8.5523 8.9439 9 8.3916 9C7.8393 9 7.3916 8.5523 7.3916 8V6Z" fill="#A64573"/>
<path fill-rule="evenodd" clip-rule="evenodd" d="M22.6416 18H2.1416C2.1416 18 2.1416 18.695 2.19282 19.6754C2.26442 21.0459 3.34782 22.0861 4.71926 22.138C6.2466 22.1959 8.6698 22.25 12.3916 22.25C16.1134 22.25 18.5366 22.1959 20.064 22.138C21.4354 22.0861 22.5188 21.0459 22.5904 19.6754C22.6416 18.695 22.6416 18 22.6416 18Z" fill="#A64573"/>
</svg>
