<svg width="25" height="24" viewBox="0 0 25 24" fill="none" xmlns="http://www.w3.org/2000/svg">
<path d="M12.1415 4.49966C7.27576 3.55789 4.28235 4.78414 2.72823 5.8273C1.88387 6.39405 1.94981 7.5271 2.68902 8.22545L5.46911 10.852L12.1415 4.49966Z" fill="#A64573"/>
<path d="M20.4487 12.25C21.0525 17.2118 19.6302 20.2266 18.5286 21.7537C17.9567 22.5465 16.8736 22.5054 16.1664 21.8305L13.1191 18.9224L20.4487 12.25Z" fill="#A64573"/>
<path d="M9.68637 17.6359C9.68637 15.905 8.48552 14.7041 6.75457 14.7041C5.02361 14.7041 3.82275 15.905 3.82275 17.6359C3.82275 18.8906 3.93234 19.5974 4.01751 19.9573C4.06735 20.1678 4.2227 20.3232 4.43325 20.373C4.7931 20.4582 5.49987 20.5678 6.75457 20.5678C8.48552 20.5678 9.68637 19.3669 9.68637 17.6359Z" fill="#A64573"/>
<path d="M14.4392 19.9954C13.9496 20.3873 13.3292 20.4654 12.7958 20.1357C11.9868 19.6357 10.5428 18.5493 8.19259 16.1991C5.84239 13.8489 4.756 12.4048 4.25597 11.5958C3.92622 11.0624 4.00431 10.442 4.3962 9.95235C4.96121 9.2464 6.06744 7.9833 8.19259 5.85815C12.0505 2.00018 19.1073 2.00016 20.7494 3.64223C22.3915 5.2843 22.3914 12.3411 18.5335 16.1991C16.4083 18.3242 15.1452 19.4304 14.4392 19.9954Z" fill="#E08EB5"/>
<path d="M13.3916 7.5C11.4586 7.5 9.8916 9.067 9.8916 11C9.8916 12.933 11.4586 14.5 13.3916 14.5C15.3246 14.5 16.8916 12.933 16.8916 11C16.8916 9.067 15.3246 7.5 13.3916 7.5Z" fill="#A64573"/>
</svg>
