<svg width="25" height="24" viewBox="0 0 25 24" fill="none" xmlns="http://www.w3.org/2000/svg">
<path d="M22.8916 12C22.8916 17.799 18.1906 22.5 12.3916 22.5C6.59261 22.5 1.8916 17.799 1.8916 12C1.8916 6.20101 6.59261 1.5 12.3916 1.5C18.1906 1.5 22.8916 6.20101 22.8916 12Z" fill="#E08EB5"/>
<path d="M14.9103 16.5355C16.5856 15.6362 17.7247 13.8678 17.7247 11.8333C17.7247 8.88784 15.3369 6.5 12.3914 6.5C9.44587 6.5 7.05803 8.88784 7.05803 11.8333C7.05803 13.8678 8.19723 15.6363 9.87254 16.5356C8.07643 17.1791 6.59872 18.4913 5.73926 20.1721C7.5632 21.629 9.87563 22.5 12.3915 22.5C14.9073 22.5 17.2197 21.629 19.0436 20.1721C18.1842 18.4913 16.7064 17.179 14.9103 16.5355Z" fill="#A64573"/>
</svg>
