<svg width="25" height="24" viewBox="0 0 25 24" fill="none" xmlns="http://www.w3.org/2000/svg">
<path fill-rule="evenodd" clip-rule="evenodd" d="M10.0539 4.5C8.7626 4.5 7.61615 5.3263 7.20785 6.5513L5.8193 10.7169C5.76175 10.8896 5.61455 11.0168 5.4361 11.0527C4.45287 11.2503 3.8079 11.4643 3.41021 11.6278C3.03896 11.7804 2.76777 12.084 2.6707 12.4735C2.53969 12.9991 2.3916 13.9385 2.3916 15.5C2.3916 16.5264 2.45559 17.284 2.53664 17.832C2.65939 18.6619 3.33615 19.1822 4.17198 19.2536C5.4934 19.3664 7.9881 19.5 12.3916 19.5C16.7951 19.5 19.2898 19.3664 20.6112 19.2536C21.4471 19.1822 22.1238 18.6619 22.2466 17.832C22.3276 17.284 22.3916 16.5264 22.3916 15.5C22.3916 13.9385 22.2435 12.9991 22.1125 12.4735C22.0155 12.084 21.7443 11.7804 21.373 11.6278C21.0636 11.5006 20.6046 11.3428 19.953 11.186C19.7712 11.1423 19.6261 11.0043 19.5779 10.8237L18.4855 6.727C18.1353 5.41375 16.9459 4.5 15.5868 4.5H10.0539Z" fill="#8FBFFA"/>
<path d="M7.8916 22C9.54846 22 10.8916 20.6569 10.8916 19C10.8916 17.3431 9.54846 16 7.8916 16C6.23475 16 4.8916 17.3431 4.8916 19C4.8916 20.6569 6.23475 22 7.8916 22Z" fill="#2859C5"/>
<path d="M16.8916 22C18.5485 22 19.8916 20.6569 19.8916 19C19.8916 17.3431 18.5485 16 16.8916 16C15.2347 16 13.8916 17.3431 13.8916 19C13.8916 20.6569 15.2347 22 16.8916 22Z" fill="#2859C5"/>
<path fill-rule="evenodd" clip-rule="evenodd" d="M12.3918 6.5C12.3918 6.22385 12.168 6 11.8918 6H10.4562C9.56774 6 8.78574 6.58615 8.53649 7.43895L7.82899 9.85975C7.73544 10.1798 7.97544 10.5 8.30889 10.5H11.8918C12.168 10.5 12.3918 10.2761 12.3918 10V6.5ZM13.8918 10C13.8918 10.2761 14.1157 10.5 14.3918 10.5H17.0374C17.3511 10.5 17.5873 10.2144 17.5285 9.9063L17.0932 7.6251C16.9133 6.6821 16.0887 6 15.1287 6H14.3918C14.1157 6 13.8918 6.22385 13.8918 6.5V10Z" fill="#2859C5"/>
</svg>
