<svg width="25" height="24" viewBox="0 0 25 24" fill="none" xmlns="http://www.w3.org/2000/svg">
<path d="M2.58537 5.59595C2.67571 4.70472 3.28799 4.02626 4.17285 3.88658C5.3531 3.70028 7.4275 3.5 10.8916 3.5C14.3557 3.5 16.4301 3.70028 17.6104 3.88658C18.4952 4.02626 19.1075 4.70472 19.1979 5.59595C19.2961 6.56515 19.3916 8.11955 19.3916 10.5C19.3916 12.8805 19.2961 14.4348 19.1979 15.404C19.1075 16.2953 18.4952 16.9737 17.6104 17.1134C16.4301 17.2997 14.3557 17.5 10.8916 17.5C7.4275 17.5 5.35311 17.2997 4.17285 17.1134C3.28799 16.9737 2.67571 16.2953 2.58537 15.404C2.48713 14.4348 2.3916 12.8805 2.3916 10.5C2.3916 8.11955 2.48713 6.56515 2.58537 5.59595Z" fill="#2859C5"/>
<path d="M4.60707 7.6449C4.69994 6.75515 5.30841 6.0738 6.19105 5.92825C7.42485 5.7248 9.6375 5.5 13.3916 5.5C17.1457 5.5 19.3584 5.7248 20.5922 5.92825C21.4748 6.0738 22.0833 6.75515 22.1762 7.6449C22.2837 8.6751 22.3916 10.3653 22.3916 13C22.3916 15.6347 22.2837 17.3249 22.1762 18.3551C22.0833 19.2449 21.4748 19.9262 20.5922 20.0718C19.3584 20.2752 17.1457 20.5 13.3916 20.5C9.6375 20.5 7.42485 20.2752 6.19105 20.0718C5.30841 19.9262 4.69994 19.2449 4.60707 18.3551C4.49953 17.3249 4.3916 15.6347 4.3916 13C4.3916 10.3653 4.49953 8.6751 4.60707 7.6449Z" fill="#8FBFFA"/>
<path fill-rule="evenodd" clip-rule="evenodd" d="M22.2501 17.4878C22.2257 17.8152 22.1999 18.1006 22.1742 18.3479C22.0819 19.2362 21.4768 19.918 20.5959 20.0653C19.3628 20.2716 17.1495 20.4997 13.3919 20.4997C9.63425 20.4997 7.42095 20.2716 6.18785 20.0653C5.30695 19.918 4.70181 19.2362 4.60949 18.3479C4.57875 18.0521 4.54792 17.7019 4.51953 17.2904C6.5221 15.3936 7.9123 14.3366 8.7879 13.7582C9.5102 13.281 10.3935 13.3616 11.0639 13.9073C11.795 14.5024 12.9421 15.5013 14.6461 17.1398C15.8391 16.0999 16.7314 15.4391 17.3592 15.0244C18.0815 14.5472 18.9648 14.6278 19.6352 15.1735C20.2183 15.6482 21.0661 16.3797 22.2501 17.4878Z" fill="#2859C5"/>
<path d="M18.0071 11.4095C18.8993 11.4095 19.6226 10.6972 19.6226 9.81854C19.6226 8.93985 18.8993 8.22754 18.0071 8.22754C17.1149 8.22754 16.3916 8.93985 16.3916 9.81854C16.3916 10.6972 17.1149 11.4095 18.0071 11.4095Z" fill="#2859C5"/>
</svg>
