<svg width="25" height="24" viewBox="0 0 25 24" fill="none" xmlns="http://www.w3.org/2000/svg">
<path d="M8.74609 22.4365C7.56289 19.8494 7.69589 14.0003 7.69589 14.0003L20.5856 4.00781C20.2221 7.5515 14.5186 21.4423 8.74609 22.4365Z" fill="#8FBFFA"/>
<path d="M3.10366 11.5114C2.53177 11.0105 2.55577 10.2037 3.1834 9.77472C6.6559 7.40097 16.3857 2.58521 21.4595 1.65684C22.2744 1.50774 22.9439 2.16928 22.8861 2.99569C22.5277 8.11952 20.622 17.8998 18.9308 21.2002C18.6379 21.7718 17.9545 21.8905 17.3973 21.571C16.1036 20.829 13.4541 19.2159 9.33255 16.2816C5.9052 13.8414 4.06238 12.3512 3.10366 11.5114Z" fill="#8FBFFA"/>
<path d="M20.5106 4.00007C20.0107 3.50007 8.37458 12.9583 7.44348 14.913C7.44348 14.913 7.40463 22.2253 8.74603 22.4364C9.47173 22.4364 10.8028 18.5838 11.0832 17.7475C11.119 17.6406 11.1681 17.5464 11.2364 17.4567C14.1606 13.621 21.0048 4.49432 20.5106 4.00007Z" fill="#2859C5"/>
</svg>
