<svg width="25" height="24" viewBox="0 0 25 24" fill="none" xmlns="http://www.w3.org/2000/svg">
<path d="M11.9439 2.00442C12.369 2.03989 12.8686 2.10781 13.3503 2.23586C14.3825 2.51025 14.9202 3.53619 14.985 4.60675C15.0666 5.955 15.0172 7.32455 14.95 8.3364C16.5536 8.19255 18.1443 8.07875 19.5762 8.01015C21.088 7.93775 22.3527 9.08275 22.3835 10.6027C22.4342 13.1049 22.2759 16.9146 21.1306 20.0005C20.681 21.212 19.4895 21.9269 18.2029 21.969C12.1816 22.1657 6.3916 21.3635 6.3916 21.3635V9.4295C7.0638 9.3029 7.84295 9.1763 8.69395 9.05335C9.45515 6.9186 10.175 4.41857 10.559 3.03274C10.7339 2.4013 11.2937 1.95016 11.9439 2.00442Z" fill="#E7D295"/>
<path d="M2.46298 21.15C2.47633 21.6781 2.77407 22.1578 3.28425 22.295C3.68735 22.4033 4.23191 22.5 4.8916 22.5C5.5513 22.5 6.09585 22.4033 6.49895 22.295C7.00915 22.1578 7.30685 21.6781 7.32025 21.15C7.34845 20.0347 7.3916 17.931 7.3916 15.5C7.3916 13.069 7.34845 10.9653 7.32025 9.84995C7.30685 9.32185 7.00915 8.8422 6.49895 8.70505C6.09585 8.5967 5.5513 8.5 4.8916 8.5C4.23191 8.5 3.68735 8.5967 3.28425 8.70505C2.77407 8.8422 2.47633 9.32185 2.46298 9.84995C2.43476 10.9653 2.3916 13.069 2.3916 15.5C2.3916 17.931 2.43476 20.0347 2.46298 21.15Z" fill="#CFA72D"/>
</svg>
