<svg width="25" height="24" viewBox="0 0 25 24" fill="none" xmlns="http://www.w3.org/2000/svg">
<path d="M12.3916 22.5C18.1906 22.5 22.8916 17.799 22.8916 12C22.8916 6.20101 18.1906 1.5 12.3916 1.5C6.59261 1.5 1.8916 6.20101 1.8916 12C1.8916 17.799 6.59261 22.5 12.3916 22.5Z" fill="#E7D295"/>
<path d="M9.3916 22.0653V19.7217C9.3916 18.9255 8.9047 18.225 8.241 17.7852C6.222 16.4474 4.8916 14.1613 4.8916 11.5658C4.8916 8.86685 6.3303 6.50235 8.4859 5.19085C9.0838 4.82706 9.78155 5.31085 9.78045 6.01075C9.77795 7.60915 9.8002 9.2236 9.8723 10.4782C9.88375 10.6782 9.9565 10.8691 10.0928 11.0158C10.4215 11.3699 11.133 12.0472 12.0807 12.4444C12.2794 12.5276 12.5034 12.5276 12.7021 12.4444C13.6256 12.0574 14.3248 11.4043 14.6641 11.0436C14.8171 10.881 14.8914 10.6635 14.8914 10.4402V5.9365C14.8914 5.247 15.5754 4.76906 16.1714 5.1159C18.3967 6.41095 19.8916 8.8146 19.8916 11.5658C19.8916 14.1613 18.5612 16.4474 16.5422 17.7852C15.8785 18.225 15.3916 18.9255 15.3916 19.7217V22.0653C14.4411 22.3482 13.4341 22.5001 12.3916 22.5001C11.3492 22.5001 10.3422 22.3482 9.3916 22.0653Z" fill="#CFA72D"/>
</svg>
