<svg width="25" height="24" viewBox="0 0 25 24" fill="none" xmlns="http://www.w3.org/2000/svg">
<path fill-rule="evenodd" clip-rule="evenodd" d="M12.3916 4.5C10.4586 4.5 8.8916 6.067 8.8916 8V16C8.8916 17.933 10.4586 19.5 12.3916 19.5C14.3246 19.5 15.8916 17.933 15.8916 16V11C15.8916 10.4477 15.4439 10 14.8916 10C14.3393 10 13.8916 10.4477 13.8916 11V16.1716C13.8916 16.702 13.6749 17.2339 13.1675 17.3887C12.9555 17.4534 12.6968 17.5 12.3916 17.5C12.0864 17.5 11.8278 17.4534 11.6157 17.3887C11.1084 17.2339 10.8916 16.702 10.8916 16.1716V11C10.8916 8.79085 12.6825 7 14.8916 7C17.1008 7 18.8916 8.79085 18.8916 11V16C18.8916 19.5898 15.9815 22.5 12.3916 22.5C8.80175 22.5 5.8916 19.5898 5.8916 16V8C5.8916 4.41015 8.80175 1.5 12.3916 1.5C13.8535 1.5 15.2065 1.98437 16.2931 2.80076L16.3469 2.83528C16.8414 3.15285 17.1914 3.69531 16.976 4.24217C16.895 4.44786 16.7733 4.6732 16.5914 4.90101C16.3585 5.1925 16.1267 5.38225 15.9262 5.50565C15.567 5.72685 15.1334 5.6117 14.7785 5.38375L14.4911 5.19925C13.9062 4.75981 13.1814 4.5 12.3916 4.5Z" fill="#CFA72D"/>
</svg>
