<svg width="30" height="30" viewBox="0 0 30 30" fill="none" xmlns="http://www.w3.org/2000/svg">
<path d="M3.29369 8.00889C3.41321 6.95325 4.15257 6.16323 5.20042 5.98818C6.81648 5.71821 9.81966 5.40015 15 5.40015C20.1803 5.40015 23.1835 5.71821 24.7996 5.98818C25.8474 6.16323 26.5868 6.95325 26.7063 8.00889C26.8518 9.29355 27 11.469 27 15.0001C27 18.5313 26.8518 20.7067 26.7063 21.9914C26.5868 23.047 25.8475 23.8371 24.7996 24.0121C23.1835 24.2821 20.1803 24.6001 15 24.6001C9.81966 24.6001 6.81648 24.2821 5.20042 24.0121C4.15257 23.8371 3.41321 23.047 3.29369 21.9914C3.14822 20.7067 3 18.5313 3 15.0001C3 11.469 3.14822 9.29355 3.29369 8.00889Z" fill="#F5C4C4"/>
<path fill-rule="evenodd" clip-rule="evenodd" d="M26.8837 10.2002C26.9519 11.4177 27 12.9891 27 15.0002H3C3 12.9891 3.04808 11.4177 3.11635 10.2002H26.8837Z" fill="#C52828"/>
<path d="M23.3996 20.389C23.3996 20.821 23.0913 21.186 22.661 21.2245C22.2264 21.2634 21.5998 21.3 20.7814 21.3C20.0474 21.3 19.5449 21.2706 19.209 21.2364C18.8378 21.1986 18.5996 20.8869 18.5996 20.5137V19.0863C18.5996 18.7132 18.8378 18.4014 19.209 18.3637C19.5449 18.3295 20.0474 18.3 20.7814 18.3C21.5998 18.3 22.2264 18.3367 22.661 18.3756C23.0913 18.4141 23.3996 18.7791 23.3996 19.2111V20.389Z" fill="#C52828"/>
</svg>
