<svg width="30" height="30" viewBox="0 0 30 30" fill="none" xmlns="http://www.w3.org/2000/svg">
<path d="M28.1991 4.5C28.1991 3.67157 27.5275 3 26.6991 3H24.673C23.5717 3 22.6117 3.74951 22.3446 4.81792L21.5991 7.8H5.39909C4.0736 7.8 3.04711 8.87256 3.20805 10.1882C3.33908 11.2593 3.55225 12.7346 3.89909 14.7C4.79909 19.8 5.99909 21.6 5.99909 21.6C5.99909 21.6 7.33242 22.2 13.2658 22.2C19.1991 22.2 21.1324 21.6 21.1324 21.6C21.1324 21.6 22.1991 18.9 23.4658 13.8C24.0741 11.3507 24.8322 7.76118 25.0999 6.4779C25.1581 6.19911 25.4035 6 25.6883 6H26.6991C27.5275 6 28.1991 5.32843 28.1991 4.5Z" fill="#8FBFFA"/>
<path d="M10.7996 23.4C10.7996 25.3883 9.18783 27 7.19961 27C5.21138 27 3.59961 25.3883 3.59961 23.4C3.59961 21.4118 5.21138 19.8 7.19961 19.8C9.18783 19.8 10.7996 21.4118 10.7996 23.4Z" fill="#2859C5"/>
<path d="M23.3992 23.4C23.3992 25.3883 21.7874 27 19.7992 27C17.811 27 16.1992 25.3883 16.1992 23.4C16.1992 21.4118 17.811 19.8 19.7992 19.8C21.7874 19.8 23.3992 21.4118 23.3992 23.4Z" fill="#2859C5"/>
<path d="M9.73066 13.3129C9.66034 12.61 10.2123 12 10.9188 12C11.5322 12 12.0458 12.4648 12.1069 13.0753L12.468 16.6871C12.5384 17.39 11.9864 18 11.2799 18C10.6665 18 10.1529 17.5352 10.0918 16.9247L9.73066 13.3129Z" fill="#2859C5"/>
<path d="M15.4922 13.0753C15.5533 12.4648 16.0669 12 16.6803 12C17.3867 12 17.9387 12.61 17.8684 13.3129L17.5073 16.9247C17.4462 17.5352 16.9326 18 16.3192 18C15.6127 18 15.0607 17.39 15.131 16.6871L15.4922 13.0753Z" fill="#2859C5"/>
</svg>
