<svg width="30" height="30" viewBox="0 0 30 30" fill="none" xmlns="http://www.w3.org/2000/svg">
<path fill-rule="evenodd" clip-rule="evenodd" d="M5.57796 5.64801C4.32404 5.74172 3.39494 6.62733 3.27089 7.87857C3.18804 8.71425 3.10677 9.85779 3.05503 11.3916C3.04374 11.7261 3.31349 11.9976 3.64059 12.0688C4.98926 12.3626 5.9992 13.5634 5.9992 15.0001C5.9992 16.4368 4.98926 17.6377 3.64059 17.9314C3.31349 18.0027 3.04374 18.2742 3.05503 18.6087C3.10677 20.1425 3.18804 21.286 3.27089 22.1217C3.39494 23.373 4.32404 24.2586 5.57796 24.3523C7.21809 24.4749 10.0942 24.6001 14.9992 24.6001C19.9041 24.6001 22.7803 24.4749 24.4204 24.3523C25.6743 24.2586 26.6034 23.373 26.7275 22.1217C26.8104 21.286 26.8916 20.1425 26.9434 18.6087C26.9547 18.2742 26.6849 18.0027 26.3578 17.9314C25.0091 17.6377 23.9992 16.4368 23.9992 15.0001C23.9992 13.5634 25.0091 12.3626 26.3578 12.0688C26.6849 11.9976 26.9547 11.7261 26.9434 11.3916C26.8916 9.85779 26.8104 8.71425 26.7275 7.87857C26.6034 6.62733 25.6744 5.74172 24.4204 5.64801C22.7803 5.52545 19.9041 5.40015 14.9992 5.40015C10.0943 5.40015 7.21809 5.52545 5.57796 5.64801Z" fill="#FFDF60"/>
<path fill-rule="evenodd" clip-rule="evenodd" d="M17.4496 10.4068C17.1665 10.313 16.87 10.4588 16.7123 10.7119L12.1879 17.9687C12.0804 18.139 11.9863 18.2957 11.9056 18.4391C11.834 18.5824 11.7982 18.7258 11.7982 18.8691C11.7982 19.0752 11.9101 19.2454 12.1341 19.3798C12.2563 19.4456 12.3933 19.4978 12.5451 19.5365C12.8162 19.6056 13.0872 19.4593 13.2354 19.222L17.7784 11.9482C17.8948 11.7601 17.9889 11.5943 18.0606 11.4509C18.1323 11.3076 18.1681 11.1688 18.1681 11.0344C18.1681 10.8283 18.0427 10.667 17.7918 10.5506C17.684 10.4947 17.5699 10.4467 17.4496 10.4068ZM13.9269 12.5059C13.9269 13.1778 13.7253 13.7019 13.3221 14.0782C12.919 14.4545 12.3993 14.6426 11.7633 14.6426C11.1182 14.6426 10.594 14.4545 10.1909 14.0782C9.79671 13.7019 9.59961 13.1778 9.59961 12.5059C9.59961 11.8429 9.79671 11.3233 10.1909 10.947C10.594 10.5707 11.1182 10.3826 11.7633 10.3826C12.3993 10.3826 12.919 10.5707 13.3221 10.947C13.7253 11.3233 13.9269 11.8429 13.9269 12.5059ZM11.2257 12.5059C11.2257 12.7747 11.275 12.9763 11.3735 13.1106C11.481 13.2361 11.6109 13.2988 11.7633 13.2988C11.9155 13.2988 12.041 13.2361 12.1395 13.1106C12.247 12.9763 12.3008 12.7747 12.3008 12.5059C12.3008 12.2461 12.247 12.0535 12.1395 11.928C12.041 11.8026 11.9155 11.7398 11.7633 11.7398C11.6109 11.7398 11.481 11.8026 11.3735 11.928C11.275 12.0535 11.2257 12.2461 11.2257 12.5059ZM20.3996 17.4849C20.3996 18.1568 20.198 18.681 19.7949 19.0573C19.3917 19.4335 18.8721 19.6217 18.2359 19.6217C17.5909 19.6217 17.0668 19.4335 16.6636 19.0573C16.2694 18.681 16.0723 18.1568 16.0723 17.4849C16.0723 16.822 16.2694 16.3023 16.6636 15.926C17.0668 15.5498 17.5909 15.3616 18.2359 15.3616C18.8721 15.3616 19.3917 15.5498 19.7949 15.926C20.198 16.3023 20.3996 16.822 20.3996 17.4849ZM17.6984 17.4849C17.6984 17.7537 17.7477 17.9553 17.8462 18.0896C17.9537 18.2151 18.0837 18.2778 18.2359 18.2778C18.3882 18.2778 18.5137 18.2151 18.6122 18.0896C18.7197 17.9553 18.7735 17.7537 18.7735 17.4849C18.7735 17.2251 18.7197 17.0325 18.6122 16.907C18.5137 16.7816 18.3882 16.7189 18.2359 16.7189C18.0837 16.7189 17.9537 16.7816 17.8462 16.907C17.7477 17.0325 17.6984 17.2251 17.6984 17.4849Z" fill="#D3AB0B"/>
</svg>
