<svg width="30" height="30" viewBox="0 0 30 30" fill="none" xmlns="http://www.w3.org/2000/svg">
<path d="M25.7516 7.86087C25.6919 9.04641 24.5642 9.49185 23.6896 8.68935C23.2919 8.32443 22.8158 7.87521 22.2493 7.32357C20.9699 8.48787 18.9856 10.3032 16.6199 12.4999C15.9986 13.0768 14.9896 13.0123 14.4469 12.361L14.4464 12.3605C13.3813 11.0862 12.3083 9.81699 11.1979 8.58183C9.9003 9.53451 7.57122 11.35 5.25988 13.6614C4.6741 14.2471 3.72434 14.2471 3.13856 13.6614C2.55277 13.0756 2.55277 12.1258 3.13856 11.5401C5.4061 9.27255 7.89402 7.14555 10.5623 5.35591L10.5664 5.35313C10.5674 5.35246 10.5671 5.35264 10.5671 5.35264C11.1621 4.95603 11.9543 5.03446 12.4599 5.54006C13.6214 6.70161 14.671 7.97925 15.7334 9.23133C17.5395 7.56093 19.061 6.16918 20.128 5.19783C19.6438 4.69821 19.2427 4.27222 18.9112 3.91092C18.1084 3.03611 18.5541 1.90812 19.7399 1.84845C21.253 1.7723 22.8058 1.72749 24.3005 2.00693C24.9735 2.13276 25.4672 2.6265 25.5929 3.29952C25.8724 4.7944 25.8277 6.34753 25.7516 7.86087Z" fill="#2859C5"/>
<path d="M3.73115 28.1812C2.7273 28.1557 1.96694 27.5519 1.88488 26.5511C1.83573 25.9517 1.7998 25.1278 1.7998 24C1.7998 22.8723 1.83573 22.0484 1.88488 21.449C1.96694 20.4482 2.7273 19.8444 3.73115 19.8189C4.17034 19.8077 4.71948 19.8 5.3998 19.8C6.08013 19.8 6.62926 19.8077 7.06846 19.8189C8.07232 19.8444 8.83264 20.4482 8.91472 21.449C8.96386 22.0484 8.9998 22.8723 8.9998 24C8.9998 25.1278 8.96386 25.9517 8.91472 26.5511C8.83264 27.5519 8.07232 28.1557 7.06846 28.1812C6.62926 28.1924 6.08013 28.2 5.3998 28.2C4.71948 28.2 4.17034 28.1924 3.73115 28.1812Z" fill="#8FBFFA"/>
<path d="M23.2146 28.1752C22.0451 28.1291 21.225 27.3069 21.1492 26.1389C21.0706 24.9278 21 22.9606 21 19.8001C21 16.6397 21.0706 14.6725 21.1492 13.4614C21.225 12.2934 22.0451 11.4712 23.2146 11.425C23.6005 11.4098 24.0587 11.4001 24.6 11.4001C25.1413 11.4001 25.5995 11.4098 25.9854 11.425C27.1549 11.4712 27.975 12.2934 28.0508 13.4614C28.1294 14.6725 28.2 16.6397 28.2 19.8001C28.2 22.9606 28.1294 24.9278 28.0508 26.1389C27.975 27.3069 27.1549 28.1291 25.9854 28.1752C25.5995 28.1905 25.1413 28.2001 24.6 28.2001C24.0587 28.2001 23.6005 28.1905 23.2146 28.1752Z" fill="#8FBFFA"/>
<path d="M13.5313 28.18C12.4107 28.1459 11.5938 27.4104 11.5133 26.2921C11.4501 25.4132 11.3994 24.1125 11.3994 22.2002C11.3994 20.2879 11.4501 18.9872 11.5133 18.1083C11.5938 16.99 12.4107 16.2545 13.5313 16.2204C13.934 16.2082 14.419 16.2002 14.9994 16.2002C15.5799 16.2002 16.0648 16.2082 16.4675 16.2204C17.5882 16.2545 18.405 16.99 18.4855 18.1083C18.5488 18.9872 18.5994 20.2879 18.5994 22.2002C18.5994 24.1125 18.5488 25.4132 18.4855 26.2921C18.405 27.4104 17.5882 28.1459 16.4675 28.18C16.0648 28.1922 15.5799 28.2002 14.9994 28.2002C14.419 28.2002 13.934 28.1922 13.5313 28.18Z" fill="#8FBFFA"/>
</svg>
