<svg width="25" height="24" viewBox="0 0 25 24" fill="none" xmlns="http://www.w3.org/2000/svg">
<path fill-rule="evenodd" clip-rule="evenodd" d="M8.48567 2.06C9.55204 2.01091 9.89204 2 12.6084 2C15.3248 2 15.6648 2.01182 16.7302 2.06C17.7957 2.10818 18.5229 2.27818 19.1593 2.52455C19.8257 2.77636 20.4302 3.17 20.9302 3.67909C21.4393 4.17818 21.832 4.78182 22.0829 5.44909C22.3302 6.08545 22.4993 6.81273 22.5484 7.87636C22.5975 8.94455 22.6084 9.28455 22.6084 12C22.6084 14.7164 22.5966 15.0564 22.5484 16.1227C22.5002 17.1864 22.3302 17.9136 22.0829 18.55C21.832 19.2174 21.4387 19.822 20.9302 20.3218C20.4302 20.8309 19.8257 21.2236 19.1593 21.4745C18.5229 21.7218 17.7957 21.8909 16.732 21.94C15.6648 21.9891 15.3248 22 12.6084 22C9.89204 22 9.55204 21.9882 8.48567 21.94C7.42204 21.8918 6.69476 21.7218 6.0584 21.4745C5.39105 21.2236 4.78642 20.8302 4.28658 20.3218C3.77783 19.8224 3.38414 19.2181 3.13294 18.5509C2.88658 17.9145 2.71749 17.1873 2.6684 16.1236C2.61931 15.0555 2.6084 14.7155 2.6084 12C2.6084 9.28364 2.62022 8.94364 2.6684 7.87818C2.71658 6.81273 2.88658 6.08545 3.13294 5.44909C3.38451 4.78189 3.77851 4.17756 4.28749 3.67818C4.78662 3.16955 5.39065 2.77586 6.05749 2.52455C6.69385 2.27818 7.42113 2.10909 8.48476 2.06H8.48567ZM16.6493 3.86C15.5948 3.81182 15.2784 3.80182 12.6084 3.80182C9.9384 3.80182 9.62204 3.81182 8.56749 3.86C7.59203 3.90455 7.06294 4.06727 6.71022 4.20455C6.24385 4.38636 5.91022 4.60182 5.56022 4.95182C5.22844 5.27459 4.97311 5.66753 4.81294 6.10182C4.67567 6.45455 4.51294 6.98364 4.4684 7.95909C4.42022 9.01364 4.41022 9.33 4.41022 12C4.41022 14.67 4.42022 14.9864 4.4684 16.0409C4.51294 17.0164 4.67567 17.5455 4.81294 17.8982C4.97294 18.3318 5.2284 18.7255 5.56022 19.0482C5.88294 19.38 6.27658 19.6355 6.71022 19.7955C7.06294 19.9327 7.59203 20.0955 8.56749 20.14C9.62204 20.1882 9.93749 20.1982 12.6084 20.1982C15.2793 20.1982 15.5948 20.1882 16.6493 20.14C17.6248 20.0955 18.1539 19.9327 18.5066 19.7955C18.9729 19.6136 19.3066 19.3982 19.6566 19.0482C19.9884 18.7255 20.2439 18.3318 20.4039 17.8982C20.5411 17.5455 20.7039 17.0164 20.7484 16.0409C20.7966 14.9864 20.8066 14.67 20.8066 12C20.8066 9.33 20.7966 9.01364 20.7484 7.95909C20.7039 6.98364 20.5411 6.45455 20.4039 6.10182C20.222 5.63545 20.0066 5.30182 19.6566 4.95182C19.3338 4.62006 18.9409 4.36474 18.5066 4.20455C18.1539 4.06727 17.6248 3.90455 16.6493 3.86ZM11.3311 15.0827C12.0445 15.3797 12.8387 15.4197 13.5783 15.1961C14.3179 14.9725 14.9569 14.499 15.3862 13.8566C15.8155 13.2142 16.0084 12.4426 15.9321 11.6737C15.8557 10.9049 15.5148 10.1863 14.9675 9.64091C14.6186 9.29225 14.1968 9.02528 13.7323 8.85922C13.2679 8.69317 12.7724 8.63215 12.2816 8.68056C11.7907 8.72897 11.3167 8.88562 10.8937 9.13921C10.4706 9.3928 10.1091 9.73704 9.83504 10.1471C9.561 10.5572 9.3813 11.023 9.30887 11.5109C9.23644 11.9988 9.27308 12.4966 9.41616 12.9687C9.55924 13.4407 9.8052 13.8751 10.1363 14.2407C10.4675 14.6062 10.8755 14.8938 11.3311 15.0827ZM8.97385 8.36545C9.45115 7.88816 10.0178 7.50955 10.6414 7.25124C11.265 6.99293 11.9334 6.85998 12.6084 6.85998C13.2834 6.85998 13.9518 6.99293 14.5754 7.25124C15.199 7.50955 15.7656 7.88816 16.2429 8.36545C16.7202 8.84275 17.0989 9.40938 17.3572 10.033C17.6155 10.6566 17.7484 11.325 17.7484 12C17.7484 12.675 17.6155 13.3434 17.3572 13.967C17.0989 14.5906 16.7202 15.1573 16.2429 15.6345C15.279 16.5985 13.9716 17.14 12.6084 17.14C11.2452 17.14 9.93779 16.5985 8.97385 15.6345C8.00991 14.6706 7.46838 13.3632 7.46838 12C7.46838 10.6368 8.00991 9.3294 8.97385 8.36545ZM18.8884 7.62545C19.0067 7.51388 19.1014 7.37971 19.1669 7.23089C19.2323 7.08206 19.2673 6.92161 19.2697 6.75903C19.2721 6.59645 19.2418 6.43504 19.1807 6.28437C19.1195 6.1337 19.0288 5.99683 18.9138 5.88185C18.7988 5.76688 18.662 5.67614 18.5113 5.61502C18.3606 5.55389 18.1992 5.52361 18.0366 5.52598C17.8741 5.52835 17.7136 5.56332 17.5648 5.62881C17.416 5.69431 17.2818 5.789 17.1702 5.90727C16.9532 6.1373 16.8344 6.44284 16.839 6.75903C16.8436 7.07522 16.9713 7.37716 17.1949 7.60077C17.4185 7.82437 17.7205 7.95203 18.0366 7.95664C18.3528 7.96125 18.6584 7.84245 18.8884 7.62545Z" fill="white"/>
</svg>
