<svg width="25" height="24" viewBox="0 0 25 24" fill="none" xmlns="http://www.w3.org/2000/svg">
<path fill-rule="evenodd" clip-rule="evenodd" d="M12.4613 6.55978C10.6426 6.55978 9.16818 8.03418 9.16818 9.85295C9.16818 11.6717 10.6426 13.1461 12.4613 13.1461C14.2801 13.1461 15.7545 11.6717 15.7545 9.85295C15.7545 8.03418 14.2801 6.55978 12.4613 6.55978ZM10.6881 9.85295C10.6881 8.87361 11.482 8.0797 12.4613 8.0797C13.4407 8.0797 14.2346 8.87361 14.2346 9.85295C14.2346 10.8323 13.4407 11.6262 12.4613 11.6262C11.482 11.6262 10.6881 10.8323 10.6881 9.85295Z" fill="white"/>
<path fill-rule="evenodd" clip-rule="evenodd" d="M12.4613 2C8.12428 2 4.6084 5.51588 4.6084 9.85295C4.6084 11.2884 5.10761 12.7426 5.80198 14.0817C6.49977 15.4275 7.42133 16.7078 8.32822 17.809C9.23696 18.9125 10.1436 19.8513 10.8222 20.5138C11.162 20.8455 11.4458 21.109 11.6457 21.2905C11.7456 21.3813 11.8247 21.4516 11.8793 21.4998C11.9067 21.5239 11.9279 21.5424 11.9426 21.5552C11.95 21.5616 11.9557 21.5665 11.9598 21.57L11.9645 21.5742L11.966 21.5754C11.9662 21.5755 11.9668 21.5761 12.4613 20.9991L11.9668 21.5761L12.4613 22L12.9559 21.5761L12.4613 20.9991C12.9559 21.5761 12.9558 21.5762 12.9559 21.5761L12.9567 21.5754L12.9581 21.5742L12.9629 21.57C12.967 21.5665 12.9727 21.5616 12.9801 21.5552C12.9948 21.5424 13.016 21.5239 13.0434 21.4998C13.098 21.4516 13.1771 21.3813 13.277 21.2905C13.4769 21.109 13.7607 20.8455 14.1005 20.5138C14.7791 19.8513 15.6857 18.9125 16.5945 17.809C17.5014 16.7078 18.4229 15.4275 19.1207 14.0817C19.8151 12.7426 20.3143 11.2884 20.3143 9.85295C20.3143 5.51588 16.7984 2 12.4613 2ZM13.0388 19.4261C12.8182 19.6415 12.6229 19.8262 12.4613 19.9761C12.2998 19.8262 12.1045 19.6415 11.8839 19.4261C11.2326 18.7903 10.366 17.8926 9.50149 16.8428C8.63513 15.7908 7.78345 14.6012 7.1513 13.3821C6.51574 12.1564 6.12832 10.9507 6.12832 9.85295C6.12832 6.35532 8.96372 3.51993 12.4613 3.51993C15.959 3.51993 18.7944 6.35532 18.7944 9.85295C18.7944 10.9507 18.407 12.1564 17.7714 13.3821C17.1392 14.6012 16.2876 15.7908 15.4212 16.8428C14.5567 17.8926 13.6901 18.7903 13.0388 19.4261Z" fill="white"/>
</svg>
