<svg width="25" height="24" viewBox="0 0 25 24" fill="none" xmlns="http://www.w3.org/2000/svg">
<path d="M21.6078 19.1864V16.4767C21.6188 16.0337 21.4663 15.6021 21.1792 15.264C20.3698 14.3106 17.5938 13.7008 16.4934 13.935C15.6357 14.1176 15.0355 14.9788 14.4488 15.5644C12.183 14.2785 10.307 12.4062 9.01859 10.1448C9.60529 9.55929 10.4683 8.96036 10.6512 8.10428C10.8855 7.00777 10.2765 4.24949 9.32971 3.43684C8.99668 3.151 8.57086 2.99577 8.13164 3.00009H5.4165C4.38197 3.00106 3.52127 3.92895 3.61546 4.96919C3.60839 13.935 10.6084 21 19.6348 20.9929C20.6806 21.0873 21.612 20.2223 21.6078 19.1864Z" stroke="white" stroke-width="1.5" stroke-linecap="round" stroke-linejoin="round"/>
</svg>
