<svg width="30" height="30" viewBox="0 0 30 30" fill="none" xmlns="http://www.w3.org/2000/svg">
<path fill-rule="evenodd" clip-rule="evenodd" d="M3.67447 2.23361C2.90886 2.30709 2.3071 2.90884 2.23362 3.67444C2.01752 5.92605 2.19841 8.00586 2.31678 8.99472C2.36241 9.37596 2.60359 9.70746 2.97829 9.7911C3.30872 9.86484 3.75091 9.909 4.22487 9.80346C4.59962 9.72 4.83916 9.37596 4.88587 8.9949C5.02976 7.82106 5.07673 6.46104 5.09205 5.69831C5.09871 5.367 5.36707 5.09864 5.69837 5.09199C6.46109 5.07667 7.82112 5.02971 8.9949 4.88584C9.37602 4.83913 9.72006 4.59959 9.80346 4.22483C9.909 3.75089 9.8649 3.3087 9.7911 2.97827C9.70746 2.60357 9.37596 2.36239 8.99478 2.31676C8.00586 2.19841 5.92609 2.01753 3.67447 2.23361ZM26.3255 2.23361C27.0911 2.30709 27.6929 2.90884 27.7664 3.67444C27.9824 5.92605 27.8016 8.00586 27.6832 8.99472C27.6376 9.37596 27.3964 9.70746 27.0217 9.7911C26.6912 9.86484 26.2491 9.909 25.7751 9.80346C25.4003 9.72 25.1608 9.37596 25.1141 8.9949C24.9702 7.82106 24.9233 6.46104 24.9079 5.69831C24.9013 5.367 24.6329 5.09864 24.3016 5.09199C23.5389 5.07667 22.1789 5.02971 21.0051 4.88584C20.624 4.83913 20.2799 4.59959 20.1965 4.22483C20.091 3.75089 20.1351 3.3087 20.2088 2.97827C20.2925 2.60357 20.624 2.36239 21.0052 2.31676C21.9941 2.19841 24.0739 2.01753 26.3255 2.23361ZM27.7664 26.3255C27.6929 27.0911 27.0911 27.6929 26.3255 27.7664C24.0739 27.9825 21.9941 27.8016 21.0052 27.6832C20.624 27.6376 20.2925 27.3964 20.2088 27.0217C20.1351 26.6913 20.091 26.2491 20.1965 25.7752C20.2799 25.4004 20.624 25.1609 21.0051 25.1141C22.1789 24.9703 23.5389 24.9233 24.3016 24.908C24.6329 24.9014 24.9013 24.633 24.9079 24.3017C24.9233 23.539 24.9702 22.1789 25.1141 21.0051C25.1608 20.624 25.4003 20.28 25.7751 20.1965C26.2491 20.091 26.6912 20.1352 27.0217 20.2089C27.3964 20.2925 27.6376 20.624 27.6832 21.0053C27.8016 21.9941 27.9824 24.0739 27.7664 26.3255ZM3.67447 27.7664C2.90886 27.6929 2.3071 27.0911 2.23362 26.3255C2.01752 24.0739 2.19841 21.9941 2.31678 21.0053C2.36241 20.624 2.60359 20.2925 2.97829 20.2089C3.30872 20.1352 3.75091 20.091 4.22487 20.1965C4.59962 20.28 4.83916 20.624 4.88587 21.0051C5.02976 22.1789 5.07673 23.539 5.09205 24.3017C5.09871 24.633 5.36707 24.9014 5.69837 24.908C6.46109 24.9233 7.82112 24.9703 8.9949 25.1141C9.37602 25.1609 9.72006 25.4004 9.80346 25.7752C9.909 26.2491 9.8649 26.6913 9.7911 27.0217C9.70746 27.3964 9.37596 27.6376 8.99478 27.6832C8.00586 27.8016 5.92609 27.9825 3.67447 27.7664Z" fill="#7D7D7D"/>
<path fill-rule="evenodd" clip-rule="evenodd" d="M8.39985 22.1616C8.71863 22.115 8.89743 21.8398 8.91273 21.518C8.94825 20.7726 8.99961 19.0028 8.99961 15C8.99961 10.9973 8.94825 9.22751 8.91273 8.48207C8.89743 8.16029 8.71863 7.88507 8.39985 7.83845C8.24667 7.81601 8.04975 7.80005 7.79961 7.80005C7.54947 7.80005 7.35255 7.81601 7.19937 7.83845C6.88059 7.88507 6.70179 8.16029 6.68649 8.48207C6.65097 9.22751 6.59961 10.9973 6.59961 15C6.59961 19.0028 6.65097 20.7726 6.68649 21.518C6.70179 21.8398 6.88059 22.115 7.19937 22.1616C7.35255 22.1841 7.54947 22.2 7.79961 22.2C8.04975 22.2 8.24667 22.1841 8.39985 22.1616ZM11.9268 18.5786C12.2842 18.546 12.5047 18.2591 12.5236 17.9008C12.5578 17.2527 12.5996 15.9074 12.5996 13.2C12.5996 10.4927 12.5578 9.14741 12.5236 8.49929C12.5047 8.14097 12.2842 7.85405 11.9268 7.82153C11.7855 7.80863 11.6116 7.80005 11.3996 7.80005C11.1876 7.80005 11.0137 7.80863 10.8724 7.82153C10.515 7.85405 10.2945 8.14097 10.2756 8.49929C10.2414 9.14741 10.1996 10.4927 10.1996 13.2C10.1996 15.9074 10.2414 17.2527 10.2756 17.9008C10.2945 18.2591 10.515 18.546 10.8724 18.5786C11.0137 18.5915 11.1876 18.6 11.3996 18.6C11.6116 18.6 11.7855 18.5915 11.9268 18.5786ZM16.1236 17.9008C16.1047 18.2591 15.8842 18.546 15.5268 18.5786C15.3855 18.5915 15.2116 18.6 14.9996 18.6C14.7876 18.6 14.6137 18.5915 14.4724 18.5786C14.115 18.546 13.8945 18.2591 13.8756 17.9008C13.8414 17.2527 13.7996 15.9074 13.7996 13.2C13.7996 10.4927 13.8414 9.14741 13.8756 8.49929C13.8945 8.14097 14.115 7.85405 14.4724 7.82153C14.6137 7.80863 14.7876 7.80005 14.9996 7.80005C15.2116 7.80005 15.3855 7.80863 15.5268 7.82153C15.8842 7.85405 16.1047 8.14097 16.1236 8.49929C16.1578 9.14741 16.1996 10.4927 16.1996 13.2C16.1996 15.9074 16.1578 17.2527 16.1236 17.9008ZM16.1743 21.695C16.147 22.0064 15.9057 22.1863 15.5932 22.1938C15.4409 22.1975 15.2461 22.2 14.9996 22.2C14.7531 22.2 14.5583 22.1975 14.406 22.1938C14.0935 22.1863 13.8522 22.0064 13.8249 21.695C13.8101 21.527 13.7996 21.3015 13.7996 21C13.7996 20.6986 13.8101 20.4731 13.8249 20.3051C13.8522 19.9937 14.0935 19.8138 14.406 19.8063C14.5583 19.8026 14.7531 19.8 14.9996 19.8C15.2461 19.8 15.4409 19.8026 15.5932 19.8063C15.9057 19.8138 16.147 19.9937 16.1743 20.3051C16.1891 20.4731 16.1996 20.6986 16.1996 21C16.1996 21.3015 16.1891 21.527 16.1743 21.695ZM19.1268 18.5786C19.4842 18.546 19.7047 18.2591 19.7236 17.9008C19.7578 17.2527 19.7996 15.9074 19.7996 13.2C19.7996 10.4927 19.7578 9.14741 19.7236 8.49929C19.7047 8.14097 19.4842 7.85405 19.1268 7.82153C18.9855 7.80863 18.8116 7.80005 18.5996 7.80005C18.3876 7.80005 18.2137 7.80863 18.0724 7.82153C17.715 7.85405 17.4945 8.14097 17.4756 8.49929C17.4414 9.14741 17.3996 10.4927 17.3996 13.2C17.3996 15.9074 17.4414 17.2527 17.4756 17.9008C17.4945 18.2591 17.715 18.546 18.0724 18.5786C18.2137 18.5915 18.3876 18.6 18.5996 18.6C18.8116 18.6 18.9855 18.5915 19.1268 18.5786ZM19.7743 21.695C19.747 22.0064 19.5057 22.1863 19.1932 22.1938C19.0409 22.1975 18.8461 22.2 18.5996 22.2C18.3531 22.2 18.1583 22.1975 18.006 22.1938C17.6935 22.1863 17.4522 22.0064 17.4249 21.695C17.4101 21.527 17.3996 21.3015 17.3996 21C17.3996 20.6986 17.4101 20.4731 17.4249 20.3051C17.4522 19.9937 17.6935 19.8138 18.006 19.8063C18.1583 19.8026 18.3531 19.8 18.5996 19.8C18.8461 19.8 19.0409 19.8026 19.1932 19.8063C19.5057 19.8138 19.747 19.9937 19.7743 20.3051C19.7891 20.4731 19.7996 20.6986 19.7996 21C19.7996 21.3015 19.7891 21.527 19.7743 21.695ZM12.5743 21.695C12.547 22.0064 12.3057 22.1863 11.9932 22.1938C11.8409 22.1975 11.6461 22.2 11.3996 22.2C11.1531 22.2 10.9583 22.1975 10.806 22.1938C10.4935 22.1863 10.2522 22.0064 10.2249 21.695C10.2101 21.527 10.1996 21.3015 10.1996 21C10.1996 20.6986 10.2101 20.4731 10.2249 20.3051C10.2522 19.9937 10.4935 19.8138 10.806 19.8063C10.9583 19.8026 11.1531 19.8 11.3996 19.8C11.6461 19.8 11.8409 19.8026 11.9932 19.8063C12.3057 19.8138 12.547 19.9937 12.5743 20.3051C12.5891 20.4731 12.5996 20.6986 12.5996 21C12.5996 21.3015 12.5891 21.527 12.5743 21.695ZM23.3127 21.518C23.2974 21.8398 23.1186 22.115 22.7998 22.1616C22.6467 22.1841 22.4497 22.2 22.1996 22.2C21.9495 22.2 21.7525 22.1841 21.5994 22.1616C21.2806 22.115 21.1018 21.8398 21.0865 21.518C21.051 20.7726 20.9996 19.0028 20.9996 15C20.9996 10.9973 21.051 9.22751 21.0865 8.48207C21.1018 8.16029 21.2806 7.88507 21.5994 7.83845C21.7525 7.81601 21.9495 7.80005 22.1996 7.80005C22.4497 7.80005 22.6467 7.81601 22.7998 7.83845C23.1186 7.88507 23.2974 8.16029 23.3127 8.48207C23.3482 9.22751 23.3996 10.9973 23.3996 15C23.3996 19.0028 23.3482 20.7726 23.3127 21.518Z" fill="#CBCBCB"/>
</svg>
