<svg width="25" height="24" viewBox="0 0 25 24" fill="none" xmlns="http://www.w3.org/2000/svg">
<path fill-rule="evenodd" clip-rule="evenodd" d="M11.2457 2.6539C11.7931 2.50179 12.2621 2.97255 12.2965 3.53965C12.368 4.71913 12.6125 6.01835 13.2586 6.8883C13.5946 7.34065 14.2409 7.4487 14.6433 7.0542C15.0529 6.6526 15.3734 6.0432 15.6217 5.38505C15.8681 4.73187 16.6542 4.42253 17.2045 4.85206C19.7653 6.8508 22.3916 9.9001 22.3916 13.9999C22.3916 19.5228 17.9145 21.9999 12.3916 21.9999C6.86875 21.9999 2.3916 19.5228 2.3916 13.9999C2.3916 8.38865 7.3113 4.74528 10.2493 3.06979C10.5686 2.88774 10.9031 2.74911 11.2457 2.6539Z" fill="#80CEB2"/>
<path fill-rule="evenodd" clip-rule="evenodd" d="M14.7873 10.0111C14.5494 9.93935 14.3031 10.0595 14.1716 10.2704L9.73064 17.3934C9.62599 17.5591 9.53439 17.7117 9.45589 17.8513C9.38614 17.9908 9.35124 18.1303 9.35124 18.2699C9.35124 18.4705 9.46029 18.6362 9.67829 18.767C9.81369 18.8399 9.96774 18.8958 10.1404 18.9345C10.368 18.9854 10.5931 18.8654 10.7166 18.6676L15.173 11.5323C15.2864 11.3492 15.378 11.1878 15.4478 11.0483C15.5175 10.9087 15.5524 10.7735 15.5524 10.6427C15.5524 10.4421 15.4303 10.2851 15.1861 10.1717C15.0617 10.1072 14.9288 10.0537 14.7873 10.0111ZM11.4235 12.0752C11.4235 12.7293 11.2273 13.2396 10.8348 13.6059C10.4423 13.9722 9.93649 14.1554 9.31724 14.1554C8.68929 14.1554 8.17904 13.9722 7.78654 13.6059C7.40279 13.2396 7.21094 12.7293 7.21094 12.0752C7.21094 11.4298 7.40279 10.9239 7.78654 10.5576C8.17904 10.1913 8.68929 10.0082 9.31724 10.0082C9.93649 10.0082 10.4423 10.1913 10.8348 10.5576C11.2273 10.9239 11.4235 11.4298 11.4235 12.0752ZM8.79394 12.0752C8.79394 12.3369 8.84189 12.5331 8.93784 12.664C9.04249 12.7861 9.16894 12.8471 9.31724 12.8471C9.46549 12.8471 9.58759 12.7861 9.68354 12.664C9.78819 12.5331 9.84054 12.3369 9.84054 12.0752C9.84054 11.8223 9.78819 11.6347 9.68354 11.5126C9.58759 11.3905 9.46549 11.3295 9.31724 11.3295C9.16894 11.3295 9.04249 11.3905 8.93784 11.5126C8.84189 11.6347 8.79394 11.8223 8.79394 12.0752ZM17.7249 16.9224C17.7249 17.5765 17.5287 18.0868 17.1362 18.4531C16.7437 18.8194 16.2378 19.0025 15.6186 19.0025C14.9906 19.0025 14.4804 18.8194 14.0879 18.4531C13.7041 18.0868 13.5123 17.5765 13.5123 16.9224C13.5123 16.277 13.7041 15.7711 14.0879 15.4048C14.4804 15.0385 14.9906 14.8553 15.6186 14.8553C16.2378 14.8553 16.7437 15.0385 17.1362 15.4048C17.5287 15.7711 17.7249 16.277 17.7249 16.9224ZM15.0951 16.9224C15.0951 17.184 15.1431 17.3803 15.2391 17.5111C15.3437 17.6332 15.4702 17.6943 15.6185 17.6943C15.7667 17.6943 15.8888 17.6332 15.9848 17.5111C16.0894 17.3803 16.1418 17.184 16.1418 16.9224C16.1418 16.6695 16.0894 16.4819 15.9848 16.3598C15.8888 16.2377 15.7667 16.1766 15.6185 16.1766C15.4702 16.1766 15.3437 16.2377 15.2391 16.3598C15.1431 16.4819 15.0951 16.6695 15.0951 16.9224Z" fill="#25A576"/>
</svg>
