<svg width="25" height="24" viewBox="0 0 25 24" fill="none" xmlns="http://www.w3.org/2000/svg">
<path d="M21.3519 6.0506C21.3022 7.03855 20.3625 7.40975 19.6336 6.741C19.3022 6.4369 18.9054 6.06255 18.4334 5.60285C17.3672 6.5731 15.7136 8.08585 13.7422 9.91645C13.2245 10.3972 12.3836 10.3435 11.9313 9.8007L11.931 9.8003C11.0434 8.73835 10.1492 7.6807 9.2238 6.6514C8.1425 7.4453 6.2016 8.95825 4.27549 10.8844C3.78733 11.3725 2.99587 11.3725 2.50772 10.8844C2.01956 10.3962 2.01956 9.60475 2.50772 9.1166C4.39733 7.227 6.4706 5.4545 8.69415 3.96314L8.6976 3.96082C8.69845 3.96027 8.6982 3.96042 8.6982 3.96042C9.194 3.6299 9.85415 3.69527 10.2755 4.1166C11.2435 5.08455 12.1181 6.14925 13.0034 7.19265C14.5085 5.80065 15.7764 4.64087 16.6656 3.8314C16.2621 3.41506 15.9278 3.06006 15.6516 2.75898C14.9826 2.02997 15.354 1.08998 16.3422 1.04025C17.6031 0.976795 18.8971 0.939456 20.1427 1.17232C20.7035 1.27718 21.1149 1.68863 21.2197 2.24948C21.4526 3.49521 21.4154 4.78949 21.3519 6.0506Z" fill="#25A576"/>
<path d="M3.00106 22.9843C2.16452 22.9631 1.53088 22.4599 1.4625 21.6259C1.42154 21.1264 1.3916 20.4398 1.3916 19.5C1.3916 18.5602 1.42154 17.8736 1.4625 17.3741C1.53088 16.5401 2.16452 16.0369 3.00106 16.0157C3.36705 16.0064 3.82466 16 4.3916 16C4.95854 16 5.41615 16.0064 5.78215 16.0157C6.6187 16.0369 7.2523 16.5401 7.3207 17.3741C7.36165 17.8736 7.3916 18.5602 7.3916 19.5C7.3916 20.4398 7.36165 21.1264 7.3207 21.6259C7.2523 22.4599 6.6187 22.9631 5.78215 22.9843C5.41615 22.9936 4.95854 23 4.3916 23C3.82466 23 3.36705 22.9936 3.00106 22.9843Z" fill="#80CEB2"/>
<path d="M19.2371 22.9792C18.2625 22.9408 17.5791 22.2557 17.5159 21.2823C17.4504 20.2731 17.3916 18.6337 17.3916 16C17.3916 13.3663 17.4504 11.727 17.5159 10.7177C17.5791 9.74435 18.2625 9.0592 19.2371 9.02075C19.5587 9.00805 19.9406 9 20.3916 9C20.8427 9 21.2245 9.00805 21.5461 9.02075C22.5207 9.0592 23.2041 9.74435 23.2673 10.7177C23.3328 11.727 23.3916 13.3663 23.3916 16C23.3916 18.6337 23.3328 20.2731 23.2673 21.2823C23.2041 22.2557 22.5207 22.9408 21.5461 22.9792C21.2245 22.992 20.8427 23 20.3916 23C19.9406 23 19.5587 22.992 19.2371 22.9792Z" fill="#80CEB2"/>
<path d="M11.1682 22.9832C10.2343 22.9548 9.5536 22.3419 9.4865 21.41C9.4338 20.6775 9.3916 19.5936 9.3916 18C9.3916 16.4064 9.4338 15.3225 9.4865 14.59C9.5536 13.6581 10.2343 13.0453 11.1682 13.0169C11.5038 13.0067 11.9079 13 12.3916 13C12.8753 13 13.2795 13.0067 13.615 13.0169C14.5489 13.0453 15.2296 13.6581 15.2967 14.59C15.3494 15.3225 15.3916 16.4064 15.3916 18C15.3916 19.5936 15.3494 20.6775 15.2967 21.41C15.2296 22.3419 14.5489 22.9548 13.615 22.9832C13.2795 22.9934 12.8753 23 12.3916 23C11.9079 23 11.5038 22.9934 11.1682 22.9832Z" fill="#80CEB2"/>
</svg>
