<svg width="25" height="24" viewBox="0 0 25 24" fill="none" xmlns="http://www.w3.org/2000/svg">
<path d="M21.3916 12.5C21.3916 17.7467 17.1383 22 11.8916 22C6.6449 22 2.3916 17.7467 2.3916 12.5C2.3916 7.2533 6.6449 3 11.8916 3C17.1383 3 21.3916 7.2533 21.3916 12.5Z" fill="#80CEB2"/>
<path d="M23.3313 12.2457C22.7514 6.33875 18.053 1.6404 12.1461 1.06041C11.3921 0.98639 10.7522 1.45342 10.6469 2.20361C10.5185 3.11821 10.3916 4.67174 10.3916 7.24015C10.3916 10.4368 10.5881 12.0613 10.7396 12.8386C10.8223 13.2634 11.1283 13.5694 11.5531 13.6522C12.3304 13.8036 13.955 14.0001 17.1516 14.0001C19.72 14.0001 21.2735 13.8733 22.1881 13.7449C22.9383 13.6396 23.4054 12.9996 23.3313 12.2457Z" fill="#25A576"/>
</svg>
