<svg width="25" height="24" viewBox="0 0 25 24" fill="none" xmlns="http://www.w3.org/2000/svg">
<path fill-rule="evenodd" clip-rule="evenodd" d="M2.95366 1.36134C2.31565 1.42257 1.81419 1.92403 1.75295 2.56203C1.57287 4.43837 1.72361 6.17155 1.82225 6.9956C1.86028 7.3133 2.06126 7.58955 2.37351 7.65925C2.64887 7.7207 3.01736 7.7575 3.41233 7.66955C3.72462 7.6 3.92423 7.3133 3.96316 6.99575C4.08307 6.01755 4.12221 4.8842 4.13498 4.24859C4.14053 3.9725 4.36416 3.74887 4.64024 3.74332C5.27585 3.73055 6.4092 3.69142 7.38735 3.57153C7.70495 3.53261 7.99165 3.33299 8.06115 3.02069C8.1491 2.62574 8.11235 2.25725 8.05085 1.98189C7.98115 1.66964 7.7049 1.46866 7.38725 1.43063C6.56315 1.332 4.83001 1.18127 2.95366 1.36134ZM21.8296 1.36134C22.4676 1.42257 22.969 1.92403 23.0303 2.56203C23.2103 4.43837 23.0596 6.17155 22.961 6.9956C22.9229 7.3133 22.722 7.58955 22.4097 7.65925C22.1343 7.7207 21.7659 7.7575 21.3709 7.66955C21.0586 7.6 20.859 7.3133 20.8201 6.99575C20.7001 6.01755 20.661 4.8842 20.6482 4.24859C20.6427 3.9725 20.4191 3.74887 20.143 3.74332C19.5074 3.73055 18.374 3.69142 17.3959 3.57153C17.0783 3.53261 16.7916 3.33299 16.722 3.02069C16.6341 2.62574 16.6709 2.25725 16.7323 1.98189C16.8021 1.66964 17.0783 1.46866 17.396 1.43063C18.2201 1.332 19.9532 1.18127 21.8296 1.36134ZM23.0303 21.438C22.969 22.076 22.4676 22.5775 21.8296 22.6387C19.9532 22.8188 18.2201 22.668 17.396 22.5693C17.0783 22.5313 16.8021 22.3304 16.7323 22.0181C16.6709 21.7428 16.6341 21.3743 16.722 20.9793C16.7916 20.667 17.0783 20.4674 17.3959 20.4284C18.374 20.3086 19.5074 20.2695 20.143 20.2567C20.4191 20.2512 20.6427 20.0275 20.6482 19.7514C20.661 19.1158 20.7001 17.9825 20.8201 17.0042C20.859 16.6867 21.0586 16.4 21.3709 16.3305C21.7659 16.2425 22.1343 16.2793 22.4097 16.3407C22.722 16.4104 22.9229 16.6867 22.961 17.0044C23.0596 17.8285 23.2103 19.5616 23.0303 21.438ZM2.95366 22.6387C2.31565 22.5775 1.81419 22.076 1.75295 21.438C1.57287 19.5616 1.72361 17.8285 1.82225 17.0044C1.86028 16.6867 2.06126 16.4104 2.37351 16.3407C2.64887 16.2793 3.01736 16.2425 3.41233 16.3305C3.72462 16.4 3.92423 16.6867 3.96316 17.0042C4.08307 17.9825 4.12221 19.1158 4.13498 19.7514C4.14053 20.0275 4.36416 20.2512 4.64024 20.2567C5.27585 20.2695 6.4092 20.3086 7.38735 20.4284C7.70495 20.4674 7.99165 20.667 8.06115 20.9793C8.1491 21.3743 8.11235 21.7428 8.05085 22.0181C7.98115 22.3304 7.7049 22.5313 7.38725 22.5693C6.56315 22.668 4.83001 22.8188 2.95366 22.6387Z" fill="#A44AE9"/>
<path d="M1.52215 11.1971C1.68136 10.7756 2.1466 10.6349 2.59681 10.6175C3.74239 10.5734 6.52925 10.5 12.3916 10.5C18.254 10.5 21.0408 10.5734 22.1864 10.6175C22.6366 10.6349 23.1019 10.7756 23.2611 11.1971C23.336 11.3955 23.3916 11.658 23.3916 12C23.3916 12.342 23.336 12.6045 23.2611 12.8029C23.1019 13.2244 22.6366 13.3651 22.1864 13.3825C21.0408 13.4266 18.254 13.5 12.3916 13.5C6.52925 13.5 3.74239 13.4266 2.59681 13.3825C2.1466 13.3651 1.68136 13.2244 1.52215 12.8029C1.44719 12.6045 1.3916 12.342 1.3916 12C1.3916 11.658 1.44719 11.3955 1.52215 11.1971Z" fill="#CBA2EB"/>
</svg>
