<svg width="25" height="24" viewBox="0 0 25 24" fill="none" xmlns="http://www.w3.org/2000/svg">
<path d="M23.3915 3.25C23.3915 2.55964 22.8319 2 22.1415 2H20.4531C19.5353 2 18.7354 2.62459 18.5128 3.51493L17.8915 6H4.39149C3.28692 6 2.43151 6.8938 2.56563 7.9902C2.67482 8.88275 2.85246 10.1122 3.14149 11.75C3.89149 16 4.89149 17.5 4.89149 17.5C4.89149 17.5 6.0026 18 10.9471 18C15.8915 18 17.5026 17.5 17.5026 17.5C17.5026 17.5 18.3915 15.25 19.4471 11C19.954 8.95895 20.5858 5.96765 20.8089 4.89825C20.8573 4.66593 21.0618 4.5 21.2992 4.5H22.1415C22.8319 4.5 23.3915 3.94036 23.3915 3.25Z" fill="#CCA2EB"/>
<path d="M8.8916 19C8.8916 20.6568 7.54845 22 5.8916 22C4.23475 22 2.8916 20.6568 2.8916 19C2.8916 17.3432 4.23475 16 5.8916 16C7.54845 16 8.8916 17.3432 8.8916 19Z" fill="#A44AE9"/>
<path d="M19.3916 19C19.3916 20.6568 18.0485 22 16.3916 22C14.7348 22 13.3916 20.6568 13.3916 19C13.3916 17.3432 14.7348 16 16.3916 16C18.0485 16 19.3916 17.3432 19.3916 19Z" fill="#A44AE9"/>
<path d="M8.00113 10.5941C7.94253 10.0083 8.40253 9.5 8.99123 9.5C9.50243 9.5 9.93043 9.88735 9.98133 10.3961L10.2823 13.4059C10.3409 13.9917 9.88088 14.5 9.29218 14.5C8.78098 14.5 8.35298 14.1126 8.30208 13.6039L8.00113 10.5941Z" fill="#A44AE9"/>
<path d="M12.8021 10.3961C12.853 9.88735 13.281 9.5 13.7922 9.5C14.3809 9.5 14.8409 10.0083 14.7823 10.5941L14.4813 13.6039C14.4304 14.1126 14.0024 14.5 13.4912 14.5C12.9025 14.5 12.4425 13.9917 12.5011 13.4059L12.8021 10.3961Z" fill="#A44AE9"/>
</svg>
