<svg width="25" height="24" viewBox="0 0 25 24" fill="none" xmlns="http://www.w3.org/2000/svg">
<path d="M4.47218 8.6834C4.31688 7.75895 4.82242 6.964 5.70806 6.6567C6.64841 6.3304 8.18601 5.8493 10.653 5.18825C13.12 4.52724 14.6922 4.17508 15.6697 3.98749C16.5903 3.81081 17.4256 4.24647 17.7533 5.12475C18.0056 5.80095 18.3286 6.78805 18.7086 8.20615C19.0886 9.62425 19.3024 10.6406 19.422 11.3524C19.5773 12.2768 19.0718 13.0718 18.1861 13.3791C17.2458 13.7054 15.7082 14.1865 13.2412 14.8475C10.7742 15.5085 9.20206 15.8607 8.22451 16.0483C7.30391 16.225 6.46861 15.7893 6.14086 14.911C5.88856 14.2348 5.56561 13.2477 5.1856 11.8296C4.80562 10.4115 4.59176 9.3952 4.47218 8.6834Z" fill="#A44AE9"/>
<path d="M2.64416 7.97715C2.74937 7.03875 3.43205 6.3672 4.37136 6.27055C5.6491 6.1391 7.93575 6 11.8916 6C15.8475 6 18.1341 6.1391 19.4119 6.27055C20.3512 6.3672 21.0339 7.03875 21.1391 7.97715C21.2649 9.0995 21.3916 10.9796 21.3916 14C21.3916 17.0204 21.2649 18.9005 21.1391 20.0229C21.0339 20.9613 20.3512 21.6328 19.4119 21.7295C18.1341 21.8609 15.8475 22 11.8916 22C7.93575 22 5.6491 21.8609 4.37136 21.7295C3.43205 21.6328 2.74937 20.9613 2.64416 20.0229C2.51831 18.9005 2.3916 17.0204 2.3916 14C2.3916 10.9796 2.51831 9.0995 2.64416 7.97715Z" fill="#CBA2EB"/>
<path d="M15.4175 12.6758C15.4588 11.7325 16.1222 11.078 17.0654 11.0353C17.5274 11.0144 18.1242 11 18.8916 11C19.659 11 20.2559 11.0144 20.7178 11.0353C21.661 11.078 22.3245 11.7325 22.3658 12.6758C22.3814 13.0333 22.3916 13.4698 22.3916 14C22.3916 14.5302 22.3814 14.9667 22.3658 15.3242C22.3245 16.2675 21.661 16.922 20.7178 16.9646C20.2559 16.9855 19.659 17 18.8916 17C18.1242 17 17.5274 16.9855 17.0654 16.9646C16.1222 16.922 15.4588 16.2675 15.4175 15.3242C15.4019 14.9667 15.3916 14.5302 15.3916 14C15.3916 13.4698 15.4019 13.0333 15.4175 12.6758Z" fill="#A44AE9"/>
<path d="M19.3916 14C19.3916 14.5523 18.9439 15 18.3916 15C17.8393 15 17.3916 14.5523 17.3916 14C17.3916 13.4477 17.8393 13 18.3916 13C18.9439 13 19.3916 13.4477 19.3916 14Z" fill="#CBA2EB"/>
</svg>
